<?xml version="1.0" encoding="utf-8"?>
<!-- Generator: Adobe Illustrator 23.0.1, SVG Export Plug-In . SVG Version: 6.00 Build 0)  -->
<svg version="1.1" id="Warstwa_1" xmlns="http://www.w3.org/2000/svg" xmlns:xlink="http://www.w3.org/1999/xlink" x="0px" y="0px"
	 viewBox="0 0 1080 1080" style="enable-background:new 0 0 1080 1080;" xml:space="preserve">
<style type="text/css">
	.st0{fill:none;stroke:#231F20;stroke-width:3;stroke-miterlimit:10;}
	.st1{fill:#3F3B3C;stroke:#3F3B3C;stroke-width:0.25;stroke-miterlimit:10;}
	.st2{fill:none;stroke:#231F20;stroke-width:4;stroke-miterlimit:10;}
</style>
<g id="XMLID_1_">
	<g>
	</g>
	<g>
		<path class="st0" d="M481.9,796.5c7.1,12.5,14.8,24.4,24.2,36.2c18.1,22.9,36.4,45.2,59.6,62.8c24.4,18.7,48.8,33.6,77.7,44.4
			c83.1,31,138.8,27.9,211.6-15.7c72.7-43.6,135.6-109.8,171-189.6c13.3-30,25.6-58.4,31.4-90.7c9.5-53.6,9.4-107.3-0.3-160.9
			c-5.3-29-12.6-61.3-22.6-89c-25.3-70.2-30.3-73.3-55.5-143.9"/>
		<path class="st0" d="M562.5,229.2c11.3-25.4,24.4-44.3,37.4-59.8c23.7-28.4,44.5-40.9,78.8-54.8c21-8.6,29-12.9,57.2-32.8
			c12.1-8.6,22.7-31.6,27.9-38.2c6.8-8.6,16.3-9.6,27.3-9.9c21.4-0.6,42,5.5,63,17.6c13.3,7.7,20.4,17.5,31.4,28.2
			c8.3,8.1,15.3,19.2,22.6,28.2c7.9,9.7,13.7,15.7,19.2,25.1c17.8,30,21.4,36.6,32.5,66.9c1,2.6,17.9,46.6,19,50.4"/>
		<path class="st0" d="M772.8,385.6c-4.7-0.8-9.6-1.4-14.5-1.6c-23.1-1-48.3,4.9-66.3,17.7c-23.8,16.9-43.4,41.9-64.3,65.2
			c-7.3,8.1-17.3,22.8-22.2,32.6c-3.6,7.3-5.4,12.3-8.6,20c-15.3,37-20.4,79.7-18.9,120.1c0.3,8.2,3.6,21.6,5.6,29.6
			c4.4,17.3,16.6,33.7,27,48.2c7.1,9.9,8.7,12.8,17.6,21.2c7.4,7,17.4,17.5,25.5,23.7c10.8,8.2,17.9,9.9,34,15.4
			c32.8,11.2,86.3,11.2,119.1-0.3c30.2-10.6,35.8-12.7,60.1-31.4c11.2-8.6,17.6-11.4,30.1-24.5c18.9-19.8,27.5-43.4,35-67.7
			c3-9.8,3.2-19.2,3.8-29.5c2.7-47.2-2.9-91.5-25.7-128c-23.1-36.9-48.3-67-85.2-90c-19.2-12-43.8-21.4-66.6-22.3
			c-0.7,0-1.4-0.1-2.1-0.1"/>
		<path class="st0" d="M469.5,820.9c2.1,3.3,4.2,6.6,6.2,9.8c7.4,11.7,16.3,22.4,25.6,32.6c58,64.2,135.3,104.7,224.8,112.9
			c57.4,5.3,109.7-12.5,158.2-44c52.2-33.8,76.6-66.8,111.6-117.2c97-139.6,95.2-314.9,30.2-459.4"/>
		<path class="st0" d="M552.9,182.6c9.3-13.4,19.7-25.5,28.6-38.8c18.3-27.4,46.1-51.4,72.9-70.5c34.4-24.6,69.2-49.2,111.3-53.6
			c46.2-4.9,90.6,10.9,114.9,33.6c16.2,15.1,30.5,33.1,42.5,51.7c5.9,9.2,10.1,16.6,15,26.1c18.8,37,27.1,63.5,41.5,101.3
			c5.9,15.5,12,28.5,17.1,44.3c9.9,30.8,19.8,48.9,29.3,79"/>
	</g>
</g>
<g>
	<g>
		<g>
			<path class="st1" d="M830.2,679.9c0,0,0.2,0,0.5-0.2c0.3-0.2,0.9-0.4,1.5-0.7c1.3-0.6,3.3-1.6,5.8-2.9c5-2.6,12.2-6.6,20.1-12.9
				c3.9-3.2,8-7,11.8-11.6c0.5-0.6,0.9-1.2,1.4-1.8c0.4-0.6,0.9-1.2,1.3-1.9c0.4-0.6,0.9-1.3,1.3-1.9c0.4-0.7,0.8-1.4,1.2-2
				c0.9-1.3,1.5-2.8,2.3-4.3c0.4-0.7,0.7-1.5,1.1-2.2c0.3-0.8,0.7-1.5,1-2.3c2.6-6.2,4.8-12.9,6.4-20c1.5-7.1,2.3-14.7,2-22.5
				c-0.3-7.8-1.3-15.2-2.7-22.4c-1.4-7.1-3.2-14-5.5-20.3c-2.3-6.3-4.8-12.2-7.6-17.4c-1.3-2.7-2.9-5.1-4.3-7.5
				c-0.7-1.2-1.5-2.3-2.3-3.4c-0.8-1.1-1.5-2.2-2.2-3.2c-0.8-1-1.5-2-2.3-2.9c-0.7-0.9-1.4-1.9-2.2-2.7c-1.5-1.7-2.9-3.4-4.3-4.8
				c-1.4-1.4-2.8-2.7-4-3.9c-1.3-1.1-2.5-2.2-3.6-3.1c-0.5-0.5-1-0.9-1.5-1.3c-0.5-0.4-1-0.7-1.4-1.1c-0.9-0.6-1.6-1.2-2.2-1.6
				c-0.6-0.4-1.1-0.8-1.4-1c-0.3-0.2-0.5-0.3-0.5-0.3s0.1,0.2,0.4,0.4c0.3,0.2,0.7,0.6,1.3,1.1c0.6,0.5,1.3,1,2.1,1.7
				c0.4,0.3,0.9,0.7,1.4,1.1c0.5,0.4,1,0.9,1.5,1.3c1,0.9,2.2,2,3.5,3.1c1.2,1.2,2.5,2.6,3.9,4c1.4,1.4,2.7,3.1,4.2,4.8
				c0.8,0.8,1.4,1.8,2.2,2.7c0.7,1,1.5,1.9,2.2,2.9c0.7,1,1.4,2.1,2.2,3.2c0.7,1.1,1.5,2.2,2.2,3.4c1.4,2.4,2.9,4.8,4.2,7.4
				c2.8,5.2,5.2,11.1,7.5,17.3c2.2,6.3,4,13,5.4,20.1c1.4,7.1,2.4,14.6,2.6,22.2c0.2,7.7-0.5,15.1-2,22.2
				c-1.5,7.1-3.7,13.7-6.2,19.8c-0.3,0.8-0.6,1.5-1,2.3c-0.3,0.8-0.7,1.5-1,2.2c-0.7,1.4-1.4,2.9-2.2,4.2c-0.4,0.7-0.8,1.3-1.2,2
				c-0.4,0.7-0.9,1.3-1.3,1.9c-0.4,0.6-0.9,1.2-1.3,1.9c-0.5,0.6-0.9,1.2-1.4,1.7c-3.7,4.6-7.7,8.4-11.6,11.6
				c-7.8,6.4-14.9,10.4-19.8,13.2c-2.5,1.4-4.4,2.4-5.7,3.1c-0.7,0.4-1.2,0.6-1.5,0.8C830.4,679.8,830.2,679.9,830.2,679.9z"/>
		</g>
	</g>
</g>
<g>
	<g id="XMLID_2_">
		<g>
		</g>
		<g>
			<path class="st2" d="M26,746.3c-3.9,38.1-6.8,110.4-4,144.7c3.1,37.4,14.7,61.3,39,89.9c13.3,15.6,36.7,24.4,61.3,28.9
				c20,3.7,40.8,4.6,57.5,4.3c37.2-0.9,56-0.8,91-13.4c15.2-5.5,34-11.4,46.9-21.1c10.8-8.2,33.7-21.7,43.5-31
				c18.9-18,36.1-30,53.4-49.4c22.4-25.1,36.8-44.4,50.2-67.7c64.5-111.4,72.6-178.9,95-342.8"/>
			<path class="st2" d="M451.3,62.9c-1.6-0.2-3.3-0.5-5-0.7c-9.7-1.2-29.4,0.7-39.2,1.8c-35.8,3.8-72.9,30.5-92.3,60.8
				C231,255.8,169.2,314.5,105,464.7"/>
			<path class="st2" d="M559.9,488.6c0.1-0.6,0.2-1.3,0.2-1.8c7.7-53.5,4.4-15.3,8.1-71.3c5.5-85.7,1.4-172.5-20.7-255.5
				c-7.7-29.1-20.2-59.1-45.2-75.8c-17.7-11.8-30.9-18.1-50.9-21.2"/>
			<path class="st2" d="M461,381.7c0,0,23.4-135.3,26-215.5c0.8-25.3-0.2-34.5-4.6-54.7c-4.8-22.3-12.2-40.5-31.1-48.6l-0.1,0"/>
			<path class="st2" d="M461,381.7c-12,110.3-22.6,194.1-56.6,301.8c-10,31.7-17.9,45.7-28.9,77c-26.2,75-69.3,145.9-128,199.5
				c-28.7,26.2-85.4,52.5-125.2,49.8c-0.1,0-0.3,0-0.4,0"/>
			<path class="st2" d="M82.7,815.4c36.4,23.5,50,29.1,84.7,34.9c9.7,1.6,35.7,3.8,45.4,1.7c16.2-3.5,36.9-17.7,48.7-29.4
				c36.1-35.9,45-75.3,56.5-124.9c11.5-49.6,22.2-105.5,24.2-156.4c1.8-45.8,4.9-63.7-2.8-106.2c-1.6-9-7.5-29-11.8-37.1
				c-6.3-11.9-4.7-19-23-25.2c-12.7-4.4-36.4-1.1-49.6,1.7c-42.5,9-71.8,26.2-105.2,50.1c-17.4,12.5-31.6,25.2-44.6,40.1
				c-4.4,5-8.7,10.3-13,15.9c-22.7,29.9-44.2,59.9-59.6,93.2c-9.8,21.1-18.7,43.8-20,66.9c-2.1,37-2,73.7,13.5,105.6
				c3.2,6.5,7,12.9,11.6,18.9C68.9,806.8,48.2,784.5,82.7,815.4"/>
		</g>
	</g>
</g>
<g>
	<g>
		<g>
			<path class="st1" d="M277.7,716c0,0-0.1,0.2-0.2,0.6c-0.1,0.4-0.2,1-0.3,1.8c-0.1,0.8-0.3,1.8-0.5,2.9c-0.2,1.2-0.5,2.5-0.8,4
				c-0.6,3-1.5,6.7-2.6,10.9c-0.5,2.1-1.3,4.3-2,6.7c-0.4,1.2-0.8,2.4-1.3,3.6c-0.2,0.6-0.4,1.2-0.7,1.9c-0.2,0.6-0.5,1.3-0.7,1.9
				c-1.9,5.1-4.5,10.6-7.6,16.2c-3.2,5.6-7,11.3-11.8,16.7c-2.4,2.7-5,5.3-7.9,7.7c-1.5,1.2-2.9,2.5-4.5,3.5
				c-1.6,1.1-3.2,2.1-4.9,3.1c-6.8,3.9-14.6,6.6-22.7,8.6c-4.1,1-8.1,1.8-12.1,2.5c-2,0.3-4,0.5-6,0.8c-2,0.2-4,0.2-5.9,0.4
				c-7.9,0.2-15.4-0.5-22.5-1.8c-1.8-0.4-3.5-0.7-5.2-1.1c-1.7-0.5-3.4-0.9-5-1.3c-1.7-0.4-3.3-1-4.8-1.5c-1.6-0.5-3.2-1-4.6-1.6
				c-1.5-0.6-3-1.2-4.4-1.7c-1.5-0.6-2.8-1.2-4.2-1.8c-2.8-1.2-5.3-2.5-7.7-3.8c-9.7-5.1-16.8-10.5-21.5-14.4
				c-2.4-1.9-4.1-3.6-5.3-4.6c-0.6-0.5-1.1-0.9-1.4-1.2c-0.3-0.3-0.5-0.4-0.5-0.4c0,0,0.1,0.2,0.4,0.5c0.3,0.3,0.7,0.7,1.3,1.3
				c1.2,1.1,2.8,2.9,5.2,4.8c4.6,4.1,11.7,9.6,21.4,14.8c2.4,1.3,5,2.7,7.7,3.9c1.4,0.6,2.7,1.3,4.2,1.9c1.5,0.6,2.9,1.2,4.4,1.8
				c1.5,0.6,3.1,1.1,4.7,1.6c1.6,0.5,3.2,1.1,4.9,1.5c1.7,0.5,3.4,0.9,5.1,1.4c1.7,0.4,3.5,0.7,5.3,1.1c7.2,1.3,14.8,2.1,22.8,1.9
				c2-0.1,4-0.2,6-0.4c2-0.3,4-0.5,6.1-0.8c4-0.7,8.1-1.5,12.2-2.5c8.2-2,16-4.7,23-8.7c1.7-1,3.4-2,5-3.2c1.6-1.1,3.1-2.4,4.6-3.6
				c2.9-2.5,5.6-5.1,8-7.9c4.8-5.5,8.7-11.3,11.8-17c3.1-5.7,5.6-11.2,7.5-16.4c0.2-0.6,0.5-1.3,0.7-1.9c0.2-0.6,0.4-1.3,0.6-1.9
				c0.4-1.2,0.8-2.5,1.2-3.6c0.7-2.4,1.4-4.6,1.9-6.7c1.1-4.2,1.9-7.9,2.4-10.9c0.3-1.5,0.5-2.9,0.7-4c0.2-1.2,0.3-2.2,0.4-3
				c0.1-0.8,0.2-1.4,0.2-1.8C277.7,716.2,277.7,716,277.7,716z"/>
		</g>
	</g>
</g>
</svg>
