<?xml version="1.0" encoding="utf-8"?>
<!-- Generator: Adobe Illustrator 23.0.1, SVG Export Plug-In . SVG Version: 6.00 Build 0)  -->
<svg version="1.1" id="Warstwa_1" xmlns="http://www.w3.org/2000/svg" xmlns:xlink="http://www.w3.org/1999/xlink" x="0px" y="0px"
	 viewBox="0 0 1080 1080" style="enable-background:new 0 0 1080 1080;" xml:space="preserve">
<style type="text/css">
	.st0{fill:none;stroke:#231F20;stroke-width:12;stroke-miterlimit:10;}
	.st1{fill:#3F3B3C;stroke:#3F3B3C;stroke-width:3;stroke-miterlimit:10;}
</style>
<g id="XMLID_1_">
	<g>
	</g>
	<g>
		<path class="st0" d="M478.2,790.1c6.9,12.1,14.4,23.7,23.6,35.2c18,22.7,36.1,44.8,59.2,62.4c24.3,18.5,48.5,33.4,77.1,44
			c82.6,30.7,137.9,27.7,210.1-15.6c72.2-43.3,134.6-109,169.8-188.3c13.2-29.8,25.4-57.9,31.1-90.1c9.5-53.3,9.4-106.6-0.3-159.8
			c-5.2-28.8-12.5-60.9-22.4-88.4c-25.1-69.7-30-72.8-55.1-142.9"/>
		<path class="st0" d="M563.3,216.3c-2.3,4.1-4.6,8.2-6.9,12.3"/>
		<path class="st0" d="M563.3,216.3c11.2-25.2,18.8-34.4,31.7-49.8c23.5-28.2,44.2-40.6,78.2-54.5c20.9-8.5,28.8-12.8,56.8-32.5
			c12-8.5,22.6-31.5,27.7-38c6.8-8.5,16.2-9.6,27.1-9.8c21.2-0.5,41.7,5.5,62.5,17.5c13.2,7.7,20.3,17.4,31.2,28
			c8.3,8,15.2,19,22.5,28c7.8,9.6,13.6,15.6,19.1,24.9c17.6,29.8,21.2,36.4,32.3,66.4c1,2.6,17.8,46.2,18.8,50"/>
		<path class="st0" d="M761.1,380.4c-1.3-0.2-2.6-0.4-3.9-0.4c-2.4-0.3-4.7-0.4-7.1-0.5"/>
		<path class="st0" d="M766.7,381.3c-0.6-0.1-1.3-0.2-2-0.3c-0.7-0.1-1.4-0.2-2.2-0.3c-0.5-0.1-0.9-0.2-1.4-0.2
			c-1.3-0.2-2.6-0.3-3.9-0.4c-24.2-2.1-51.6,3.6-70.8,17.2c-23.6,16.8-43.1,41.6-63.8,64.7c-7.3,8.1-17.2,22.7-22.1,32.4
			c-3.6,7.3-5.4,12.2-8.5,19.9c-15.2,36.7-20.4,79.1-18.7,119.3c0.3,8.2,3.6,21.5,5.6,29.4c4.3,17.2,16.5,33.5,26.9,47.9
			c7,9.8,8.6,12.7,17.4,21c7.4,7,17.3,17.4,25.3,23.6c10.7,8.2,17.8,9.8,33.8,15.3c32.6,11.1,85.8,11.1,118.3-0.3
			c30-10.5,35.6-12.6,59.7-31.2c11.1-8.5,17.5-11.3,29.9-24.3c18.7-19.7,27.3-43.1,34.8-67.3c3-9.7,3.1-19.1,3.7-29.3
			c2.7-46.8-2.9-90.9-25.6-127.1c-22.9-36.6-47.9-66.6-84.6-89.4c-15.6-9.8-34.8-17.8-53.7-20.9"/>
		<path class="st0" d="M465.2,813.2c2.2,3.4,4.4,6.7,6.5,10.1c7.3,11.6,16.2,22.2,25.4,32.4c57.6,63.7,134.4,103.9,223.2,112.2
			c57,5.3,109-12.5,157.1-43.7c51.8-33.6,76.1-66.4,110.9-116.5c96.4-138.6,94.6-312.7,30-456.2"/>
		<path class="st0" d="M548,180.2c9.3-13.6,19.8-25.7,28.8-39.1c18.1-27.2,45.7-51,72.4-70c34.2-24.5,68.7-48.8,110.5-53.3
			c45.9-4.8,89.9,10.8,114.1,33.3c16.1,15,30.2,33,42.2,51.3c6,9.1,10.1,16.5,14.9,25.9c18.7,36.8,26.9,63.1,41.2,100.6
			c5.9,15.5,12,28.3,17,44c9.8,30.6,19.7,48.6,29.1,78.4"/>
	</g>
</g>
<g>
	<g>
		<g>
			<path class="st1" d="M823.8,673.6c0.4,0.9,3.7,0.5,9.1-1.4c2.7-0.9,6-2.3,9.7-4.2c3.7-1.8,7.8-4.2,12.1-7.3
				c4.3-3.1,8.8-6.9,13.1-11.7c0.5-0.6,1.1-1.2,1.6-1.8c0.5-0.7,1-1.3,1.5-2c0.5-0.7,1-1.3,1.5-2c0.5-0.7,0.9-1.4,1.4-2.2
				c1-1.4,1.8-3,2.6-4.6l0.6-1.2l0.5-1.2c0.4-0.8,0.7-1.6,1.1-2.4c2.9-6.3,5.3-13.4,7-20.9c1.7-7.5,2.6-15.6,2.3-23.9
				c0-1-0.1-2.1-0.1-3.1c-0.1-1-0.1-2.1-0.2-3c-0.2-2-0.4-3.9-0.6-5.8c-0.6-3.9-1.1-7.7-1.9-11.3c-1.6-7.4-3.5-14.4-6-20.9
				c-2.5-6.5-5.3-12.5-8.5-17.9c-1.5-2.7-3.2-5.2-4.8-7.6c-0.8-1.2-1.7-2.3-2.5-3.4c-0.8-1.1-1.6-2.2-2.5-3.2c-0.9-1-1.7-2-2.5-2.9
				c-0.8-0.9-1.6-1.9-2.5-2.7c-1.7-1.6-3.2-3.2-4.8-4.6c-1.6-1.3-3.1-2.6-4.5-3.7c-1.5-1-2.8-1.9-4-2.7c-0.6-0.4-1.2-0.8-1.7-1.1
				c-0.6-0.3-1.1-0.6-1.6-0.8c-1-0.5-1.9-0.9-2.6-1.1c-1.5-0.5-2.4-0.6-2.7-0.2s0,1.3,0.9,2.6c0.4,0.6,1,1.4,1.7,2.2
				c0.3,0.4,0.7,0.8,1.1,1.3c0.4,0.5,0.8,1,1.2,1.5c0.9,1.1,1.9,2.2,3,3.5c1,1.3,2.1,2.7,3.3,4.2c1.2,1.5,2.3,3.2,3.6,4.9
				c0.7,0.8,1.2,1.8,1.9,2.8c0.6,0.9,1.3,1.9,1.9,2.9c0.7,1,1.2,2.1,1.9,3.2c0.6,1.1,1.3,2.1,1.9,3.3c1.2,2.3,2.5,4.7,3.6,7.2
				c2.4,5,4.6,10.7,6.5,16.6c2,6,3.5,12.5,4.7,19.2c0.6,3.4,1.1,6.9,1.5,10.4c0.2,1.8,0.3,3.6,0.5,5.4c0.1,0.9,0.1,1.8,0.2,2.6
				c0.1,0.9,0.1,1.8,0.1,2.6c0.2,7-0.4,13.9-1.7,20.5c-1.3,6.6-3.2,12.8-5.5,18.7c-0.3,0.7-0.6,1.5-0.9,2.2l-0.4,1.1l-0.4,1
				c-0.6,1.3-1.1,2.6-1.8,3.8c-0.3,0.6-0.7,1.2-1,1.8c-0.3,0.6-0.7,1.2-1.1,1.7c-0.4,0.6-0.7,1.2-1.1,1.7c-0.4,0.5-0.8,1.1-1.2,1.6
				c-3.2,4.3-6.7,8.1-10.2,11.3c-7,6.5-13.5,11.1-17.9,14.5C825.7,670.5,823.3,672.7,823.8,673.6z"/>
		</g>
	</g>
</g>
<g>
	<g id="XMLID_2_">
		<g>
		</g>
		<g>
			<path class="st0" d="M120.4,1001.1c19.9,3.8,40.7,4.7,57.4,4.3c37-0.9,55.6-0.8,90.4-13.3c15.1-5.4,33.9-11.3,46.6-21
				c10.8-8.1,33.5-21.5,43.2-30.8c18.8-17.8,35.8-29.8,53.1-49.1c22.3-24.9,36.5-44.2,49.9-67.2c64.1-110.6,72.1-177.7,94.3-340.5
				c0.1-0.6,0.2-1.3,0.3-1.9"/>
			<path class="st0" d="M25.1,739.5c-3.9,37.8-6.8,109.6-3.9,143.7c3.1,37.2,14.6,60.8,38.7,89.2c13.2,15.4,36.2,24.1,60.5,28.7"/>
			<path class="st0" d="M447.5,60.8c-1.6-0.2-3.3-0.5-5-0.7c-9.6-1.2-29.2,0.8-38.9,1.8c-35.5,3.8-72.4,30.3-91.7,60.4
				c-83.3,130-144.6,188.4-208.4,337.6"/>
			<path class="st0" d="M555.3,483.6c7.9-55.8,4.6-16.5,8.2-72.7c5.4-85.1,1.4-171.3-20.6-253.8c-7.7-28.8-20-58.7-44.9-75.3
				c-17.6-11.8-30.7-18-50.6-21.1"/>
			<path class="st0" d="M457.1,377.4c0,0,23.3-134.4,25.9-214c0.8-25.1-0.2-34.3-4.5-54.3c-4.8-22.1-12.1-40.2-30.9-48.2l-0.1,0"/>
			<path class="st0" d="M457.1,377.4c-11.9,109.6-22.5,192.8-56.2,299.7c-9.9,31.4-17.8,45.4-28.7,76.5
				c-26,74.5-68.9,144.9-127.1,198.1c-28.5,26.1-85.2,52.3-124.7,49.3c0,0-0.1,0-0.1,0"/>
			<path class="st0" d="M81.4,808.2c36.1,23.4,49.7,28.9,84.1,34.6c9.6,1.6,35.5,3.7,45,1.7c16.1-3.5,36.7-17.5,48.4-29.2
				c35.9-35.6,44.8-74.8,56.1-124c11.4-49.3,22.1-104.8,24-155.4c1.8-45.4,4.9-63.3-2.8-105.4c-1.6-8.9-7.5-28.8-11.7-36.9
				c-6.3-11.8-4.7-18.8-22.8-25c-12.6-4.3-36.2-1.2-49.2,1.6c-42.3,8.9-71.3,26-104.5,49.8c-17.4,12.4-31.4,25-44.4,39.8
				c-4.4,5-8.6,10.2-12.8,15.7c-22.5,29.7-43.9,59.5-59.2,92.6c-9.7,20.9-18.6,43.4-19.9,66.5c-2.1,36.8-2,73.2,13.5,104.8
				c3.1,6.5,6.9,12.8,11.5,18.8C67.7,799.6,47.1,777.4,81.4,808.2"/>
		</g>
	</g>
</g>
<g>
	<g>
		<g>
			<path class="st1" d="M275,709.4c-0.5-0.1-1.1,0.7-1.8,2.2c-0.4,0.8-0.7,1.7-1.1,2.8c-0.4,1.1-0.9,2.4-1.4,3.8
				c-1,2.9-2.2,6.3-3.7,10.3c-0.7,2-1.6,4.1-2.4,6.3c-0.5,1.1-0.9,2.2-1.4,3.4c-0.2,0.6-0.5,1.2-0.7,1.8c-0.3,0.6-0.5,1.2-0.8,1.8
				c-2.1,4.8-4.8,9.9-8,15c-3.2,5.2-7,10.4-11.5,15.2c-2.3,2.4-4.7,4.7-7.4,6.9c-1.3,1-2.7,2.2-4.1,3.1c-1.4,1-2.9,1.8-4.4,2.7
				c-6.1,3.4-13.2,5.8-20.8,7.7c-3.8,0.9-7.7,1.7-11.6,2.4c-1.8,0.3-3.7,0.5-5.5,0.8c-1.8,0.1-3.6,0.3-5.4,0.4
				c-7.2,0.3-14.3-0.2-21-1.3c-1.7-0.3-3.3-0.6-5-0.9c-1.6-0.4-3.2-0.8-4.8-1.1c-1.6-0.3-3.1-0.8-4.6-1.2c-1.5-0.5-3-0.8-4.5-1.3
				c-1.4-0.5-2.9-1-4.3-1.5c-1.4-0.5-2.7-1.1-4.1-1.6c-2.7-1-5.2-2.2-7.6-3.2c-9.5-4.4-16.8-9-21.9-12.2c-2.6-1.5-4.5-2.9-6-3.6
				c-1.5-0.7-2.4-1-2.8-0.6c-0.4,0.4-0.1,1.3,0.8,2.7c0.9,1.5,2.2,3.5,4.4,5.8c4.2,4.7,11,11,20.7,16.9c2.4,1.5,5,3,7.8,4.4
				c1.4,0.7,2.8,1.5,4.3,2.1c1.5,0.7,3,1.3,4.5,2c1.5,0.7,3.2,1.2,4.8,1.9c1.6,0.6,3.3,1.3,5,1.7c1.7,0.5,3.5,1,5.3,1.6
				c1.8,0.4,3.6,0.9,5.5,1.3c7.5,1.6,15.5,2.5,24,2.4c2.1-0.1,4.2-0.2,6.4-0.3c2.1-0.3,4.3-0.6,6.5-0.8c4.1-0.7,8.3-1.5,12.6-2.5
				c8.5-2.1,16.9-5,24.5-9.5c1.9-1.1,3.7-2.3,5.5-3.6c1.8-1.3,3.3-2.7,4.9-4c3.1-2.7,5.9-5.6,8.4-8.6c5-6,8.9-12.2,12-18.2
				c3.1-6,5.4-11.9,7.1-17.3c0.2-0.7,0.4-1.3,0.6-2c0.2-0.7,0.4-1.3,0.5-2c0.3-1.3,0.7-2.6,1-3.8c0.5-2.5,1.1-4.8,1.5-7
				c0.8-4.4,1.2-8.2,1.4-11.3c0.1-1.6,0.1-3,0.1-4.2c0-1.2-0.1-2.2-0.2-3.1C275.9,710.4,275.5,709.5,275,709.4z"/>
		</g>
	</g>
</g>
</svg>
