<?xml version="1.0" encoding="utf-8"?>
<!-- Generator: Adobe Illustrator 23.0.1, SVG Export Plug-In . SVG Version: 6.00 Build 0)  -->
<svg version="1.1" xmlns="http://www.w3.org/2000/svg" xmlns:xlink="http://www.w3.org/1999/xlink" x="0px" y="0px"
	 viewBox="0 0 1920 1080" style="enable-background:new 0 0 1920 1080;" xml:space="preserve">
<style type="text/css">
	.st0{fill:#F7A33E;}
	.st1{fill:#671949;}
	.st2{fill:#CDC9B7;}
	.st3{fill:#B4A041;}
	.st4{fill:#35A7B4;}
	.st5{fill:#336267;}
	.st6{fill:#B4A046;}
	.st7{fill:#FFFFFF;}
	.st8{fill:none;stroke:#000000;stroke-width:0.5;stroke-linecap:round;stroke-linejoin:round;}
	.st9{fill:none;stroke:#000000;stroke-width:0.25;stroke-miterlimit:10;}
	.st10{fill:none;stroke:#000000;stroke-width:0.25;stroke-linecap:round;stroke-linejoin:round;}
	.st11{fill:none;stroke:#164161;stroke-width:0.25;stroke-miterlimit:10;}
</style>
<g id="Warstwa_1">
	<g id="XMLID_1_">
		<g>
			<path class="st0" d="M1341.7,677.8c5-6,8.7-12.7,10.4-20.4c5.6-25.3,10.7-44.7-7.9-70.5l0,0l-11.5-17
				c17.9,12.5,57.8,39.1,71.5,55.7c12.3,14.9,20.8,33.3,20.4,52c0,2.2-0.2,4.3-0.5,6.5c-4,29.6-30.3,52-56.9,68
				c-53.4,32-118.3,53-153,103c-9.1,13.2-15.8,28.5-14.7,44.2c1.9,25.7,24,45.8,46.6,60.2c51.6,32.9,112.8,50.3,174.3,59.4
				c61.5,9,124,10.2,186.2,13.3c104.8,5.3,209,16.2,313.1,28.7l0,22.2H1.2L1,1039.2h0.2c173.2-90.2,369.7-140.3,567.4-143.8
				c71.3-1.3,146,2.7,210.3-26.7c35.5-16.3,65.1-41.7,98.2-62c47.5-29.1,102.2-47.6,158.4-53.3c39.8-4.1,80-1.9,119.8-5.6
				c43.6-4.1,86.5-15.2,126.2-32.9C1302.7,705.5,1327.6,694.7,1341.7,677.8z"/>
			<path class="st1" d="M1540.8,687.7l11.9,1l334.6,28.9l32.2,18.9l0.4,324.5c-104.1-12.4-208.4-23.4-313.1-28.7
				c-62.2-3.1-124.6-4.3-186.2-13.3c-61.5-9-122.7-26.4-174.3-59.4c-22.6-14.4-44.7-34.5-46.6-60.2c-1.2-15.7,5.5-31.1,14.7-44.2
				c34.7-50,99.6-71,153-103c26.7-16,52.9-38.3,56.9-68c0.3-2.2,0.5-4.3,0.5-6.5L1540.8,687.7z"/>
			<polygon class="st2" points="1549.9,682.8 1487.6,549.5 1501.2,442.8 1500.6,441.7 1450.3,360 1564.2,213 1780.6,317.9 
				1905.5,560.9 1919.3,579.3 1919.5,736.4 1887.3,717.6 1552.7,688.7 			"/>
			<polygon class="st3" points="1564.2,213 1450.3,360 1330.2,428.2 1291.4,511.8 1287.2,507.4 1326.4,424.6 1446.7,354.2 
				1560.3,211.2 			"/>
			<polygon class="st4" points="1560.3,211.2 1446.7,354.2 1326.4,424.6 1287.2,507.4 1221.9,438.2 1194.8,395.2 1308.2,329.2 
				1439.9,290.6 			"/>
			<polygon class="st5" points="1549.9,682.8 1552.7,688.7 1540.8,687.7 			"/>
			<path class="st5" d="M1500.6,441.7l0.7,1.1l-13.6,106.7l62.3,133.3l-9.1,4.9l-116-10c0.4-18.7-8.2-37.2-20.4-52
				c-13.7-16.6-53.6-43.2-71.5-55.7l0,0l-33.7-50l-1.1-1.2l-2-2.1l-4.7-4.9l38.8-83.6l120.1-68.2L1500.6,441.7z"/>
			<path class="st2" d="M1344.3,587c18.5,25.8,13.4,45.2,7.9,70.5c-1.7,7.7-5.4,14.4-10.4,20.4l-237.6,14.9l-134.2,8.4L957,687
				l-5.3-5.8L940.3,570l4.5-134l-54.5-102.2l79.6-118l-65.2-103.7l2.4-1.9l27-6l40.7,35.3l4,3.5l68.1,122.6l109,68.1l38.7,61.4
				l27.1,43l65.3,69.1l4.2,4.4l4.7,4.9v0l2,2.1l1.1,1.2l33.7,50l0,0L1344.3,587L1344.3,587z"/>
			<path class="st1" d="M1104.1,692.7l237.6-14.9c-14.2,16.8-39,27.7-60.2,37.1c-39.7,17.6-82.6,28.8-126.2,32.9
				c-39.8,3.7-80.1,1.5-119.8,5.6c-56.2,5.8-111,24.2-158.4,53.3c-33.1,20.3-62.8,45.7-98.2,62c-64.2,29.4-138.9,25.5-210.3,26.7
				c-197.7,3.5-394.2,53.6-567.4,143.8H1L0,812.8l143.2-38.4l370.6,1.6l76.7,0.3l59.1,0.3l6.9,0l152.2-43.2l161.3-32.3L1104.1,692.7
				z"/>
			<polygon class="st6" points="770.6,616 656.5,776.6 649.6,776.6 773.4,602.1 784.7,482.7 846,348.7 886.1,330.1 963.4,215.3 
				900.6,115.9 900.4,115.5 904.8,112.1 969.9,215.8 890.4,333.8 851.8,352 790.5,485.9 779.1,604 			"/>
			<polygon class="st5" points="957,687 969.9,701.1 808.6,733.5 656.5,776.6 770.6,616 779.1,604 790.5,485.9 851.8,352 
				890.4,333.8 944.9,436 940.3,570 951.7,681.2 			"/>
			<polygon class="st4" points="864.7,122.9 885,127.5 900.4,115.5 900.6,115.9 963.4,215.3 886.1,330.1 846,348.7 784.7,482.7 
				773.4,602.1 649.6,776.6 590.5,776.3 565.6,726.6 532.7,655.4 570.2,476.8 660.6,367.9 670.1,356.5 765.5,267.9 769.1,252.8 
				799.7,124 820.3,124.8 832,115.6 			"/>
			<polygon class="st7" points="904.8,112.1 900.4,115.5 885,127.5 864.7,122.9 832,115.6 820.3,124.8 799.7,124 810.9,77.2 
				858.6,38.6 934.2,104.2 907.2,110.2 			"/>
			<polygon class="st2" points="565.6,726.6 590.5,776.3 513.8,776 508.9,708.5 449.8,594.9 429.4,456.4 495.2,574.5 532.7,655.4 
							"/>
			<polygon class="st4" points="140.2,449.2 148.4,440.4 203.3,302.5 285.9,288.1 297.7,286.1 429.4,456.4 449.8,594.9 508.9,708.5 
				513.8,776 143.2,774.3 0,812.8 -0.5,677.1 0.3,677.1 67.3,527.3 			"/>
			<path class="st6" d="M203.3,302.5l-54.9,137.9l-8.3,8.9c-0.9-3.1-1.8-6.2-2.6-9.3l4.6-4.9l52.1-130.8L203.3,302.5z"/>
			<path class="st5" d="M137.1,438.4l-21.7,14.9c-22.5,12.6-50.3,23.6-70.3,39.4c-19,15.1-31.6,40.9-45.3,60.4h0l0.4-96.6
				l122.6-113.5l71.4-38.8h0l-52.1,130.8L137.1,438.4z"/>
			<path class="st5" d="M142.1,434.9l-4.6,4.9c-0.1-0.5-0.3-1-0.4-1.5L142.1,434.9z"/>
			<path class="st6" d="M137.6,439.9c0.9,3.1,1.8,6.2,2.6,9.3l-72.8,78.1L0.3,677.1h-0.8l-0.1-17.4l61-136.1L137.6,439.9z"/>
			<path class="st5" d="M137.1,438.4c0.1,0.5,0.3,1,0.4,1.5l-77.2,83.6l-61,136.1L-0.2,553h0c13.7-19.5,26.3-45.3,45.3-60.4
				c19.9-15.8,47.8-26.8,70.3-39.4L137.1,438.4z"/>
		</g>
		<g>
			<line class="st8" x1="203.3" y1="302.5" x2="203.3" y2="302.5"/>
			<path class="st9" d="M1.2,1039.2c173.2-90.2,369.7-140.3,567.4-143.8c71.3-1.3,146,2.7,210.3-26.7c35.5-16.3,65.1-41.7,98.2-62
				c47.5-29.1,102.2-47.6,158.4-53.3c39.8-4.1,80-1.9,119.8-5.6c43.6-4.1,86.5-15.2,126.2-32.9c21.2-9.4,46.1-20.2,60.2-37.1
				c5-6,8.7-12.7,10.4-20.4c5.6-25.3,10.7-44.7-7.9-70.5c-0.3-0.4-0.6-0.9-1-1.3"/>
			<path class="st9" d="M1332.9,570c17.9,12.5,57.8,39.1,71.5,55.7c12.3,14.9,20.8,33.3,20.4,52c0,2.2-0.2,4.3-0.5,6.5
				c-4,29.6-30.3,52-56.9,68c-53.4,32-118.3,53-153,103c-9.1,13.2-15.8,28.5-14.7,44.2c1.9,25.7,24,45.8,46.6,60.2
				c51.6,32.9,112.8,50.3,174.3,59.4c61.5,9,124,10.2,186.2,13.3c104.8,5.3,209,16.2,313.1,28.7c0.2,0,0.4,0.1,0.6,0.1"/>
			<polyline class="st9" points="429.4,456.4 297.7,286.1 285.9,288.1 203.3,302.5 194.2,304.1 194.2,304.1 193.2,304.3 			"/>
			<line class="st9" x1="1298" y1="518.8" x2="1296" y2="516.7"/>
			<polyline class="st9" points="1560.3,211.2 1439.9,290.6 1308.2,329.2 1194.8,395.2 1194.8,395.2 			"/>
			<path class="st9" d="M904.7,112L904.7,112l65.2,103.8l-79.6,118l-10.2,105.1l-40.3,74c5.1,27.4,9.7,55,15.3,82.3
				c2.6,12.8-3.8,20.8-9.7,32c-7.4,14-14.7,28.1-22.1,42.1c-11.6,22.1-23.2,44.2-34.8,66.3"/>
			<polyline class="st9" points="656.5,776.6 770.6,616 779.1,604 790.5,485.9 851.8,352 890.4,333.8 944.9,436 940.3,570 
				951.7,681.2 957,687 969.9,701.1 			"/>
			<polyline class="st9" points="194.2,304.1 194.2,304.1 122.8,342.9 0.2,456.4 			"/>
			<polyline class="st9" points="590.5,776.3 565.6,726.6 532.7,655.4 495.2,574.5 429.4,456.4 449.8,594.9 508.9,708.5 			"/>
			<line class="st9" x1="532.7" y1="655.4" x2="570.2" y2="476.8"/>
			<polyline class="st9" points="1287.2,507.4 1326.4,424.6 1446.7,354.2 1560.3,211.2 1564.2,213 1780.6,317.9 1905.5,560.9 
				1919.3,579.3 			"/>
			<polyline class="st9" points="194.2,304.1 194.2,304.1 142.1,434.9 137.6,439.9 60.3,523.5 -0.6,659.6 			"/>
			<polyline class="st9" points="-0.1,812.8 0,812.8 143.2,774.3 513.8,776 590.5,776.3 649.6,776.6 656.5,776.6 808.6,733.5 
				969.9,701.1 			"/>
			<polyline class="st9" points="1424.8,677.7 1540.8,687.7 1552.7,688.7 1887.3,717.6 1919.5,736.4 1920.1,736.8 			"/>
			<polyline class="st9" points="508.9,708.5 513.8,776 513.8,776.2 			"/>
			<polyline class="st9" points="1450.3,360 1500.6,441.7 1501.2,442.8 1487.6,549.5 1549.9,682.8 1552.7,688.7 			"/>
			<polyline class="st9" points="1299.1,520 1332.8,570 1332.9,570 1344.3,586.9 			"/>
			<polyline class="st9" points="969.9,701.1 1104.1,692.7 1341.7,677.8 1344.3,677.7 			"/>
			<polyline class="st9" points="-0.6,659.6 -0.5,677.1 0,812.8 1,1039.2 1.2,1083.1 			"/>
			<line class="st9" x1="1.2" y1="1083.1" x2="1920" y2="1083.1"/>
			<polyline class="st9" points="1919.3,579.3 1919.5,736.4 1920,1060.9 1920,1083.1 			"/>
			<line class="st10" x1="900.6" y1="115.9" x2="963.4" y2="215.3"/>
			<line class="st10" x1="963.4" y1="215.3" x2="886.1" y2="330.1"/>
			<line class="st10" x1="846" y1="348.7" x2="886.1" y2="330.1"/>
			<line class="st10" x1="784.7" y1="482.7" x2="846" y2="348.7"/>
			<line class="st10" x1="773.4" y1="602.1" x2="784.7" y2="482.7"/>
			<line class="st10" x1="649.6" y1="776.6" x2="773.4" y2="602.1"/>
			<polyline class="st10" points="1291.4,511.8 1330.2,428.2 1450.3,360 1564.2,213 			"/>
			<line class="st9" x1="1296" y1="516.7" x2="1298" y2="518.8"/>
			<polyline class="st9" points="1287.2,507.4 1291.4,511.8 1296,516.7 			"/>
			<path class="st11" d="M-0.2,553c13.7-19.5,26.3-45.3,45.3-60.4c19.9-15.8,47.8-26.8,70.3-39.4l21.7-14.9l5-3.4"/>
			<polyline class="st11" points="154.8,345.2 103.8,381.1 45.2,473.7 			"/>
			<polyline class="st11" points="470.3,553 472.2,594.6 511.9,641.8 530.8,747.6 			"/>
			<polyline class="st11" points="355.1,583.3 396.6,708 476,747.6 			"/>
			<line class="st11" x1="389.1" y1="439.7" x2="298.4" y2="554.9"/>
			<path class="st11" d="M266.3,636.2c6.4-51.3,12.7-102.5,19.1-153.8c3.5-28.5,11.3-59.5,11-88.3c-0.3-21.1-9.8-22.6-29-35.3
				c-13.6-9-27.2-17.9-40.8-26.9"/>
			<polyline class="st11" points="203.9,309.3 260.6,322.5 285.9,288.1 287.1,286.6 			"/>
			<polygon class="st11" points="934.2,104.2 934.7,104.1 860.2,35.8 811,76.9 810.9,77.2 798.9,124 799.7,124 820.3,124.8 
				832,115.6 864.7,122.9 885,127.5 900.4,115.5 904.8,112.1 907.2,110.2 			"/>
			<path class="st11" d="M135.9,434c0.4,1.5,0.8,2.9,1.2,4.4c0.1,0.5,0.3,1,0.4,1.5c0.9,3.1,1.8,6.2,2.6,9.3
				c4.9,17.5,9.9,35,14.8,52.5c8.8,31.3,29.6,73.4,29.9,105.8c0.2,24.9-24.9,57.9-36,80.1c-10.6,21.2-21.2,42.5-31.9,63.7"/>
			<line class="st11" x1="1398.1" y1="573.8" x2="1409.4" y2="498.2"/>
			<polyline class="st11" points="1332,522.8 1424.6,415.1 1473.7,643.7 			"/>
			<polyline class="st11" points="1481.2,275.3 1435.9,330.1 1320.6,358.4 1262.1,456.7 			"/>
			<line class="st11" x1="1821.4" y1="564.4" x2="1908.3" y2="645.6"/>
			<line class="st11" x1="1675.9" y1="383" x2="1755.2" y2="611.6"/>
			<line class="st11" x1="1594.6" y1="473.7" x2="1666.4" y2="624.8"/>
			<path class="st11" d="M1560.6,218.6c11.7,21.7,25.1,42.5,37.8,63.6c12.5,20.9,21.4,52.3,36.5,70.6c12.6,15.3,44.7,22,63.4,29.5
				c44.2,17.9,88.4,35.7,132.6,53.6"/>
			<polyline class="st11" points="661.2,362.2 660.6,367.9 642.3,558.7 566.7,719.3 			"/>
			<polyline class="st11" points="767,254.5 769.1,252.8 844.5,192.1 			"/>
			<line class="st11" x1="772.7" y1="384.9" x2="646.1" y2="747.6"/>
			<path class="st11" d="M842.6,69.3c7.3,17.9,14.7,35.7,22.1,53.6c1.7,4.1,3.4,8.3,5.1,12.4c12.9,31.3,38.8,67.3,18.5,98.9
				c-30.7,47.9-69.9,92-104.3,137.4"/>
			<polyline class="st11" points="974.8,139.2 974.9,139.5 986.2,229.9 1031.5,390.5 			"/>
			<path class="st11" d="M1149.8,345.4c-4.7,23.6-9.3,47.2-14,70.8c-3.4,17.4-6.9,34.8-10.3,52.2c-2.3,11.8-7.3,24.5-2.8,35.7
				c5.5,14,11.4,27.9,17.3,41.8c3,6.9,6,13.8,9,20.8c2.6,6,9.4,15.8,9.5,22.2c0.2,10.5-13.3,27.5-18.3,36.7
				c-12,22.4-24.1,44.7-36.1,67.1c-0.2,0.3-0.3,0.6-0.5,0.9"/>
			<polyline class="st11" points="1296.2,516.4 1296,516.7 1296,516.7 1246.9,598.9 1219.2,682.1 			"/>
			<polyline class="st11" points="769.5,614 770.6,616 802.3,671.9 			"/>
			<path class="st11" d="M952.9,691.2l4.1-4.3l32.6-34.4c11.8-12.4,33.9-14.4,44.3-28.9c8.6-11.9,10.9-32.5,15.5-46.4"/>
			<polyline class="st11" points="1534.1,691.2 1540.8,687.7 1549.9,682.8 1592,660.4 			"/>
			<polyline class="st11" points="1489.7,444.1 1500.6,441.7 1534.1,434.4 1561.1,465.3 			"/>
		</g>
	</g>
</g>
<g id="Cracking">
</g>
</svg>
