<svg xmlns="http://www.w3.org/2000/svg" viewBox="0 0 582.94 344.42"><defs><style>.cls-1{fill:#231f20;}</style></defs><title>Zasób 2</title><g id="Warstwa_2" data-name="Warstwa 2"><g id="Warstwa_1-2" data-name="Warstwa 1"><path class="cls-1" d="M216.8,264.18c-5.17,3.3-8.23,8.65-9.41,14.59a40.88,40.88,0,0,0-.66,9.63c.13,3.24.33,6.46,1.92,9.35,1.86,3.38,4.76,6.06,7.19,9,.31.37.83-.16.53-.52-2.58-3.14-5.77-6-7.53-9.7a17.16,17.16,0,0,1-1.29-6.18,50.37,50.37,0,0,1-.13-6c.32-7.8,3-15.17,9.6-19.79.23-.16,0-.54-.22-.38Z" transform="translate(-0.09 -0.14)"/><path class="cls-1" d="M215.35,305.81c-1,2.95-.85,5.64-.34,8.68.48,2.83.47,6.08,2.07,8.57.17.27.67.1.54-.23a20.86,20.86,0,0,1-1.28-3.84c-.27-1.33-.4-2.68-.62-4-.5-3.16-.9-5.92.07-9.05.09-.28-.34-.39-.44-.12Z" transform="translate(-0.09 -0.14)"/><path class="cls-1" d="M217.18,322.87a15.09,15.09,0,0,0,.63,8c.32.75,2.3,5.16,3.37,3.53.23-.35-.32-.67-.55-.33-.12.19-1.64-2.22-1.78-2.47a11.14,11.14,0,0,1-.89-2.07c-.62-2.14-.43-4.39-.46-6.59,0-.18-.3-.23-.32,0Z" transform="translate(-0.09 -0.14)"/><path class="cls-1" d="M220.09,334.63c-.23,2.36-.58,4.89.13,7.2a5.21,5.21,0,0,0,1.36,2.42,2.17,2.17,0,0,0,1.63.29,5.9,5.9,0,0,0,1.92-.21,4,4,0,0,0,1.76-2.31,16,16,0,0,0,.52-8.32c-.06-.34-.57-.19-.51.14a17.06,17.06,0,0,1-.17,6.9c-.3,1.23-.82,2.87-2.24,3.21a8.12,8.12,0,0,1-1.56.09c-1.94,0-2.46-2.72-2.58-4.25a46.76,46.76,0,0,1,.07-5.16c0-.22-.31-.21-.33,0Z" transform="translate(-0.09 -0.14)"/><path class="cls-1" d="M226.71,334.56a14.85,14.85,0,0,0,2.6-5.54c.25-1,.84-2.58.37-3.64s-2.28-.93-3.27-1.09c-1.62-.25-3.76-.71-4.64-2.17-.17-.29-.69-.1-.56.24a2.91,2.91,0,0,0,2.22,1.8,25.1,25.1,0,0,0,4.1.94c1,.13,1.73.26,1.65,1.48a13.18,13.18,0,0,1-.42,2.15,17.36,17.36,0,0,1-2.32,5.67c-.12.18.15.33.27.16Z" transform="translate(-0.09 -0.14)"/><path class="cls-1" d="M228.82,324.92c1.65-1.47,2.83-4,3.73-6a29.71,29.71,0,0,0,2.15-6.9,49,49,0,0,0,.78-6.94c.07-1.77-.11-3.83-1.54-5.06a.29.29,0,0,0-.41.41c1.38,1.62,1.41,3.56,1.26,5.58a49.59,49.59,0,0,1-.9,7,29.39,29.39,0,0,1-2.11,6.26c-.45,1-.93,1.87-1.47,2.77a30.94,30.94,0,0,0-1.71,2.72.14.14,0,0,0,.22.16Z" transform="translate(-0.09 -0.14)"/><path class="cls-1" d="M220.89,305.36c2.9.29,5.62-.74,8.16-2.05s5.32-2.66,7.24-4.81c3.59-4,4.42-10.61,4.23-15.79a32,32,0,0,0-5-15.89c-1.14-1.82-2.38-4.08-4.43-5a6.28,6.28,0,0,0-5.41.65c-.48.31-.79.78-1.24,1.11-.83.61-2.11.22-3,.06-2.62-.46-4.76-.34-6.78,1.63-.32.31.15.74.48.48a6.29,6.29,0,0,1,3.75-1.65,15.69,15.69,0,0,1,3,.39c1.12.17,2.28.37,3.2-.41.33-.29.59-.64,1-.9a6.27,6.27,0,0,1,2.9-.89c2.59-.3,4.11,1.95,5.36,3.89a32.92,32.92,0,0,1,5.39,14.44c.54,5.06,0,10.86-2.44,15.4-1.53,2.82-4.16,4.39-6.88,5.91-2.93,1.64-6,3.19-9.43,3.05-.25,0-.24.36,0,.38Z" transform="translate(-0.09 -0.14)"/><path class="cls-1" d="M214.92,249a2.73,2.73,0,0,0-2.6-.59c-.74.2-1.88.57-2.22,1.35-.7,1.56,1.67,3.08,2.72,3.77a14.16,14.16,0,0,1,4.68,4.12c1.22,2,.75,4.29.62,6.47a.36.36,0,0,0,.36.36c1.15.09,2.3.24,3.45.37a7,7,0,0,0,2.85.1c1.57-.53,1-2.43,1.42-3.68a14.4,14.4,0,0,1,3.1-4.53c.81-1,2.2-2.37,2.24-3.71,0-1.06-.95-1.36-1.85-1.24a4.61,4.61,0,0,0-1.78.65c-.66.4-1.32,1.14-2.14,1.19-1.37.08-1.1-2-.92-2.87a9.69,9.69,0,0,1,1.7-3.47c2.12-3,5.1-5.23,7.33-8.12,1.23-1.58,4-5.5,2-7.41-1.77-1.72-5,.9-6.3,2a15.38,15.38,0,0,0-1.37,1.31c-.37.38-.85,1.09-1.41,1.13a1.82,1.82,0,0,1-1-.45c-.32-.52.07-1,.37-1.4,1.26-1.6,1.88-3.66,2.79-5.48a16.9,16.9,0,0,1,3.7-5.42c1.29-1.12,2.09-2.17,2-4-.15-3.51-3.61-4.84-6.49-3.25-1.59.87-2.65,3.25-4.49,3.59-2.85.52-2.45-3.89-2.34-5.52a25.9,25.9,0,0,0-1.49-11.81,7.65,7.65,0,0,0-2.4-3.41,6.72,6.72,0,0,0-4.45-.92,4.4,4.4,0,0,0-3.09,1.66c-1,1.45-.72,3.33-.81,5-.2,3.82-1.21,7.7-.19,11.48.28,1,.66,2,.92,3s.76,2.82-.08,3.59c-1.55,1.43-3.46-1.86-4.25-2.72-1.52-1.67-5.34-2.62-6.78-.33-.6.95-.43,2.41-.43,3.47a12,12,0,0,0,.65,4.49c1.21,3.08,4.24,5.41,6.66,7.51,3,2.58,6.3,4.93,8.65,8.13.76,1,3.21,5.09.5,5.27-.52,0-.52.85,0,.81,3.48-.23,1.54-4.56.39-6.2-2.11-3-5.12-5.32-7.92-7.67-1.35-1.14-2.65-2.34-3.94-3.55a14.73,14.73,0,0,1-3.28-3.89,10.42,10.42,0,0,1-.91-4.9c0-1.44-.27-3.3,1.44-3.84a4.45,4.45,0,0,1,4.74,1.69c.86,1.1,1.6,2.23,3,2.65,3.66,1.09,2.54-4.1,2-5.92a16.82,16.82,0,0,1-1-5.7c.05-1.91.35-3.8.53-5.71.09-1,.15-2,.17-3.08a5.34,5.34,0,0,1,.58-3.12c1.08-1.57,3.32-1.61,5-1.22,3.45.83,4.38,5.35,4.94,8.36a32.3,32.3,0,0,1,.05,7.8c-.08,1.43-.09,3.13.82,4.33,2.39,3.18,5.21-1.49,7.08-2.6,2.22-1.33,5.11-.66,5.45,2.18.31,2.52-1.58,3.22-2.95,4.87a25.8,25.8,0,0,0-3,5.2c-.45.94-.88,1.89-1.3,2.84s-1.12,1.6-1.57,2.49a1.62,1.62,0,0,0,1.26,2.3c1.38.38,2.06-.89,2.91-1.73a13.83,13.83,0,0,1,3.77-2.76c1.61-.74,3.16-.3,2.65,1.77-.85,3.49-3.59,6.09-6,8.55-2,2-4.22,4.18-5.18,6.88-.45,1.25-1,4.05.68,4.69,1.09.41,2.17-.52,3-1.07.52-.35,1.49-.92,2.16-.72,1.25.36-.35,2.31-.79,2.87-1,1.27-2.14,2.4-3,3.74a8.54,8.54,0,0,0-.89,1.79,19.17,19.17,0,0,0-.42,2.46c-.21.91-.86.95-1.65.89-.51,0-1-.09-1.54-.15-1.15-.12-2.3-.27-3.45-.36l.36.36a19.22,19.22,0,0,0,.06-4.91,7.7,7.7,0,0,0-2.27-3.77,23.91,23.91,0,0,0-3.58-2.58,5.7,5.7,0,0,1-2.23-2c-.39-.93.57-1.41,1.31-1.67a2.4,2.4,0,0,1,2.45.28c.25.19.58-.23.34-.43Z" transform="translate(-0.09 -0.14)"/><path class="cls-1" d="M484.37,52.88c-6.38.92-5.6,9.37-4.88,13.92.62,4,1.66,7.86,2.45,11.81a83.8,83.8,0,0,1,1.46,12.64c.36,8.29-.14,16.58-.09,24.88.05,7.23.24,14.76,5.52,20.31a12.4,12.4,0,0,0,8,4.14c3.44.19,6.76-1.5,9.42-3.53,5.74-4.37,6.77-11.49,7.46-18.24.84-8.19.53-16.44.16-24.65-.16-3.72-.21-7.56-1.41-11.13-.86-2.57-2-5.07-2.92-7.61-.74-2-1.36-4-2.12-5.93A29.41,29.41,0,0,0,505.09,65c-1.88-3.07-3.26-6.41-5.92-8.92a15,15,0,0,0-16.95-2.61c-.45.21-.06.88.39.67a14.21,14.21,0,0,1,15.74,2.26c2.4,2.15,3.63,4.89,5.23,7.61.72,1.22,1.5,2.41,2.16,3.65a33.14,33.14,0,0,1,1.88,4.68c1.93,5.48,4.7,10.78,5.21,16.64a193.86,193.86,0,0,1,.62,22,96.83,96.83,0,0,1-1,11.66,26.94,26.94,0,0,1-2.72,9.43,16.74,16.74,0,0,1-8,6.79,10.09,10.09,0,0,1-10-.88,16.84,16.84,0,0,1-6.09-7.93c-1.32-3.47-1.46-7.24-1.56-10.91-.19-7.47.22-14.93.17-22.41a106.32,106.32,0,0,0-.71-12.36,113.65,113.65,0,0,0-2.21-11.58c-.89-3.9-1.88-8-1.82-12,0-3.25,1.49-6.73,4.89-7.63.17,0,.09-.28-.07-.26Z" transform="translate(-0.09 -0.14)"/><path class="cls-1" d="M373.88,137.31A42,42,0,0,0,358,152.42a45.61,45.61,0,0,0-6.07,22.41,122.28,122.28,0,0,0,.85,12.83,64.31,64.31,0,0,1,.27,6.8c-.06,2-.25,4.1-.21,6.16a15.71,15.71,0,0,0,1,5.56c.74,1.82,2,3.38,2.64,5.24.69,2,.53,4.25,1.16,6.3a11,11,0,0,0,2.6,4.19c2.17,2.33,4.83,5.11,8.1,3a21.72,21.72,0,0,0,4-3.89c1.45-1.58,2.86-3.19,4.25-4.83q4.1-4.85,7.85-10a64.72,64.72,0,0,0,6.93-10.94c3-6.6,3.59-14.37,4.18-21.51a107.38,107.38,0,0,0,.38-11.2,64.18,64.18,0,0,0-.91-11.5c-1.37-6.66-6-13.94-13.16-15.2-3.6-.63-6.88.85-10,2.55a35.59,35.59,0,0,0-9,7.29,39.53,39.53,0,0,0-3.36,4.28c-.27.4.36.76.63.37a40.16,40.16,0,0,1,7.58-8.2c2.89-2.35,6.53-4.68,10.2-5.48,7.84-1.71,13.83,5.91,15.86,12.55,1.06,3.48,1.16,7.21,1.32,10.82.16,3.4.14,6.81,0,10.21-.38,7.06-1,14.4-3,21.19a36.1,36.1,0,0,1-4.78,9.53c-2.26,3.41-4.71,6.71-7.24,9.93S375,217,372.3,220a28.64,28.64,0,0,1-4,4.08,4,4,0,0,1-3,.93,6.43,6.43,0,0,1-2.94-2,18.22,18.22,0,0,1-3.23-3.67c-1.11-1.82-1.21-3.83-1.5-5.89-.54-3.76-3.31-6.52-3.89-10.26-.62-3.92.12-8,0-11.9s-.76-8.1-1-12.16a47.22,47.22,0,0,1,4.67-24.31c3.73-7.31,9.75-13,16.68-17.28a.15.15,0,0,0-.15-.25Z" transform="translate(-0.09 -0.14)"/><path class="cls-1" d="M353,194.82a.34.34,0,0,0,.06.24c.08.11.23,0,.27-.07.4-1-.06-2.24.3-3.24l-.45.12-.06-.05.54-.08c-1.35-5.58-5.58-10.49-9.81-14.2a.34.34,0,0,0-.57.33,51.8,51.8,0,0,1,1.08,11.59c.07,3.22-.2,6.76,1.39,9.66.86,1.58,1.34,3.28,2.14,4.89a32.67,32.67,0,0,0,3.17,4.83c2.17,2.86,4.33,5.73,6.55,8.55.24.3.76-.11.53-.42-2.11-2.86-4.33-5.65-6.48-8.49a32.06,32.06,0,0,1-3.17-4.82c-.77-1.56-1.2-3.19-2.05-4.72-1.76-3.16-1.34-7.25-1.42-10.78a46,46,0,0,0-1.09-10.47l-.57.33c4.17,3.63,8.36,8.41,9.77,13.87.08.29.57.24.54-.07a.49.49,0,0,0-.11-.33.27.27,0,0,0-.45.12,5.77,5.77,0,0,0-.05,1.61c0,.37,0,.75,0,1.12a1.42,1.42,0,0,0,0,.41c.06.09.3.29.27,0s-.31-.13-.3,0Z" transform="translate(-0.09 -0.14)"/><path class="cls-1" d="M349.31,205.21a15.42,15.42,0,0,0-1-2.29c-.72-1.59-1.11-3.51-2.16-4.91-.72-1-2-1.53-2.58-.12-.3.74-.05,1.66-.36,2.36-.15.35-.4.48-.5.95a24.08,24.08,0,0,0-.28,3.51,41.28,41.28,0,0,0-.07,4.31,21.81,21.81,0,0,0,1.36,7.1,20.47,20.47,0,0,0,7.76,9.64c.83.54,2.07.94,2.65,1.75s1.17,1.91,1.81,2.82c1.07,1.54,2,3.2,3.25,4.63,1.9,2.23,5.73,2.17,8.38,2.11,2.34-.06,4.71-.28,7-.5a14.89,14.89,0,0,0,5.09-1.51,3.22,3.22,0,0,0,1.57-1.41c.36-.73.3-1.58.65-2.31,1-2.07,3.76-2.48,5.76-2.91a11,11,0,0,0,5.64-2.53,12.4,12.4,0,0,0,3-5.48c.76-2.59,1-5.23,2-7.79a52.78,52.78,0,0,0,2.84-8.48.38.38,0,0,0-.47-.46c-10.31,2-19.56,7.54-27.12,14.74-.36.34.19.89.55.54,7.45-7.09,16.6-12.56,26.77-14.56l-.46-.46c-.84,4.54-3.35,8.56-4.14,13.11-.64,3.71-1.84,8-5.58,9.71-2.92,1.34-7.13.85-9.2,3.72a4.08,4.08,0,0,0-.64,1.64,2.76,2.76,0,0,1-1.59,2.29,13.72,13.72,0,0,1-5.31,1.46c-4.15.33-8.49,1-12.56-.23a3.86,3.86,0,0,1-2-1.44c-1.2-1.49-2.19-3.16-3.29-4.73-.94-1.34-1.42-2.65-2.89-3.45a20,20,0,0,1-4.93-3.8,19.7,19.7,0,0,1-5.24-11.78,47.76,47.76,0,0,1,.15-8.37,3.12,3.12,0,0,1,.25-1.08c.05-.09.18-.19.23-.3.39-.68.07-1.66.35-2.38.77-2,2.31,1.64,2.52,2.16.32.78.65,1.55,1,2.3a20.28,20.28,0,0,1,1.18,2.55.23.23,0,0,0,.44-.12Z" transform="translate(-0.09 -0.14)"/><path class="cls-1" d="M397.81,212.75h0c0,.13.1.2.2.16.36-.17.68-.73.92-1,.67-.88,1.26-1.83,1.87-2.75.5-.77,1-1.54,1.48-2.33a3.62,3.62,0,0,1,.68-1,7.52,7.52,0,0,1,3-1.15c3.66-.86,7.23.31,10.63,1.62,2.11.81,4.26,1.58,6.3,2.56a14.42,14.42,0,0,0,4.51,1.7c.2,0,.35-.18.36-.35a15.73,15.73,0,0,0-4.17-11.38c-2.76-3.21-6.1-6.64-10.42-7.47-4.61-.89-9.29,1.24-13.26,3.38a64.05,64.05,0,0,0-12.16,8.71,75.84,75.84,0,0,0-11,12.23c-.28.4.38.78.66.39a72.25,72.25,0,0,1,19.92-18.93c3.71-2.32,8.12-4.81,12.56-5.19,4.94-.43,8.64,2.51,11.84,5.89,3.35,3.54,5.6,7.34,5.35,12.37l.36-.36c-2.08-.23-4-1.61-5.89-2.39s-3.93-1.56-5.91-2.27c-3.23-1.17-6.6-2-10-1.12-1.41.36-3,.79-3.73,2.09-.36.62-.73,1.24-1.12,1.84-.61,1-1.25,1.91-1.87,2.87-.23.36-.46.73-.67,1.1a2.59,2.59,0,0,0-.28.55c0,.3.13,0,.12.27a.13.13,0,0,0-.26,0Z" transform="translate(-0.09 -0.14)"/><path class="cls-1" d="M402.62,194c.18-.5.89-.62,1.2-1a3.42,3.42,0,0,0,.42-1.61,35.28,35.28,0,0,1,1.2-5.74,22.72,22.72,0,0,0,.67-3.59c.07-.59.46-2.25.05-2.76-.67-.84-3.48,1.09-4.13,1.56a38.68,38.68,0,0,0-7.13,6.14c-2.28,2.69-4.66,6.31-5.09,9.9-.05.4.57.45.68.09a25.87,25.87,0,0,1,5.9-10.51,29.06,29.06,0,0,1,4-3.51,23.86,23.86,0,0,1,3.3-2.27,7,7,0,0,1,1.62-.74c.45-.09.21-.29.24.15,0,.23,0,.61,0,.82a22.27,22.27,0,0,1-.48,3.73,37.44,37.44,0,0,0-1.24,5.43c-.1,1.11,0,2.28-.93,3a1.22,1.22,0,0,0-.58.84c0,.21.28.22.34.05Z" transform="translate(-0.09 -0.14)"/><path class="cls-1" d="M396.8,85a.23.23,0,0,0,0-.46.23.23,0,0,0,0,.46Z" transform="translate(-0.09 -0.14)"/><path class="cls-1" d="M410.32,77.7c-4.53,1.75-9.36,3.63-13.18,6.69-2.13,1.7-3.08,4.09-3.69,6.71a55.52,55.52,0,0,0-1.14,11.29c-.13,7.68.68,16,3.33,23.22,2.39,6.56,8.16,10.36,14.21,13.3s13.15,4.79,20,3.69c6-1,11.79-4.11,15.15-9.27,3.79-5.82,5.19-12.9,6.1-19.68a56.56,56.56,0,0,0,.88-10.78c-.11-1.92-.38-3.82-.59-5.73s-.19-3.86-.32-5.8a16.28,16.28,0,0,0-3.2-9.18,9.34,9.34,0,0,0-5.66-3.3c-4.82-1.17-9.78-1.52-14.68-2.15-.5-.07-.5.73,0,.79,4.09.53,8.19.94,12.24,1.71A18.17,18.17,0,0,1,445,80.69c2.46,1.34,3.93,4.37,4.63,7,.87,3.24.58,6.65,1,10a45.63,45.63,0,0,1,.35,10.31c-.72,6.68-1.48,13.52-4,19.8a23.73,23.73,0,0,1-5,8,21.16,21.16,0,0,1-7.85,4.88c-6.18,2.22-12.88,1.68-19-.42a48.42,48.42,0,0,1-9.55-4.57,22,22,0,0,1-7.55-6.82c-1.79-2.88-2.61-6.29-3.31-9.57a73.2,73.2,0,0,1-1.55-11.51,75.34,75.34,0,0,1,.31-12.2c.36-3.31.82-7.56,3.35-10a27.64,27.64,0,0,1,6.83-4.33c2.25-1.12,4.55-2.13,6.85-3.11.24-.1.07-.52-.17-.42Z" transform="translate(-0.09 -0.14)"/><path class="cls-1" d="M393.11,95.26A6.72,6.72,0,0,1,396,96.59a30.14,30.14,0,0,0,2.3,2.49c2,1.61,4.93,1.12,7.26.65a5.52,5.52,0,0,0,2.09-.54,5.35,5.35,0,0,0,1.2-1.76c.39-.63.91-1.83,1.58-2.19s1.3.09,1.75.63a8.57,8.57,0,0,0,2.59,2.6,11.27,11.27,0,0,0,6.82.85c2.08-.33,4.52-1.3,6.51-.17,1.06.6,1.6,1.72,2.59,2.39a10.13,10.13,0,0,0,4.08,1.54,7.08,7.08,0,0,0,6.36-3c.94-1.36.84-3.08,1.62-4.5.22-.4.37-.59.73-.68a4.82,4.82,0,0,1,.76,0,7.32,7.32,0,0,1,2.08.21c.91.2,2.19.76,3.12.37S450.59,93.81,451,93a.33.33,0,0,0-.56-.33c-.73,1-.77,2.27-2.25,2a27.19,27.19,0,0,0-3.33-.65c-.43,0-.94,0-1.35,0a1.16,1.16,0,0,0-.68.11c-.95.52-1.26,2.28-1.5,3.22a6,6,0,0,1-2.54,3.83,5.52,5.52,0,0,1-4.5,1,7.56,7.56,0,0,1-4.19-2.31,5.48,5.48,0,0,0-2.37-1.75c-1.69-.59-3.52-.09-5.2.25-2.59.51-5.69.72-8-.89-1.24-.87-2.12-3.7-4.08-3.06-1,.33-1.51,1.48-2,2.31-.37.61-.7,1.6-1.35,2a5.74,5.74,0,0,1-1.48.31,21.06,21.06,0,0,1-2.83.44,5.59,5.59,0,0,1-4.51-1.26,31.4,31.4,0,0,0-2.16-2.31,6.64,6.64,0,0,0-2.89-1,.19.19,0,0,0-.1.37Z" transform="translate(-0.09 -0.14)"/><path class="cls-1" d="M410.1,78c1.31,5.69,7.62,7.29,12.7,6.57a8.08,8.08,0,0,0,3.58-1,4.48,4.48,0,0,0,1.47-3.13c.48-3.3-.56-6.59-.22-9.9.59-5.61,6.13-7.84,10-11A42.31,42.31,0,0,0,442,55.13c.83-.92,2.4-2.44,1.6-3.8S440,49.69,438.56,50c-2.22.44-4.24,1.53-6.41,2.12l.5.38c.39-4.94,3.6-8.58,6.39-12.4a43.54,43.54,0,0,0,2.94-5c.84-1.55,1.88-3.27,2-5.07a2.47,2.47,0,0,0-2-2.8,17.07,17.07,0,0,0-5.24.12c-4.59.79-8.21,5.56-10.38,9.34a27.65,27.65,0,0,0-3.09,8.1,20.64,20.64,0,0,0-.33,3.32c-.05,1.17,0,2.79-1.38,3.2l.47.26a82.32,82.32,0,0,1-2.2-14.82,56.27,56.27,0,0,1,.12-7.46,22.65,22.65,0,0,0-.34-7c-.54-2.16-2.54-8.25-5.92-6.22-2.84,1.71-3.81,5.76-4.46,8.72a47.23,47.23,0,0,0-1.1,7.28,25.43,25.43,0,0,0,.06,3.6c.09,1,.42,1.89.49,2.84a18,18,0,0,0,1,3.54c.15.53.37,1.16-.29,1A5,5,0,0,1,408,42c-1-.9-2-1.88-3.06-2.8-.53-.47-1.3-1.34-2.05-1.47-2-.32-2.5,4.33-2.65,5.54-.6,4.71,3.05,8.13,5.74,11.5,3.22,4,8,6.66,10.53,11.26l.52-.52c-1.38-.6-2.31-1.7-3.61-2.4A9.73,9.73,0,0,0,409.92,62c-.7-.08-1.79-.11-2.09.71s.49,1.89.8,2.53c1.14,2.39,2.93,5.24,5.55,6.13,1.37.46,3.12.69,4.14,1.84s-.74,1.8-1.7,2c-2.05.51-6-.2-6.62,2.56-.1.48.65.69.75.2.19-.89.64-1.16,1.52-1.36,1.65-.39,3.37-.27,5-.78,1.26-.38,2.85-1.38,1.88-2.85-1.45-2.22-4.83-1.88-6.67-3.6A14.31,14.31,0,0,1,409.84,66c-.29-.54-1.63-2.59-1.19-3.12.64-.77,3.57.47,4.24.81,1.35.68,2.29,1.83,3.71,2.45a.39.39,0,0,0,.52-.52c-2-3.57-5.21-5.88-8.14-8.61a39.24,39.24,0,0,1-4-4.66c-1.46-1.82-3.08-3.47-3.79-5.76a9.23,9.23,0,0,1,0-4.81c.16-.74.6-3.41,1.62-3.28.75.1,1.85,1.49,2.38,2,.93.87,1.84,1.76,2.84,2.55.44.35,1.11,1,1.73.92s.85-.87.77-1.46c-.15-1.21-1-2.26-1.1-3.47-.17-1.82-.58-3.59-.58-5.45a37.73,37.73,0,0,1,.91-7.56,23,23,0,0,1,1.55-5.53c.61-1.26,1.69-3.5,3.18-3.9,2.36-.62,3.61,3.36,4.1,4.94a21.34,21.34,0,0,1,.6,7.8,56.25,56.25,0,0,0-.1,7.68,83.25,83.25,0,0,0,2.2,14.81.39.39,0,0,0,.47.27c1.4-.42,1.78-1.69,1.9-3a31,31,0,0,1,1-6.41,25.52,25.52,0,0,1,8.55-12.78A10.18,10.18,0,0,1,439.4,28c1.78-.07,4.12-.24,3.78,2.28-.26,1.92-1.48,3.66-2.36,5.35a31.78,31.78,0,0,1-2.95,4.74c-2.78,3.71-5.62,7.33-6,12.13a.39.39,0,0,0,.49.37c3.21-.88,6.28-3,9.69-1.72,2.4.91-.56,3.47-1.51,4.46a42.51,42.51,0,0,1-3.75,3.6c-3,2.4-6.88,4.18-8.81,7.65-2.6,4.69.48,10-1.13,14.78-.66,2-2.86,2.11-4.64,2.33a14.33,14.33,0,0,1-5.22-.2,8.35,8.35,0,0,1-6.33-5.9c-.09-.36-.64-.21-.56.16Z" transform="translate(-0.09 -0.14)"/><path class="cls-1" d="M117.13,268a21.24,21.24,0,0,0-10.8,1.62c-3.52,1.62-6.14,4.46-8.79,7.2a22.82,22.82,0,0,0-4.37,5.65,27,27,0,0,0-2.88,9.28,29.86,29.86,0,0,0,1.39,13.17,44,44,0,0,0,6.73,11.49,63.42,63.42,0,0,0,9.12,9.34c1.66,1.41,3.36,2.78,5.11,4.06a9.13,9.13,0,0,0,3.5,1.63c3,.66,6.23.19,9.3.63s6.46,1.54,9.7,1a18.54,18.54,0,0,1,5.4-.54,25.59,25.59,0,0,0,5.39.35,38.19,38.19,0,0,0,10.83-2.61c14-5.62,24.87-19.75,22.82-35.3a34.3,34.3,0,0,0-3.81-11.52A66.91,66.91,0,0,0,168.41,273c-2.33-2.9-6-4.21-9.59-4.71-1.81-.25-3.63-.27-5.45-.34a30.39,30.39,0,0,0-4.77.05,26.07,26.07,0,0,1-4.42.13l.11.76a41.77,41.77,0,0,0,9.88-3.48,45.29,45.29,0,0,0,7-4.24c3.43-2.67,3.45-6.58,3.51-10.62h-.77c.06,1.09-1.35,2.16-2.08,2.79A28.65,28.65,0,0,1,158.2,256c-3.26,2.08-6.75,2.57-10.56,2.67-3.3.08-6.89.38-9.58,2.51s-3,5.29-3.71,8.32c-.38,1.59-.88,3.31-2.22,4.36-.31.25-1,.78-1.44.63-.13-.05-.28-.33-.38-.43a6.49,6.49,0,0,0-1.95-1.2c-1-.46-3-1.11-3.37-2.36-.26-1,.5-2.07.61-3.05.31-2.63-3-5.25-4.76-6.71a16.16,16.16,0,0,0-7.8-3.36c-6.55-1-13.89,1.31-17.57,7.06a.39.39,0,0,0,.44.57,41.39,41.39,0,0,1,11.25-1.1c3.64.23,7.52,1.28,9.64,4.49.27.41.94,0,.67-.39-4.46-6.77-15.07-5.21-21.77-3.74l.44.56c3.65-5.71,11.19-7.87,17.61-6.54a16.41,16.41,0,0,1,8.27,4.55c1.09,1.06,2.89,2.71,2.83,4.37,0,1-.74,2-.66,3.09.18,2.58,4.16,2.95,5.65,4.39.74.71,1.28.71,2.24.15a5.91,5.91,0,0,0,2.39-3c1.22-3.11.95-7,3.46-9.47,3-3,7.53-2.76,11.42-2.95a18.82,18.82,0,0,0,10-3.22,25.06,25.06,0,0,0,3.73-2.93c.7-.68,1.65-1.62,1.58-2.68a.39.39,0,0,0-.77,0,24.21,24.21,0,0,1-.59,6.41,7.55,7.55,0,0,1-3,3.92,44.62,44.62,0,0,1-16.19,7.27c-.44.1-.31.73.1.75,2.83.15,5.59-.36,8.42-.22,4.07.19,8.1.18,11.83,2.07a10.39,10.39,0,0,1,3.55,2.9c1.29,1.61,2.62,3.2,3.84,4.87a40,40,0,0,1,5.75,11,29.63,29.63,0,0,1-1.82,22.83,36.63,36.63,0,0,1-14.87,15.16,38.23,38.23,0,0,1-10.23,3.91,33.72,33.72,0,0,1-5.47.8,29.87,29.87,0,0,1-4.82-.42c-2.86-.3-5.49.89-8.35.63-3.68-.33-7.2-1.32-10.92-1.39-2.67-.05-5.26.06-7.58-1.48a66.85,66.85,0,0,1-9.54-8c-6.07-5.95-11.86-13.76-13-22.4a27,27,0,0,1,1.25-12.63,24.11,24.11,0,0,1,2.9-6,55.4,55.4,0,0,1,6.64-7.06,18.4,18.4,0,0,1,9.47-4.76,25.41,25.41,0,0,1,5.91-.24c.29,0,.29-.43,0-.45Z" transform="translate(-0.09 -0.14)"/><path class="cls-1" d="M125.74,266.35c.92-3.61,3.32-8.66,0-11.76-2.76-2.54-7.27-1.61-9.94-4.26l-.26.63c3.21-.38,6.44-1.26,9.54.06a21.21,21.21,0,0,1,3.3,1.57,5.23,5.23,0,0,1,1.6,2.06c2.18,4,3.23,8.53,5,12.72.16.38.8.11.66-.28-.77-2.21-1.55-4.43-2.37-6.63a38.66,38.66,0,0,0-3.06-6.9c-1.14-1.86-3.14-2.48-5.07-3.32-3.07-1.33-6.43-.4-9.61,0a.37.37,0,0,0-.26.63c2.36,2.35,6,2,8.82,3.47,4.62,2.35,2.09,8.14,1.37,11.95a.17.17,0,0,0,.32.08Z" transform="translate(-0.09 -0.14)"/><path class="cls-1" d="M97.51,277.9a24.55,24.55,0,0,0,9.31,4.31,22.75,22.75,0,0,0,10,.37.32.32,0,0,0-.09-.62,33.82,33.82,0,0,1-9.89-.41,29.32,29.32,0,0,1-9.12-3.93c-.18-.11-.32.16-.16.28Z" transform="translate(-0.09 -0.14)"/><path class="cls-1" d="M268.3,163.17a27.31,27.31,0,0,1,1.4,6.45c.06.76.25,2.17-.2,2.84a2.17,2.17,0,0,1-1.3.73c-2.91,1-6,1.36-8.93,2.18a13.16,13.16,0,0,0-3.63,2,14,14,0,0,0-2.41,2c-2.81,2.94-5.9,5.7-7.45,9.55s-1.48,8.29-1.39,12.42c.08,4.36.45,9,2.65,12.91a14.35,14.35,0,0,0,4.35,4.56,21.18,21.18,0,0,0,6.89,3.62,29.27,29.27,0,0,1,3.44,1,19.39,19.39,0,0,0,3.59,1.11A21.29,21.29,0,0,1,271,227a2.63,2.63,0,0,1,1.25,1,10.25,10.25,0,0,1,.58,2.46c.28,1.45.47,2.92.72,4.38.44,2.62,1.06,5.46,2.66,7.64,2.76,3.77,7.72,6,12.27,6.43.47,0,.46-.59.1-.74A13.85,13.85,0,0,1,280.41,237c-.58-5.77,3.64-9.49,8.48-11.74,5.08-2.36,10.75-3.3,15.48-6.42a15.33,15.33,0,0,0,5.34-5.57,26.74,26.74,0,0,0,2.36-7.73c1-5.48,1.25-10.79-1.24-15.93a19.61,19.61,0,0,0-2-3.28,9.94,9.94,0,0,1-1.39-2.14,8.78,8.78,0,0,0-1.81-2.92,50.88,50.88,0,0,0-5.81-5.06,17.84,17.84,0,0,0-6.34-2.94c-2.33-.6-5-.67-7.1-2-2.49-1.64-2.44-4.57-2.45-7.25A50.51,50.51,0,0,1,287.61,145a41.1,41.1,0,0,1,5.07-9c2.16-2.91,4.57-5.62,6.83-8.46a.41.41,0,0,0,0-.56c-2.15-1.94-5.24-4.71-8.42-4.15-2.08.37-3.36,2.22-4.47,3.84-2.05,3-4.29,5.61-5.75,9a43.28,43.28,0,0,0-3.09,12.18,118.17,118.17,0,0,0-.53,15.52H278c-.52-8.81.59-17.6.23-26.41-.15-3.74-.49-7.47-.34-11.21a46.3,46.3,0,0,1,.73-6.33,22.21,22.21,0,0,0,.46-3.89c0-2.15-.71-3.56-2.79-4.16a21.56,21.56,0,0,0-6.62-1,4.49,4.49,0,0,0-2.31.52c-.78.54-.63,1.4-.64,2.26,0,3.63.38,7.71-.69,11.21-.59,1.93-1.5,3.74-1.93,5.72a17.36,17.36,0,0,0-.38,5.75c.56,4.81,1.95,9.51,2.83,14.27l.71-.3-9.47-18.24-1.17-2.25a5.22,5.22,0,0,0-.78-1.38,4.26,4.26,0,0,0-2.51-.82c-1.37-.18-2.91-.56-4.08.38a5.72,5.72,0,0,0-1.57,1.61c-.52,1.08,0,2.15.16,3.24a34.5,34.5,0,0,0,2.4,7c1.91,5,5.6,8.31,9.4,11.87a32.48,32.48,0,0,1,10.08,17.32c.1.49.84.28.74-.2a31.79,31.79,0,0,0-6.11-13.24c-3.32-4.21-8-7.2-11.07-11.58a23.81,23.81,0,0,1-2.75-5.59c-.36-1-.74-1.92-1.15-2.86a18.1,18.1,0,0,1-.95-3.82c-.21-1-.37-1.57.41-2.4a8.07,8.07,0,0,1,.82-.73,2.16,2.16,0,0,1,1.72-.48,12.79,12.79,0,0,1,3.09.42c1.32.43,1.93,2.47,2.53,3.63l9.59,18.46c.21.42.79.12.71-.3-.73-3.92-1.73-7.8-2.43-11.73a19.27,19.27,0,0,1,.84-10.66,24.09,24.09,0,0,0,1.48-4.59,33.92,33.92,0,0,0,.26-5.14c0-1.47,0-2.93,0-4.4,0-.55-.2-1.41.26-1.81a2.6,2.6,0,0,1,1.34-.37,18.61,18.61,0,0,1,6.25.69,4.54,4.54,0,0,1,2.24.91c1,1,.76,2.86.63,4.11-.34,3.17-1.05,6.23-1.14,9.44-.09,3.39.21,6.77.35,10.16.4,8.94-.74,17.87-.21,26.82,0,.49.79.5.78,0-.11-8.18-.13-16.64,2.45-24.5a32.74,32.74,0,0,1,5.63-10.11c1.18-1.52,2.08-3.46,3.72-4.55,3.11-2.07,7,1.41,9.12,3.36v-.56c-3.92,4.94-8.36,9.58-11,15.36a51.47,51.47,0,0,0-4.47,16.46,39.88,39.88,0,0,0-.13,8.6,5.92,5.92,0,0,0,2.93,4.77c2.22,1.31,5,1.37,7.39,2a17.5,17.5,0,0,1,6.79,3.58c1.88,1.58,4.27,3.18,5.62,5.27.64,1,.89,2.13,1.61,3.1a21.73,21.73,0,0,1,3.8,7.39,22.72,22.72,0,0,1,.24,9.88,34.7,34.7,0,0,1-2.3,8.87,15.22,15.22,0,0,1-6.43,6.62c-5,2.9-10.79,3.76-15.84,6.47a14.92,14.92,0,0,0-6.31,5.64,10.91,10.91,0,0,0-1.07,6.76,14.67,14.67,0,0,0,8.65,11.15l.1-.74c-4.44-.43-9.53-2.73-12-6.61-1.41-2.21-1.91-5-2.32-7.52-.19-1.19-.35-2.38-.58-3.55a7.89,7.89,0,0,0-.9-3.2c-.91-1.2-2.78-1.52-4-2.32-1.89-1.24-4.36-1.28-6.46-2.11-2.4-1-4.91-1.26-7.21-2.52a21.46,21.46,0,0,1-6.13-4.63c-3.05-3.66-3.61-8.8-3.76-13.38-.14-4.18-.32-8.72,1.15-12.71s4.76-6.95,7.68-9.94a14,14,0,0,1,6.42-3.85c1.71-.41,3.43-.76,5.14-1.19a14.9,14.9,0,0,0,4-1.24c1.15-.69.91-2.63.81-3.76a27.67,27.67,0,0,0-1.52-6.59c-.11-.31-.6-.18-.49.14Z" transform="translate(-0.09 -0.14)"/><path class="cls-1" d="M257.11,130.83a17.37,17.37,0,0,0,.37-4.33c0-1.43,0-2.87.11-4.3a22.87,22.87,0,0,1,2-8.62H259c1.41,2.91,3.9,5.66,3.77,9.07-.1,2.79-.38,6.25,1.66,8.52a.27.27,0,0,0,.44-.26,17.7,17.7,0,0,1-1.5-4.93c-.11-1.53.22-3.06,0-4.57-.36-3-2.54-5.51-3.84-8.17a.33.33,0,0,0-.57,0,22.51,22.51,0,0,0-2,8.07c-.09,1.47-.08,2.94-.09,4.41a39.16,39.16,0,0,0,0,5.08c0,.12.18.16.21,0Z" transform="translate(-0.09 -0.14)"/><path class="cls-1" d="M277.61,128.4c1.47-2.63,2.59-5.47,4-8.13,1.06-2,3.64-7.59,6.62-6.38l-.22-.4c-1.08,4.7-2.93,9.49-2.51,14.4a.3.3,0,0,0,.59,0,52.2,52.2,0,0,1,.76-7.17c.55-2.37,1.24-4.69,1.78-7.06a.34.34,0,0,0-.23-.4c-3-1.22-5.35,3.27-6.49,5.31a74.88,74.88,0,0,0-4.56,9.73c-.06.14.17.24.25.1Z" transform="translate(-0.09 -0.14)"/><path class="cls-1" d="M246.78,212.07c1.95,1.54,4.68,2.4,7,3.12a37,37,0,0,0,8.95,1.79c.37,0,.47-.59.09-.66-2.91-.56-5.81-.89-8.67-1.72-2.5-.74-4.81-2-7.28-2.77-.12,0-.25.15-.13.24Z" transform="translate(-0.09 -0.14)"/><path class="cls-1" d="M510.07,137.5a.14.14,0,0,0,0-.28.14.14,0,0,0,0,.28Z" transform="translate(-0.09 -0.14)"/><path class="cls-1" d="M512.21,135.69a.12.12,0,0,0,0-.23.12.12,0,0,0,0,.23Z" transform="translate(-0.09 -0.14)"/><path class="cls-1" d="M555.77,126.53c.3,5.66-1.14,11.21-2.61,16.62a67.31,67.31,0,0,1-2.49,8.08,90.42,90.42,0,0,0-3.46,8.49c-.88,2.89-1.23,5.89-2,8.8s-1.89,5.64-2.48,8.56c-.85,4.2-.33,9.34,4.09,11.22,2.19.93,4.06,1.85,6.47,1.62a8,8,0,0,0,4.13-1.25,9.55,9.55,0,0,0,2.55-3.58,66.24,66.24,0,0,0,3.29-8.16c1-2.89,1.84-5.82,2.77-8.73.87-2.7,1.92-5.33,2.89-8a48.82,48.82,0,0,0,2.4-8.29,32.23,32.23,0,0,0,.24-8.44,55,55,0,0,0-1.66-9.8c-.67-2.48-1.4-5.54-3.22-7.48s-4.48-1.41-6.74-1.09a15.16,15.16,0,0,0-4.15,1.11c-.42.19-.06.81.36.62a12.64,12.64,0,0,1,3.09-.91c2.37-.4,5.54-1,7.22,1.13,1.53,1.94,2.19,4.69,2.81,7a52.05,52.05,0,0,1,1.52,8.68,33.44,33.44,0,0,1-.07,8.54,42.5,42.5,0,0,1-1.89,7.08c-.86,2.46-1.83,4.88-2.7,7.33-.93,2.61-1.7,5.27-2.53,7.9s-1.71,5.28-2.77,7.84a23.53,23.53,0,0,1-3,5.78,5.43,5.43,0,0,1-3.57,1.85,12.38,12.38,0,0,1-2.58.22,11.4,11.4,0,0,1-3.52-1.21c-2.3-1-4-2-4.72-4.56-.83-2.8-.31-5.72.45-8.47.72-2.57,1.69-5.07,2.26-7.68s1-5.34,1.8-7.93c.92-2.92,2.34-5.64,3.47-8.48a72.26,72.26,0,0,0,2.44-8.29c1.36-5.16,2.94-10.78,2.25-16.16,0-.24-.4-.26-.39,0Z" transform="translate(-0.09 -0.14)"/><path class="cls-1" d="M562.31,125.33a19.69,19.69,0,0,0-6.42.92l.33.43a8.65,8.65,0,0,0,.82-3.84,10.86,10.86,0,0,0-1.47-3.92,79.2,79.2,0,0,0-3.9-7.55,52.88,52.88,0,0,0-4.77-6.57c-2.22-2.63-4.91-4.7-6.85-7.57-2.07-3.06-4.38-6-6.66-8.86A19.4,19.4,0,0,1,531,84.85c-.83-1.74-.18-2.73,1.19-3.85,1-.82,2.12-1.54,3.11-2.41.39-.34,1-1.28,1.48-1s.7,1.34.87,1.81c.87,2.46,1.65,4.92,2.65,7.33a168.86,168.86,0,0,0,11.18,21.94l.6-.35a97.19,97.19,0,0,1-16.27-43.43c-.11-1-.28-2.52.46-3.24.58-.58,1.65-.48,2.41-.49,1.88,0,3.85-.54,5.7,0l-.25-.44c-1.66,6.18.11,12.22,3.29,17.58a.35.35,0,0,0,.61-.36c-1.16-2.15-2.46-4-2.76-6.52a26.7,26.7,0,0,1,0-6.38,53.13,53.13,0,0,1,3.53-13c.78-2,1.61-4,2.45-6l1.11-2.66a5.34,5.34,0,0,1,.6-1.47c.41-.39.73-.2,1.22-.06s1,.32,1.58.41a6.09,6.09,0,0,1,1.72.33c.49.22,1,.46,1.46.7a26.47,26.47,0,0,1,4.62,2.85l-.17-.41c-2.59,7.61-5.62,15-7,23A46.66,46.66,0,0,0,557.68,91c.13.38.79.34.74-.1a48,48,0,0,1,6.71-29.77l-.44.18A15.81,15.81,0,0,1,573,66.17L573,65.7c-.64,1.23-1.24,2.48-1.93,3.68-.82,1.41-1.76,2.73-2.53,4.16a36.64,36.64,0,0,0-3.27,8.83c-1.54,6.32-1.93,12.85-2.47,19.31a95.08,95.08,0,0,1-1.35,10.65.38.38,0,0,0,.74.2c5.38-13.77,8.93-28.18,14.67-41.82l-.57.23a36.46,36.46,0,0,1,4.81,3.56,4.55,4.55,0,0,1,1,1.16,2.79,2.79,0,0,1-.23,2.37c-.39,1.11-.79,2.23-1.19,3.34l-5.31,14.82-10.6,29.62c-.17.47.58.68.75.21l8.89-24.85,4.45-12.42,2.31-6.45,1-2.87a11.44,11.44,0,0,0,.88-2.75c.14-1.46-1.16-2.58-2.19-3.43-1.32-1.09-2.78-2-4.18-3a.39.39,0,0,0-.57.23c-5.74,13.64-9.29,28.05-14.66,41.83l.74.2c2.52-12.36.81-25.81,6.43-37.46.82-1.69,1.87-3.21,2.83-4.82.81-1.35,1.49-2.77,2.22-4.16a.41.41,0,0,0-.06-.47,16.68,16.68,0,0,0-8.68-5.05.4.4,0,0,0-.44.18,48.63,48.63,0,0,0-6.79,30.16l.74-.1A46.24,46.24,0,0,1,557.26,68c1.4-7.64,4.31-14.73,6.8-22a.38.38,0,0,0-.17-.4A26.3,26.3,0,0,0,559.77,43c-.77-.38-1.54-.79-2.34-1.1a7.86,7.86,0,0,0-1.8-.29c-.79-.12-2-.89-2.84-.54-.35.15-.4.41-.54.74-.36.86-.7,1.74-1.07,2.6-2.94,7-6.2,14.22-6.77,21.92a25.63,25.63,0,0,0,.26,6.25c.37,2.11,1.7,3.89,2.7,5.73l.61-.36c-3.08-5.2-4.82-11-3.21-17a.36.36,0,0,0-.25-.44c-1.7-.46-3.43-.08-5.15,0-1.13.05-2.66-.18-3.6.61-1.1.93-.83,3.06-.66,4.29q.4,3.1,1,6.18A99.61,99.61,0,0,0,544,95.89a89.72,89.72,0,0,0,7.48,12.82c.25.36.83,0,.6-.35a169.35,169.35,0,0,1-10.81-21c-1.16-2.75-2-5.57-3.07-8.36a4,4,0,0,0-1.19-2c-.68-.42-1.09.11-1.55.58a34.66,34.66,0,0,1-3.48,2.8,5.25,5.25,0,0,0-2,2.32c-.69,2.33,2,4.94,3.29,6.58s2.63,3.34,3.9,5,2.23,3.26,3.42,4.83a31.35,31.35,0,0,0,3.46,3.55,39.74,39.74,0,0,1,3.57,4,50.55,50.55,0,0,1,5.34,8.22c.85,1.63,1.64,3.3,2.42,5a8.43,8.43,0,0,1,1.13,3.23,8.33,8.33,0,0,1-.73,3.36c-.09.21.06.51.32.42a21.58,21.58,0,0,1,6.27-1.11.19.19,0,0,0,0-.37Z" transform="translate(-0.09 -0.14)"/><path class="cls-1" d="M357.61,271.25a31.79,31.79,0,0,1,1.69,6.63,8.74,8.74,0,0,1-.63,3.46c-.84,2.54-1.73,5-2.71,7.53a29.52,29.52,0,0,0-1.9,7.67,28.74,28.74,0,0,0,2.78,15.4,19.87,19.87,0,0,0,4.76,6.56c2,1.72,4.5,2.87,6.62,4.49,3.87,2.94,7.72,5.49,12.46,6.83a45.93,45.93,0,0,0,16.18,1.36,67.79,67.79,0,0,0,17.45-3.91c2.79-1,6-1.62,8.18-3.69,2.89-2.68,5.7-5.47,8.49-8.26a13.35,13.35,0,0,0,1.48-1.95,11.88,11.88,0,0,0,2.26-4.18,14.19,14.19,0,0,0-.35-6.63,62.53,62.53,0,0,0-2.59-7.53c-1.1-2.82-2-5.69-2.94-8.56l-3.12-9.59c-.5-1.54-1.17-3.11-1.52-4.7-.41-1.85.77-2.49,2.21-3.24s3.56-2,2.86-4a8.56,8.56,0,0,0-2-2.77c-1-1.14-2.05-2.31-3.16-3.38-1.49-1.44-3.5-3.37-5.76-3-2.69.47-2.57,3.46-2.43,5.59a16.7,16.7,0,0,1,0,4.63,8.34,8.34,0,0,1-2,3.72c-1.86,2.11-4.33,3.24-6.6,4.78a18,18,0,0,0-4.47,5.16c-1.44,2.12-3.5,3.83-4.48,6.24a9.32,9.32,0,0,0-.38,2.19c-.05.29,0,.09.1.07-.21,0-.55-.23-.74-.31a16.63,16.63,0,0,1-1.79-.9c-1.28-.8-2.46-1.85-3.68-2.75-1.41-1-2.84-2.09-4.27-3.12-5.34-3.83-10.76-7.57-16-11.59-2.16-1.66-4.29-3.49-6.88-4.44-1.9-.71-4.09-.95-5.53.74a9.79,9.79,0,0,0-1.79,5.4c-.06.51.73.5.79,0,.21-2,.76-5.41,3.23-5.87,2.69-.51,5.65,1.71,7.65,3.22q7.41,5.61,14.95,11c2.49,1.77,5,3.54,7.42,5.36,1.93,1.42,3.92,3.38,6.3,4,1.19.31.94-.63,1-1.46.2-2.5,2.48-4.26,3.88-6.12,1.55-2.07,2.75-4.47,4.9-6,1.95-1.39,4.1-2.36,5.9-4a9.87,9.87,0,0,0,3.27-5.29,14.73,14.73,0,0,0,.07-4c-.11-1.48-.6-4.32,1-5.22,2.57-1.48,5.72,2.32,7.24,4,.88,1,1.8,1.9,2.63,2.9.52.64,1.23,1.51,1,2.41s-1.17,1.36-1.86,1.74c-1.37.76-3.29,1.41-3.46,3.23-.11,1.19.56,2.49.92,3.59.51,1.6,1,3.19,1.55,4.79,1.84,5.63,3.57,11.31,5.71,16.83,1.62,4.2,4.13,9.82,2,14.25a23.81,23.81,0,0,1-2.34,3.51,47,47,0,0,1-5,4.9c-2.28,2.22-4.3,4.86-7.38,5.91a117.75,117.75,0,0,1-14.89,4.54,53.11,53.11,0,0,1-17.51.85,34.92,34.92,0,0,1-13.18-4.63c-2.09-1.24-3.84-2.89-5.85-4.23-2.29-1.51-4.78-2.75-6.62-4.84a26.49,26.49,0,0,1-5.95-15,27.75,27.75,0,0,1,.51-8.08,58.11,58.11,0,0,1,2.7-7.81c.64-1.75,1.19-3.57,1.67-5.37a7.14,7.14,0,0,0,.17-3.05,38.07,38.07,0,0,0-1.82-6.09.18.18,0,0,0-.34.1Z" transform="translate(-0.09 -0.14)"/><path class="cls-1" d="M359.65,281.29c1-.58,2-1.39,3.06-.68.72.47,1.28,1.15,2,1.6a22.41,22.41,0,0,0,5,1.88,33.6,33.6,0,0,1,5.43,2.64c1.64.87,3.34,1.62,5.05,2.33,7.49,3.08,15.54,5,22.69,8.83a.37.37,0,0,0,.54-.41c-1.31-5.17,3-10.49,6.74-13.55a16.89,16.89,0,0,1,7.37-3.71c2.86-.58,5.68-.52,8.27-2.07a.35.35,0,0,0-.35-.6c-3.12,1.61-6.5,1.33-9.77,2.38a19.16,19.16,0,0,0-6.86,4.18c-3.57,3.23-7.41,8.45-6.11,13.57l.54-.42c-7.51-4.05-16-5.91-23.79-9.22a51.42,51.42,0,0,1-5.73-2.8,23.71,23.71,0,0,0-5.33-2.15,15.74,15.74,0,0,1-3.07-1.15c-.89-.47-1.54-1.22-2.38-1.73-1.28-.79-2.36,0-3.44.8-.16.12,0,.38.15.28Z" transform="translate(-0.09 -0.14)"/><path class="cls-1" d="M398.09,275.45a31.5,31.5,0,0,0-7.17-4.05c-2.66-1-5.5-1.46-8.18-2.44s-4.6-3.1-7.27-3.81-4.38.8-6.51,2.2c-.28.18-.11.69.23.56a19,19,0,0,0,2.71-1.71,5,5,0,0,1,4.72.14c2.28,1.08,4.11,2.71,6.56,3.49s5,1.19,7.37,2.08a35.13,35.13,0,0,1,7.4,3.78c.15.1.28-.14.14-.24Z" transform="translate(-0.09 -0.14)"/><path class="cls-1" d="M376.11,265.62a32,32,0,0,1-.56-6.47,4.26,4.26,0,0,1,1.41-2.9,3.2,3.2,0,0,1,3.88-.73c1.49.74,2.56,2.21,3.64,3.44,1.24,1.41,2.92,2.53,4,4.06a7.48,7.48,0,0,0,3,3,32.44,32.44,0,0,1,5.23,3.18c2.78,2.07,7.27,5.64,6.85,9.58,0,.38.59.46.67.09.57-2.87-2-5.72-3.92-7.54a33.65,33.65,0,0,0-4.32-3.49c-1.62-1.11-3.41-1.84-5.06-2.86-1.36-.85-1.85-2.57-3.06-3.6a35.61,35.61,0,0,1-3.67-3.7c-1.82-2.06-4.39-4.41-7.1-2.37a5.14,5.14,0,0,0-2.2,3.7,17.34,17.34,0,0,0,.78,6.71c.07.2.44.19.41-.05Z" transform="translate(-0.09 -0.14)"/><path class="cls-1" d="M389.71,263.91c-1-2.75.05-5.26,2-7.33,1.56-1.68,4.19-2.51,6-.66,1.37,1.38-.27,3.77,1.62,4.83,1.22.68,2.82.21,4.06-.16l3.87-1.18c1.33-.41,2.94-.94,3.51.88a19,19,0,0,0,.9,2.63,6.07,6.07,0,0,1,.75,1.69c.09.82-.27,1.06-.53,1.69s-.66,1.6-.92,2.4a4.16,4.16,0,0,0,0,2.13c.25,1.84-1.79,2.41-3,3.38-.29.24.08.61.37.48,1.06-.46,2.68-1.33,3.19-2.47a2.43,2.43,0,0,0,.16-1.25c0-.29-.11-.57-.14-.85a4,4,0,0,1,.53-2.17c.32-.77.66-1.53,1-2.29a2.38,2.38,0,0,0-.21-2,18.74,18.74,0,0,1-1.17-2.68,4.21,4.21,0,0,0-.93-2.2c-1.26-1.18-3.28-.22-4.65.2-1.17.36-2.34.76-3.53,1.08-.86.24-2.32.59-3.07-.09-.93-.84-.23-2.26-.54-3.32a3,3,0,0,0-1.09-1.52,4.6,4.6,0,0,0-4.22-.74,8,8,0,0,0-3.91,3.73,6.11,6.11,0,0,0-.39,5.91c.1.21.46.06.38-.16Z" transform="translate(-0.09 -0.14)"/><path class="cls-1" d="M355.15,291.4c-6.64-.71-15.21-.4-18.74,6.38a8.29,8.29,0,0,0,.35,8.27,19.64,19.64,0,0,0,3.16,3.76,11.76,11.76,0,0,0,3.46,2.79,15.49,15.49,0,0,0,3.1.47c1.56.29.45,2.93.32,4s-.25,2.78.68,3.67a5.76,5.76,0,0,0,3.15,1.07,13.47,13.47,0,0,1,4.24,1.1,24.1,24.1,0,0,1,3.62,2.39c2.32,1.71,4.45,2.93,7.37,3.08,6.74.37,13.31,2.59,20.07,2.64a.39.39,0,0,0,0-.77c-5.63,0-11.21-1.53-16.77-2.27-2.65-.36-5.31-.19-7.69-1.55s-4.23-3.27-6.68-4.38a11.06,11.06,0,0,0-3.18-.83c-1.13-.15-3.14-.2-3.84-1.25-1-1.5,0-3.85.17-5.45a1.93,1.93,0,0,0-.45-1.82,3.57,3.57,0,0,0-2.07-.41,5.75,5.75,0,0,1-3.86-1.9c-2.38-2.22-5.12-4.77-5.42-8.21-.33-3.85,2.6-7.24,5.87-8.83,4.07-2,8.75-1.62,13.14-1.64.21,0,.2-.3,0-.32Z" transform="translate(-0.09 -0.14)"/><path class="cls-1" d="M406.37,329.44c3.66-1,7.61-.65,11.34-1.07a56.25,56.25,0,0,0,6.13-1.45c2.78-.64,5.79-1,8.44-2.12,4.18-1.72,6.9-5.73,9.88-8.93a8.45,8.45,0,0,0,2.33-5c.17-1.49-.33-2.11-1.27-3.2-1.54-1.78-3.21-3.46-4.89-5.1a39.7,39.7,0,0,0-5.83-5.25c-.32-.2-.63.25-.39.51,1.46,1.6,3.23,3,4.8,4.47s2.91,2.86,4.3,4.34c.87.93,2.54,2.24,2.52,3.57a8,8,0,0,1-2.48,5.5c-3,3.19-5.68,7.32-10,8.71-2.54.82-5.2,1.28-7.8,1.89a51.36,51.36,0,0,1-5.94,1.44c-3.69.42-7.65.14-11.19,1.37-.21.08-.13.4.09.34Z" transform="translate(-0.09 -0.14)"/><path class="cls-1" d="M63.31,137a23.44,23.44,0,0,0-12,4.1,31,31,0,0,0-8.61,9.07c-3,4.42-6.28,8.51-8.91,13.14s-5.48,9.47-8,14.3a60.48,60.48,0,0,0-5.49,14.84c-1.11,4.78-2.45,9.7-2.29,14.65.08,2.42.37,4.91.69,7.31a46.32,46.32,0,0,0,1.84,6.3c1.18,4.18,1.35,8.63,4.67,11.8A22.4,22.4,0,0,0,30,235.79a39.6,39.6,0,0,0,5.71,2.78c3.83,1.34,8.31,2,12.27.87a27.43,27.43,0,0,0,11-6.54,23.41,23.41,0,0,0,6.75-10.23c2.57-8.75-2.47-17.73-7.28-24.68-2.65-3.81-5.19-7.75-7.6-11.71a36.83,36.83,0,0,1-3-6.05,16.73,16.73,0,0,1-.92-5.16,17.34,17.34,0,0,1,.14-4.88c.58-2.39,2.56-4.16,4.44-5.59,3.67-2.79,7.6-5.22,11.22-8.08,3.35-2.64,7.22-5.93,8.89-10,1.39-3.36-1-5.82-3.7-7.57a22.63,22.63,0,0,0-4.55-2.24c-.47-.17-.67.59-.2.75A20.93,20.93,0,0,1,68,139.94c1.39,1,3.05,2.32,3.35,4.08.37,2.14-1.59,4.49-2.86,6a37.88,37.88,0,0,1-4.62,4.6c-3.48,3-7.34,5.45-11.06,8.1-2.81,2-6.14,4.38-6.59,8.09a26,26,0,0,0,0,4.41,17.24,17.24,0,0,0,.53,4.05c1.13,3.81,3.3,7.24,5.46,10.54q3.72,5.67,7.47,11.31a37.63,37.63,0,0,1,5.5,12.46,17.44,17.44,0,0,1-1.49,12.18,27.59,27.59,0,0,1-8.88,9.57c-3.35,2.3-7.45,4.23-11.61,4A28.32,28.32,0,0,1,36.29,238a34.7,34.7,0,0,1-5.78-2.74c-3.67-2-6.78-4.4-7.87-8.6-.61-2.36-1-4.77-1.74-7.09a31.15,31.15,0,0,1-1.68-6.37,68.33,68.33,0,0,1-.58-6.84,38.57,38.57,0,0,1,.87-7.49,93.7,93.7,0,0,1,3.75-14.3c1.81-4.85,4.46-9.3,7-13.79a152.11,152.11,0,0,1,7.82-13.2c1.39-2,2.84-3.86,4.21-5.83a60.9,60.9,0,0,1,3.92-5.54,27.31,27.31,0,0,1,10.86-7.56,21.52,21.52,0,0,1,6.24-1.37c.22,0,.22-.35,0-.34Z" transform="translate(-0.09 -0.14)"/><path class="cls-1" d="M71.2,147.59c1.12-1.52,1.26-3.47,1.75-5.24a5.59,5.59,0,0,1,1.42-2.68c1.27-1.19,2.5-.58,3.93-.18a.32.32,0,0,0,.4-.3c0-1.54.5-3.65-.46-5s-3.09-.88-4.48-.67c-4.48.69-8.74,2.37-13.1,3.54-.32.09-.37.65,0,.7a18.39,18.39,0,0,1,7.67,2.68c2.3,1.53,4.22,4.27,2.46,6.91-.25.38.35.72.61.36,1.65-2.33.56-5.11-1.38-6.87a17.2,17.2,0,0,0-9.17-3.78v.7c3.51-.95,6.94-2.19,10.48-3,.87-.2,1.73-.39,2.61-.53s2.53-.52,3.36,0c1.37.89.78,3.62.77,5l.39-.3c-1.06-.29-2.11-.88-3.22-.47a4.24,4.24,0,0,0-2.15,2c-1.17,2.15-1.12,4.81-2.1,7.07a.12.12,0,0,0,.21.12Z" transform="translate(-0.09 -0.14)"/><path class="cls-1" d="M35.72,238.43c1.08.71,2.26,1.21,3.3,2a11.28,11.28,0,0,1,2.73,2.91,1.5,1.5,0,0,0,1.36.85,13.13,13.13,0,0,0,3.92-.73c1.72-.53,1.85-2.53,2.91-3.74a20.76,20.76,0,0,1,5.56-4,.3.3,0,0,0-.23-.55,14.23,14.23,0,0,0-4.59,2.92A8.11,8.11,0,0,0,49,239.9a15.3,15.3,0,0,1-1.33,2.46c-.79.81-2.61.89-3.68,1.1-1.56.31-1.76-.72-2.55-1.63-1.34-1.53-3.58-3.29-5.63-3.58a.1.1,0,0,0-.08.18Z" transform="translate(-0.09 -0.14)"/><path class="cls-1" d="M20.14,87.85c5.92,4.43,11.73,9.85,13,17.48a16.72,16.72,0,0,1,0,5.86,26.4,26.4,0,0,1-1.8,5,4.53,4.53,0,0,0,0,4,5.77,5.77,0,0,0,1.92,2.79c2.78,1.67,6.5,2.23,9.67,2.42a40.53,40.53,0,0,0,10.59-1,18.54,18.54,0,0,0,8.53-3.67c2.56-2.14,2-4.68.45-7.25-1-1.75-2-3.38-2-5.48a10.15,10.15,0,0,1,1.94-5.55c2.51-3.56,6.8-5.36,10.66-7,.37-.15.21-.69-.11-.79C68.9,93.24,62.73,96.27,60.58,91c-.65-1.61-.95-3.49-2.19-4.8-.49-.5-.86-.86-1.53-.62a23.42,23.42,0,0,0-3.28,1.74,26.71,26.71,0,0,0-5.14,3.76A31.17,31.17,0,0,0,46,93.69c-.91,1.12-1.53,2.35-2.84,3.09a1.82,1.82,0,0,1-2.47-.28,5.9,5.9,0,0,1-1.23-1.79,16.74,16.74,0,0,0-1.82-3.08,20.07,20.07,0,0,0-4.48-4c-4-2.85-9.49-4.06-13.72-.85-.44.33,0,1.07.43.74a9.3,9.3,0,0,1,7.37-1.65,15.13,15.13,0,0,1,6.2,3A15.52,15.52,0,0,1,38.2,94c.77,1.43,1.82,4.27,3.9,4.1,2.31-.19,3.52-2.61,4.82-4.16a24.93,24.93,0,0,1,5-4.6,31.07,31.07,0,0,1,2.71-1.65l1.54-.82c.73-.37,1-.73,1.58-.07,1.36,1.44,1.51,3.66,2.41,5.37,2.54,4.81,8.57,1.9,12.69,3.24l-.1-.79c-5.59,2.4-12.3,5.69-13,12.55a8.12,8.12,0,0,0,.57,3.93c.68,1.64,1.89,3,2.51,4.67,1.43,3.84-3.61,6.18-6.55,7.06-6.72,2-14.46,2.66-21.1,0a4.16,4.16,0,0,1-2.29-1.56,11.62,11.62,0,0,1-.86-1.73c-.84-2,.32-3.6,1.06-5.4a16.47,16.47,0,0,0,.67-9.7c-1.59-7.39-7.32-13-13.37-17.14-.31-.22-.58.27-.29.49Z" transform="translate(-0.09 -0.14)"/><path class="cls-1" d="M25.33,60.27c-2.63-2.86-8-.79-11,.43-3.91,1.63-7,4-10.33,6.6C2.2,68.72.36,70.46.12,72.9-.15,75.64,1.35,78.47,2.33,81A24.73,24.73,0,0,0,6.8,88.24,26.26,26.26,0,0,0,13.49,94c4.89,2.7,11.6-2.34,15.65,2.36.33.39.89-.17.56-.55-3.12-3.63-7.72-1.86-11.8-1.72-2.91.1-4.85-1.18-7-3a28.15,28.15,0,0,1-5.66-6.27,39.39,39.39,0,0,1-3.3-7.2c-1.11-2.8-1.55-5.52.63-7.9,1.63-1.79,3.8-3,5.66-4.59a21.66,21.66,0,0,1,4-2.57A28.55,28.55,0,0,1,18.85,60c2-.47,4.46-.81,6.12.63a.25.25,0,0,0,.36-.36Z" transform="translate(-0.09 -0.14)"/><path class="cls-1" d="M63.6,100.87c2.31-2.05,4.52-3.91,7.77-3.12,2.67.66,5.17,2.08,8,1.83s5.06-1.68,7.21-3.16c1.93-1.34,3.93-2.87,4.83-5.12,1.92-4.82-.59-10.48-3.23-14.47-1.55-2.34-3.52-4.56-4.75-7.09s-1.36-5.26-2.25-7.81c-1.54-4.45-2.64-9-6-12.51A15.17,15.17,0,0,0,64.3,45.11a28.83,28.83,0,0,1-3.47.09,7.34,7.34,0,0,1-3.2-1.66c-.8-.61-1.58-1.26-2.44-1.79a12.27,12.27,0,0,0-3.38-1.25c-4.92-1.35-10.5-3.19-15.63-2A23.16,23.16,0,0,0,28,42.6a32.37,32.37,0,0,0-5.82,5.33c-2.32,2.81-5.91,8.12-2.81,11.57.34.38.9-.18.56-.56-3-3.3,1.33-8.87,3.57-11.34,3.3-3.61,7.87-7.07,12.67-8.26,5-1.26,10.56.6,15.4,1.93a11.93,11.93,0,0,1,3.18,1.18,28.84,28.84,0,0,1,2.44,1.79A6.84,6.84,0,0,0,62.08,46c4.19-.29,8.44.42,11.69,3.27,3.55,3.1,4.83,7.48,6.24,11.8.74,2.3,1.22,4.63,1.89,6.95a22,22,0,0,0,3.55,6.32c3,4.21,5.8,8.45,5.7,13.82-.06,3.62-2.35,5.78-5.15,7.71s-5.68,3.47-9.08,2.81c-2.55-.5-5-2.07-7.69-1.84-2.44.21-4.34,2-6,3.68-.23.23.12.57.36.35Z" transform="translate(-0.09 -0.14)"/><path class="cls-1" d="M30.12,74.75c-.1-3.64,2.6-7.38,5.42-9.51a6.72,6.72,0,0,1,5.61-1.43A16.11,16.11,0,0,1,46,66.27a52.55,52.55,0,0,0,9.55,4.91c3,1.13,6.71,2,9.75.54.3-.14.09-.61-.22-.53a12.85,12.85,0,0,1-6.77.2,29.65,29.65,0,0,1-5.88-2.23,59.82,59.82,0,0,1-5.34-2.9,29.27,29.27,0,0,0-4.76-2.67c-3.11-1.16-6,.07-8.3,2.3s-4.4,5.49-4.18,8.86c0,.2.32.21.31,0Z" transform="translate(-0.09 -0.14)"/><path class="cls-1" d="M46,59.77c.83-3,2.66-6,5.6-7.27a9.56,9.56,0,0,1,4.28-.82,6.54,6.54,0,0,1,4,2.18c.26.25.6-.12.39-.39-2.16-2.77-5.68-2.81-8.71-1.58-3.21,1.29-5.17,4.54-5.93,7.79a.18.18,0,0,0,.35.09Z" transform="translate(-0.09 -0.14)"/><path class="cls-1" d="M67,55.22a12.66,12.66,0,0,1,6-.62A12.79,12.79,0,0,1,78.15,57c.27.19.54-.21.34-.44-2.68-3-8.27-3.68-11.66-1.68a.16.16,0,0,0,.12.3Z" transform="translate(-0.09 -0.14)"/><path class="cls-1" d="M76.17,73.37c1,1.61,3.6.59,3.9,2.89.19,1.47-.5,3.08.45,4.38a.3.3,0,0,0,.51-.3c-.82-1.6.16-3.42-.57-5s-2.84-1.06-4-2.16c-.14-.13-.38,0-.27.21Z" transform="translate(-0.09 -0.14)"/><path class="cls-1" d="M2.77,81.24A5.89,5.89,0,0,0,6.49,82.3a4.43,4.43,0,0,1,2.18.42c.84.45,1.44,1.26,2.24,1.79A17.13,17.13,0,0,0,13.86,86a3.27,3.27,0,0,0,2.83-.69,16.78,16.78,0,0,1,4.46-2.33,17.87,17.87,0,0,1,6-.65c3.86.25,7.36,1.94,10.79,3.6,1.93.93,4.74,2.24,6.69.56a11.21,11.21,0,0,1,6.41-2.37c7.47-.74,14.81,3.24,20.59,7.57,1.37,1,2.23,2.21,4,1.93a10.09,10.09,0,0,1,2.63-.2A6.74,6.74,0,0,0,80.87,93a26.48,26.48,0,0,0,10.28-5.66c.32-.28-.14-.73-.46-.46a27.35,27.35,0,0,1-9.58,5.35,8.56,8.56,0,0,1-3.3.35,6.91,6.91,0,0,0-1.51.16,2.7,2.7,0,0,1-2.59-.38c-.76-.57-1.49-1.17-2.26-1.73-5.34-3.89-11.79-7.29-18.57-7.29-2.46,0-5.51.38-7.62,1.76-.41.26-.69.66-1.07.94-1.43,1.07-3.53.44-4.95-.23-3-1.43-6.05-3-9.35-3.74a17.79,17.79,0,0,0-9.83.62A30.24,30.24,0,0,0,16,85.06a2.19,2.19,0,0,1-2.38.15c-.56-.27-1.16-.43-1.71-.7-1.48-.72-2.4-2.28-4.09-2.58a10,10,0,0,0-1.9,0,5.09,5.09,0,0,1-3-.88c-.14-.09-.26.12-.13.22Z" transform="translate(-0.09 -0.14)"/><path class="cls-1" d="M210.25,74c-9.63,5.42-16,15.77-20.58,25.48a107.5,107.5,0,0,0-6.06,15.67c-2,6.73-1.41,14-.34,20.81a22.72,22.72,0,0,0,2.94,8.6,31.77,31.77,0,0,0,6.55,6.9L210,166.2c.91.77,2,2,3.34,1.7s2.37-1.85,3.22-2.69l8.22-8.19c2.47-2.47,5.06-4.86,7.38-7.47a15.28,15.28,0,0,0,4.06-8.19,70.73,70.73,0,0,0,.4-11.46A48.63,48.63,0,0,0,234.8,118c-1.08-3.9-2.18-7.85-1.58-11.94.56-3.8,2.4-7.18,4.24-10.49.26-.46-.45-.87-.7-.41a39.63,39.63,0,0,0-3.8,8.2,19.7,19.7,0,0,0-.48,8.57c.51,3.21,1.6,6.29,2.34,9.44a45.63,45.63,0,0,1,1,10.68c0,3.4.13,7-.62,10.37s-2.81,5.75-5.09,8.07c-5,5.11-10.13,10.11-15.19,15.17-.82.81-1.69,1.82-2.95,1.05a20.42,20.42,0,0,1-2.16-1.78l-4.24-3.61-8.1-6.88c-5-4.28-10.7-8.26-12.66-14.89a46.69,46.69,0,0,1-1.45-9.34,43.77,43.77,0,0,1,0-10.91c.92-5.61,3.22-11.18,5.46-16.38,4.72-10.92,11.26-22.15,21.63-28.58a.21.21,0,0,0-.21-.36Z" transform="translate(-0.09 -0.14)"/><path class="cls-1" d="M231.67,66a11.7,11.7,0,0,0,3.79-4.15,5.87,5.87,0,0,0,.63-2.25c.07-1.16-.23-2.57,1.36-2.76a8.21,8.21,0,0,1,4.67,1.2c1.51,1.07-.91,3.48-1.66,4.43-1,1.24-2.18,2.72-2.41,4.33A5.18,5.18,0,0,0,239.91,71c1.63,1.65,3.37,3,3.48,5.53.11,2.25-.78,4.46-1.57,6.52-1.87,4.89-2.94,9.92-1.21,15l.44-.44c-3.33-.55-4.73-4-5.52-6.94-1.07-3.94-.21-8-1-11.93a.39.39,0,0,0-.46-.26,135.44,135.44,0,0,1-15.19,4.85l.46.46c.93-2.76,0-5.78.48-8.62,0-.21-.1-.51-.37-.48a22.12,22.12,0,0,1-15.79-4.29l-.29.67c6.34,1.58,10.88-4.5,16.31-6.46a8.16,8.16,0,0,1,4.88-.41,11.12,11.12,0,0,1,3.61,2c1.74,1.28,3.62,2.69,5.9,2a.36.36,0,0,0-.2-.7c-2.58.74-4.71-1.63-6.68-2.91a8.08,8.08,0,0,0-6.89-1c-5.65,1.61-10.38,8.32-16.73,6.73a.37.37,0,0,0-.28.68,22.68,22.68,0,0,0,16.16,4.4l-.36-.47c-.44,2.83.45,5.88-.47,8.62a.37.37,0,0,0,.46.46,135.38,135.38,0,0,0,15.19-4.84l-.46-.27c.51,2.53.24,5.06.33,7.61a20.13,20.13,0,0,0,1.09,5.64c.92,2.74,2.54,5.62,5.65,6.11.24,0,.54-.15.44-.44a17.32,17.32,0,0,1-.69-8.24,36.92,36.92,0,0,1,2.24-7.4A13.78,13.78,0,0,0,244,76c-.27-2-1.54-3.39-3-4.76a8.73,8.73,0,0,1-2-2.37c-.77-1.59-.11-3,.76-4.37,1-1.53,2.4-2.87,3.18-4.54,1.27-2.72-2.61-3.47-4.58-3.69-1.51-.16-2.75.33-2.86,2a7.61,7.61,0,0,1-.93,4,12.91,12.91,0,0,1-3.14,3.37c-.22.16,0,.53.21.37Z" transform="translate(-0.09 -0.14)"/><path class="cls-1" d="M223.94,65.16c2.58-.73,4.66,1.72,7.2,1.09a11.55,11.55,0,0,0,3.65-2.32,39,39,0,0,0,4.15-3.44c.23-.24-.09-.69-.37-.48-1.4,1.08-2.71,2.28-4.11,3.36s-2.85,2.55-4.64,2.31-4.27-2.22-6-.82c-.14.11,0,.34.17.3Z" transform="translate(-0.09 -0.14)"/><path class="cls-1" d="M224.2,75.26c.92-2.37,4.49-2.4,5.51-4.72a.28.28,0,0,0-.48-.27c-.8,1.27-2.31,1.9-3.53,2.7-.75.49-1.9,1.22-1.82,2.25a.16.16,0,0,0,.32,0Z" transform="translate(-0.09 -0.14)"/><path class="cls-1" d="M30.69,335.86a11.34,11.34,0,0,0,7.77,2.57,10.42,10.42,0,0,0,6.86-2.66,6.55,6.55,0,0,0,1.86-6.69c-.76-2.71-3.3-6.09-1.37-8.89,1-1.5,3-1.15,4.58-1.42A20.32,20.32,0,0,0,55,317.29,27.71,27.71,0,0,0,71,296.9a28.38,28.38,0,0,0-.2-10.75A28.83,28.83,0,0,0,69.1,281a20.6,20.6,0,0,1-2-6.38.38.38,0,0,0-.71-.19,7.06,7.06,0,0,1-5.63,3.68l.33.57c2.49-5.11-2.56-9.36-6.1-12.18a16.78,16.78,0,0,1-5.49-7c-1-2.35-1.84-4.87-3.85-6.55a5.12,5.12,0,0,0-5.46-.9,3.77,3.77,0,0,0-1.85,1.74c-.25.52-.31,1.08-.59,1.59a7.67,7.67,0,0,1-1.79,2c-1.85,1.57-4.43,1.4-6.52,2.58a22.55,22.55,0,0,0-5.78,5.33c-3.75,4.46-8.4,10.12-5.67,16.23l.5-.51c-1.47-1-3.92-1.25-5.14.3-.67.85-.68,2.22-.9,3.24-.28,1.24-.53,2.49-.69,3.75a22.72,22.72,0,0,0-.13,4,33,33,0,0,1,.28,5.7c-.35,3.25-1.11,6.49-.64,9.78A16.32,16.32,0,0,0,20.77,320a20.46,20.46,0,0,0,8.37,1.74c1.29,0,2.61-.36,3.88-.34s1.26.68,1.63,1.57a15.94,15.94,0,0,1,.7,2.12c.52,2-1.45,4.21-2.49,5.69s-2.56,3.13-2.47,4.9c0,.5.81.51.79,0-.08-1.55,1.44-3.2,2.27-4.39a15.34,15.34,0,0,0,2.62-4.64c.42-1.65-.43-3.35-1.1-4.82-.28-.59-.55-1.13-1.25-1.25a3.79,3.79,0,0,0-1.11.13A21.12,21.12,0,0,1,30,321c-6,.24-12.13-2.14-15.61-7.23a14.23,14.23,0,0,1-2.54-8c0-3.26.93-6.44.88-9.68,0-1.76-.43-3.48-.42-5.26a25,25,0,0,1,.52-4.65,27.39,27.39,0,0,1,.82-4c.66-1.81,3.23-1.4,4.45-.58.34.23.64-.2.51-.51-2.48-5.55,1.81-10.81,5.18-14.87a26.49,26.49,0,0,1,5.05-5A10.35,10.35,0,0,1,32,259.71a19.39,19.39,0,0,0,2.91-.74,7.76,7.76,0,0,0,3.72-3.63c.53-1.24.76-2.19,2.16-2.71a4.18,4.18,0,0,1,3.47.27c2.36,1.27,3.41,4,4.34,6.38A16.36,16.36,0,0,0,52,265c1.89,1.89,4.22,3.28,6.09,5.18,2.05,2.08,3.7,5.3,2.31,8.17-.11.23,0,.6.33.57A7.84,7.84,0,0,0,67,274.84l-.71-.19c.24,3.13,1.9,5.8,2.89,8.72a27.14,27.14,0,0,1,1.39,9.92,26.76,26.76,0,0,1-7.15,17,27.58,27.58,0,0,1-6.74,5.27,23.73,23.73,0,0,1-4.35,1.91,30.6,30.6,0,0,1-4.75.8c-2.2.35-3.17,2.33-3.14,4.41,0,2.95,2.31,5.33,2.35,8.27,0,3.37-3.1,5.85-6.15,6.52a12.3,12.3,0,0,1-9.77-2c-.21-.14-.37.18-.19.32Z" transform="translate(-0.09 -0.14)"/><path class="cls-1" d="M33.93,321.23c1.59,1,2.68-5,2.85-5.85.65-3.23-.49-6.55.89-9.69.84-1.91,2.32-2.73,4-3.73A46.86,46.86,0,0,0,46,298.77a16,16,0,0,1,2.25-1.5c.36-.19,1-.66,1.38-.58s.6.63.64.86c0,0-.14.86-.13.72a6.88,6.88,0,0,0,.73,2.4,23.7,23.7,0,0,1,1,3.27c1.13,5.05,0,9.89-2.46,14.36-.23.43.42.81.66.39A21.09,21.09,0,0,0,53,306.62a22.35,22.35,0,0,0-1.45-6.14A15.65,15.65,0,0,1,51,299c-.24-.83.13-1.19.14-2a1,1,0,0,0-.84-1.06c-1.31-.33-3.1,1-4.08,1.76-1.59,1.16-3,2.5-4.71,3.53-1.5.92-2.93,1.58-3.91,3.12a9.52,9.52,0,0,0-1.31,4.29c-.18,2,.24,4,0,6-.09.73-1.37,6.72-2.18,6.28a.17.17,0,0,0-.18.29Z" transform="translate(-0.09 -0.14)"/><path class="cls-1" d="M52.61,311c-.26-3.47,2.2-6.68,4.74-8.73a24.26,24.26,0,0,1,13.19-4.82c.46,0,.47-.77,0-.74a24.11,24.11,0,0,0-13.63,5.12c-2.78,2.29-5,5.45-4.51,9.17,0,.13.22.14.21,0Z" transform="translate(-0.09 -0.14)"/><path class="cls-1" d="M67.8,297.37a15.39,15.39,0,0,1-1.45-6c0-2,.91-3.87.18-5.87a12.29,12.29,0,0,0-2.69-4.12c-1-.94-2.88-1.28-2.83-2.83,0-.31-.38-.36-.54-.15-.67.92.32,1.79,1,2.26a9.3,9.3,0,0,1,2,1.42,14.82,14.82,0,0,1,2,3c1.21,2.38-.1,4.73.18,7.21a14.15,14.15,0,0,0,1.82,5.26c.08.15.28,0,.22-.12Z" transform="translate(-0.09 -0.14)"/><path class="cls-1" d="M45.49,298.94a10.12,10.12,0,0,0,2.73-3.89,12,12,0,0,0,.42-4.61,46.33,46.33,0,0,1,1.44-9.5.32.32,0,0,0-.61-.17A33,33,0,0,0,48,289.2c-.08,1.41.24,2.85,0,4.25a9.94,9.94,0,0,1-2.79,5.26c-.15.15.07.36.22.23Z" transform="translate(-0.09 -0.14)"/><path class="cls-1" d="M35.67,260.76a31.54,31.54,0,0,0-4.44,5.67A20.49,20.49,0,0,0,29,273c-.33,2-1.16,10.61,2.92,9.44,2.08-.6,3.4-2.63,5.42-3.34s4.21,1.57,6.26.15c1.6-1.11,2.28-3.54,2.52-5.35a12.41,12.41,0,0,0-.89-6.4,10.82,10.82,0,0,0-9.44-7c-.41,0-.51.67-.1.72a12,12,0,0,1,4.52,1.28A10.44,10.44,0,0,1,43.59,266c2.13,3.34,2.78,8.51.28,11.86-1.67,2.24-3.73.05-5.85.29a7.92,7.92,0,0,0-3.73,2,8.57,8.57,0,0,1-2.24,1.44c-1.86.63-2.27-1.24-2.47-2.6a19.86,19.86,0,0,1,.1-6.25,20.37,20.37,0,0,1,2.15-6.18c1.13-2.06,2.85-3.63,4.08-5.6.09-.15-.12-.32-.24-.19Z" transform="translate(-0.09 -0.14)"/><path class="cls-1" d="M12.8,285.48c.08-1.36.28-3.09,1.61-3.81s2.95-.17,4.32.08a14.73,14.73,0,0,1,7.81,4.15,6.41,6.41,0,0,1,1.68,5,19.35,19.35,0,0,0,.21,5.1,12.7,12.7,0,0,0,.57,1.71,7,7,0,0,1,.28.8s-.75-.48-.82-.52a8.51,8.51,0,0,0-3.66-1.35c-3.69-.29-6.46,3.77-7.9,6.63a.38.38,0,0,0,.33.57c2.56.32,3.53,4.64,4.26,6.62.85,2.32,1.34,4.92,2.47,7.12,1.86,3.62,6.35,3.26,9.75,2.55.48-.1.27-.81-.2-.73-2.06.36-4.33.77-6.35,0-2.72-1-3.16-4-4-6.4a66.46,66.46,0,0,0-2.59-6.85c-.68-1.5-1.64-2.9-3.38-3.11l.33.57a13.35,13.35,0,0,1,4.36-5.39c2-1.32,4.07-.88,6,.3.5.3,1.86,1.19,2.1.16.1-.43-.27-1.06-.42-1.44a10,10,0,0,1-.74-3.05c-.16-2,.37-4-.14-5.95a7.58,7.58,0,0,0-2.67-3.78,18,18,0,0,0-8.67-3.68,4.44,4.44,0,0,0-3.71.61c-1.16,1-1.34,2.61-1.33,4a.22.22,0,0,0,.43,0Z" transform="translate(-0.09 -0.14)"/><path class="cls-1" d="M17.36,303.57c.2-.33.42-.64.64-1s-.2-.51-.42-.33l0,0,.43.06a10.84,10.84,0,0,0-5.84-4.28.35.35,0,0,0-.18.67,13.23,13.23,0,0,1,5.59,3.94.28.28,0,0,0,.39,0l0,0-.43-.32a5.38,5.38,0,0,0-.45,1.11.15.15,0,0,0,.28.12Z" transform="translate(-0.09 -0.14)"/><path class="cls-1" d="M153.9,146.48a25.29,25.29,0,0,0-4.21,8.41c-.83,2.75-1.53,5.47-3.12,7.91a16.84,16.84,0,0,1-8.23,7.11,28.11,28.11,0,0,1-9.76,1.55,81.4,81.4,0,0,1-10.56-1c-3.48-.41-7.1-.55-10.39.83-5.55,2.34-9.23,7.66-13.3,11.84-4.68,4.79-9.32,9.91-12,16.14a33.59,33.59,0,0,0-2.44,10.32,29,29,0,0,0,.22,8.53c1.09,5.46,4.63,9.68,9.06,12.87A30,30,0,0,1,93,234.2c.65.66,1.24,1.38,1.94,2,1.87,1.58,4.64,1.51,6.92,2a33.91,33.91,0,0,1,6.74,2c1.4.61,2.73,1.38,4.1,2.06,6,3,13.07,1.09,19.06-1,3-1.07,5.8-2.76,8.89-3.62,3.59-1,6.89-.12,10.34,1,3,1,6.17,1.77,9.32.82a9.09,9.09,0,0,0,3.45-1.88,15.26,15.26,0,0,1,3.62-2.83c2.62-1.27,5.6-1.46,8.43-1.94a16.73,16.73,0,0,0,7.66-3.1c4.74-3.66,7.11-9.45,9.65-14.68,2.83-5.85,4.21-12.36,2.85-18.81a32.27,32.27,0,0,0-3.89-9.1,68.83,68.83,0,0,0-5.16-7.73c-3.58-4.68-8.73-8.94-14.9-9.19-3.46-.14-6.56,2.08-10.06,1.5a12.38,12.38,0,0,1-4.6-1.85c-1.64-1.05-3.57-2.42-2.83-4.6a16.83,16.83,0,0,1,2-3.18c1-1.59,2.12-3.11,3.23-4.63a45.75,45.75,0,0,0,5.22-8.25c.66-1.46,1.89-4.34,0-5.44a4.47,4.47,0,0,0-3.17-.37,28.79,28.79,0,0,0-3.9.63,8.16,8.16,0,0,0-5.66,4.45c-.21.47.48.87.69.4,1.31-2.85,3.94-3.95,6.89-4.43,1.14-.19,2.85-.63,4-.32,1.71.45,1.4,2.25.9,3.54a37,37,0,0,1-5,8.41c-1.82,2.47-3.48,5.05-5.27,7.54a4.73,4.73,0,0,0-1.05,3,3.94,3.94,0,0,0,1.78,2.71,13.22,13.22,0,0,0,7.29,3.27c3.27.28,6.18-1.71,9.43-1.58a17,17,0,0,1,9,3.49,30.81,30.81,0,0,1,6.61,7.2,65.4,65.4,0,0,1,4.76,7.68,25.59,25.59,0,0,1,3.17,9.32,27.59,27.59,0,0,1-.81,9.95,52.08,52.08,0,0,1-3.8,9.1,47.72,47.72,0,0,1-4.3,7.55,16.5,16.5,0,0,1-7,5.75c-2.51,1-5.25,1.17-7.88,1.64a14.61,14.61,0,0,0-6.93,2.79c-1.25,1-2.16,2.21-3.69,2.88a10.05,10.05,0,0,1-4.75.77c-3.61-.27-6.88-2.1-10.45-2.58a15.15,15.15,0,0,0-7.88,1.25c-6.09,2.49-12.35,5.54-19.12,5.36a16.34,16.34,0,0,1-7.39-2.24,33.61,33.61,0,0,0-4.14-1.9,44,44,0,0,0-7.42-1.84,12.75,12.75,0,0,1-3.73-.86,7.28,7.28,0,0,1-1.87-1.59A64.37,64.37,0,0,0,88,229.23a21.36,21.36,0,0,1-5.48-6.45c-2.81-5.34-2.41-11.92-1.22-17.65,1.43-6.85,5.39-12.59,10-17.7,2.1-2.34,4.34-4.54,6.46-6.87a49,49,0,0,1,6.63-6.49,15.14,15.14,0,0,1,9.15-3.16c3.5-.06,6.94.67,10.41,1,5.74.58,12.42.31,17.45-2.84a19.35,19.35,0,0,0,6.11-6.7,29.13,29.13,0,0,0,2.58-7,27.25,27.25,0,0,1,4.08-8.69c.1-.14-.13-.32-.24-.18Z" transform="translate(-0.09 -0.14)"/><path class="cls-1" d="M143,167.5a49.36,49.36,0,0,0,3.6,4.43c.9,1.06,1.8,2.6,3.4,2.29a8.67,8.67,0,0,0,3.65-2.13,6.69,6.69,0,0,0,2-3.35.36.36,0,0,0-.69-.19,6.77,6.77,0,0,1-1.7,2.93c-.67.63-2.27,1.94-3.21,2-1.68.14-2.85-1.92-3.83-3s-1.92-2.18-3-3.18c-.11-.1-.31,0-.22.17Z" transform="translate(-0.09 -0.14)"/><path class="cls-1" d="M118.71,180.42a26.2,26.2,0,0,0-8.3,6.39,43.87,43.87,0,0,0-6.37,9.52c-1.53,3.36-2.89,6.51-3.28,10.22-.47,4.53-.2,9.11-1.05,13.61-.09.47.62.67.72.2.85-4.09.64-8.3.94-12.45a24.18,24.18,0,0,1,.94-5.66A52,52,0,0,1,104.5,197a46,46,0,0,1,6.15-9.42c2.28-2.89,5.24-4.81,8.25-6.84a.19.19,0,0,0-.19-.34Z" transform="translate(-0.09 -0.14)"/><path class="cls-1" d="M147.66,188.72a43.89,43.89,0,0,1,1.51,19.12c-.85,5.39-3,10.64-2.76,16.17a.33.33,0,0,0,.65,0,49.15,49.15,0,0,1,1.2-8.87,81.79,81.79,0,0,0,1.69-8.06,41.43,41.43,0,0,0-1.82-18.49.24.24,0,0,0-.47.13Z" transform="translate(-0.09 -0.14)"/><path class="cls-1" d="M170.63,181.9c-.29.62.63,1.84,1,2.34a22.73,22.73,0,0,1,3,4.18,26.33,26.33,0,0,1,2.28,10.2c.17,3.53-.14,7,0,10.57s.32,7.07-1.09,10.43c-.19.44.53.63.72.2,1.42-3.42,1.2-7,1.09-10.63-.12-3.91.24-7.81-.08-11.71a24.39,24.39,0,0,0-2.63-9.84,32.43,32.43,0,0,0-3.15-4.18,4.84,4.84,0,0,1-.61-.89c-.13-.26-.22-.75-.49-.93a.15.15,0,0,0-.2.06l0,.05c-.08.17.18.32.26.15Z" transform="translate(-0.09 -0.14)"/><path class="cls-1" d="M467.41,152.32a65,65,0,0,0-9.14.67c-3.15.41-6.09.9-8.68,2.87-3.3,2.53-5.84,6.25-8.23,9.61-2.64,3.7-4.76,7.69-5.33,12.25a52.24,52.24,0,0,0,.72,14.55,33.63,33.63,0,0,0,5.2,13.49,105,105,0,0,0,8.89,11.37A36.74,36.74,0,0,0,461,225.3a31.72,31.72,0,0,0,23.62,2.75c8.49-2.53,15.78-8.8,21.82-15.08s11-13.64,12.57-22.19c1.4-7.7,0-16.14-5.11-22.23a56,56,0,0,0-9.14-9.07c-3.51-2.61-7.63-3.94-11.83-5a90.73,90.73,0,0,0-27.63-2.3c-2.25.14-4.5.35-6.74.65-.48.06-.49.82,0,.76a100.29,100.29,0,0,1,26.25.1,69.7,69.7,0,0,1,12.59,2.92A27.64,27.64,0,0,1,508,163.33c2.87,2.81,5.9,5.88,7.82,9.45a25.7,25.7,0,0,1,2.89,11.34c.26,8.31-3.07,16.11-8,22.67a68.3,68.3,0,0,1-8.78,9.45,62.77,62.77,0,0,1-10.39,7.91,30.18,30.18,0,0,1-24.08,3,33.07,33.07,0,0,1-11.07-5.68,55.69,55.69,0,0,1-9.05-9.67c-3-3.81-6.13-7.66-8-12.22A45.73,45.73,0,0,1,436.7,186c-.37-4.92-.36-9.79,1.72-14.37,1.84-4,4.69-7.65,7.45-11.1,2.26-2.83,4.84-5.46,8.46-6.33a62.67,62.67,0,0,1,9.45-1.33c1.21-.09,2.42-.2,3.63-.25a.15.15,0,0,0,0-.3Z" transform="translate(-0.09 -0.14)"/><path class="cls-1" d="M459.88,224.83c1.07.92,2.31,1.59,3.46,2.41,1.31.93,2.31,2.34,3.78,3s2.51.29,4,.18a19.86,19.86,0,0,1,4.68.37c2.46.39,4.45.48,6.56-1,2.86-2,6.17-3.11,9.07-5a.31.31,0,0,0-.31-.54,63.1,63.1,0,0,0-8.32,4.43,7.7,7.7,0,0,1-3.63,1.7,16.57,16.57,0,0,1-3.72-.34,20.72,20.72,0,0,0-3.51-.31c-1.68,0-3.28.66-4.86-.21-1.23-.68-2.14-1.87-3.3-2.67s-2.47-1.55-3.68-2.35c-.15-.1-.33.13-.19.25Z" transform="translate(-0.09 -0.14)"/><path class="cls-1" d="M560.65,227.19c1.18,1.06,2.87.8,4.33.67a6.37,6.37,0,0,1,3,.1c1,.42,1.58,1.76,2,2.65a21.48,21.48,0,0,1,1.7,7.38q.4,4.06.79,8.14c1.07,11,2.65,22,2.76,33,0,5.53-.19,11.06-.35,16.58-.08,2.63,0,5.29-.22,7.91a40.43,40.43,0,0,1-1.7,8.06c-.66,2.19-1.29,4.45-2.14,6.57a28.71,28.71,0,0,1-3.47,6q-2.08,2.86-4.21,5.7a18.42,18.42,0,0,1-3.64,4c-3.47,2.5-7.69,1.28-11.57.77-3.27-.43-6.67-.46-9.83-1.49a5.43,5.43,0,0,1-3.42-2.45,7.77,7.77,0,0,1-.43-3,29.17,29.17,0,0,1,.08-3.5,72.09,72.09,0,0,1,2.21-11.54c2.23-9,7.56-16.83,9.55-25.86.47-2.15.6-4.35,1-6.5a34.22,34.22,0,0,0,1-5.85c.09-2.32-.67-4.26-1.15-6.48a22.5,22.5,0,0,1-.19-6.95,62.35,62.35,0,0,0,.12-15.2c-.37-2.63-1.39-5.28-1.23-8A23.1,23.1,0,0,1,548,230.2a10.26,10.26,0,0,1,1.57-3.07,6.15,6.15,0,0,1,3.24-1.42,21.34,21.34,0,0,1,6.31-.78c2.35.15,4,1.34,6.09,2.27a8,8,0,0,0,2.67.7c.44,0,.43-.64,0-.67-2.2-.2-3.83-1.61-5.84-2.36-3.26-1.22-6.91-.46-10.17.39a5.36,5.36,0,0,0-4,3.59,33.72,33.72,0,0,0-2.52,7,16.29,16.29,0,0,0,.43,7,45.6,45.6,0,0,1,1,8.79,65.65,65.65,0,0,1-.44,8.3,28.52,28.52,0,0,0-.1,7.15c.35,2.45,1.39,4.63,1.32,7.16a42.7,42.7,0,0,1-1.16,6.81c-.43,2.32-.6,4.65-1.2,6.95a56.2,56.2,0,0,1-2.33,6.8c-1.86,4.55-4.05,9-5.65,13.61a81.79,81.79,0,0,0-3.06,12.67,31.84,31.84,0,0,0-.48,6.39c0,1.53,0,3.13,1,4.36,1.87,2.24,5.47,2.61,8.15,2.94,1.75.22,3.5.34,5.24.58,2.37.33,4.69,1,7.1.76,3.38-.3,5.66-2,7.71-4.64,1.44-1.81,2.77-3.71,4.15-5.57a38.54,38.54,0,0,0,3.82-5.89,44.79,44.79,0,0,0,2.32-6.46,53.73,53.73,0,0,0,2-8,62.42,62.42,0,0,0,.41-7.86c.07-3,.18-6,.27-9a165.71,165.71,0,0,0-.22-17.55c-.45-5.84-1.14-11.67-1.73-17.51s-1-11.43-1.74-17.11a19,19,0,0,0-1.64-6.2c-.74-1.49-1.54-2.95-3.32-3.1-2-.17-4.62,1.18-6.33-.24-.15-.12-.36.08-.21.21Z" transform="translate(-0.09 -0.14)"/><path class="cls-1" d="M555.8,335.91c-1.47,1.16-3.4,1.5-5,2.44a4.29,4.29,0,0,0-.8.6c-.17.18-.29.51-.47.65-.85.65-2.83-.2-3.75-.51-3.69-1.25-6.06-3.85-8.92-6.3a.27.27,0,0,0-.38.37c2.77,2.94,6,5.56,10,6.7.77.22,2.09.8,2.91.55.6-.18.7-.8,1.13-1.21,1.54-1.45,4-1.51,5.52-3.07a.15.15,0,0,0-.21-.22Z" transform="translate(-0.09 -0.14)"/><path class="cls-1" d="M568.73,228.1h0a.14.14,0,0,0,0-.12,8.2,8.2,0,0,1-.55-4.71,11.39,11.39,0,0,0,.45-2.37,5.74,5.74,0,0,0-.24-2.3,9.12,9.12,0,0,0-1.51-2.05,4.36,4.36,0,0,0-1.43-1.34,4.44,4.44,0,0,0-2.83.19c-1.37.46-1.53,1.94-2.52,2.87l.43.06c-.57-.78-.13-2.55-.28-3.48-.18-1.17-.83-2-2.09-1.89a7.86,7.86,0,0,0-1.2.33c-1,.24-1.12-.08-1.76-.6a1.75,1.75,0,0,0-1.7-.58,2.7,2.7,0,0,0-1.56,2.18c-.16,1.2.76,2.1,1.15,3.17l.21-.37c-1.56.36-3.28-1.28-4.79-.34-1.21.75-1.44,2.56-1.46,3.86a23.07,23.07,0,0,0,.55,4.75c.12.55.21,2.05.68,2.48a.3.3,0,0,0,.51-.22h0c0-.39-.58-.39-.59,0h0l.51-.21c.12.11-.08-.37-.13-.55-.11-.42-.21-.85-.31-1.27a26.28,26.28,0,0,1-.6-4.23c-.06-1.47,0-4.32,2.07-4.26,1.28,0,2.41.87,3.72.57a.3.3,0,0,0,.21-.37c-.39-1.06-1.32-2-1.08-3.19.18-.92,1-1.65,1.91-1.22a6.82,6.82,0,0,1,.88.73c1.3,1,2.08-.48,3.43-.06,1.89.59.32,3.82,1.24,5a.28.28,0,0,0,.44.05c.86-.81,1.15-2.32,2.27-2.74a2.9,2.9,0,0,1,3.18.36,12,12,0,0,1,1.55,1.85c1,1.33.7,3.1.32,4.59a7.45,7.45,0,0,0-.15,3,12.8,12.8,0,0,0,.83,2.22c-.09.12.1.26.2.16Z" transform="translate(-0.09 -0.14)"/><path class="cls-1" d="M139.85,75.2c4.63,1,9.45,2.07,13.46,4.75a14.29,14.29,0,0,1,4.75,5.17,41.47,41.47,0,0,1,3,6.52c1.38,4.23-.55,8.14-2.34,11.94-2.39,5.1-6.53,8.5-11.34,11.26A25.08,25.08,0,0,1,139.9,118c-2.69.53-5.45.18-8.17.5a12.38,12.38,0,0,1-3.84.09,10.62,10.62,0,0,1-3.83-2,41.88,41.88,0,0,1-6-4.67c-3.68-3.64-6.74-8.48-7.21-13.74-.41-4.65,1.62-9.69,4-13.59,2.75-4.44,7.29-8.26,12.83-7.86,3,.22,5.7,1.57,8.7.51a18.2,18.2,0,0,0,3.69-1.91.36.36,0,0,0-.36-.62,16.67,16.67,0,0,1-4.28,2c-2.95.79-6-.93-8.94-.79-4.65.21-8.51,3-11.2,6.63-2.8,3.8-5.11,9-5.28,13.77-.18,5.19,2.35,10.19,5.62,14.07a29.38,29.38,0,0,0,5.77,5.25c2,1.4,4.22,3.32,6.75,3.64a16.75,16.75,0,0,0,4.18-.22c1.57-.19,3.07-.09,4.66-.13a18.71,18.71,0,0,0,7.41-1.78c5-2.24,10.08-5.57,13.2-10.13a35.93,35.93,0,0,0,3.65-7.63,12.76,12.76,0,0,0,1-5.38,17.76,17.76,0,0,0-2.1-6.22c-1.29-2.63-2.57-5.17-4.83-7.11-4.21-3.6-10-5.07-15.37-5.87-.23,0-.33.29-.1.35Z" transform="translate(-0.09 -0.14)"/><path class="cls-1" d="M140.31,118.09c-1,1.55-.77,4.1-.72,5.85.08,2.6.4,5.18.48,7.77a13.63,13.63,0,0,1-.18,2.21,22.21,22.21,0,0,0,.24,3.72c.18,4.55-2.76,8.16-5.65,11.37-.81.9-1.67,1.75-2.47,2.66s-1.17,1.73-2.19,2.11a6.3,6.3,0,0,1-3.77.11c-1-.26-2.56-.78-2.86-1.93l-.52.4c1.31.71,2.67.34,4.11.18s2.75-.39,3.38-1.83c.45-1,.44-1.88,1.42-2.64a15.85,15.85,0,0,0,1.82-1.55,5.3,5.3,0,0,0,1.44-4.72,22.67,22.67,0,0,1-.63-3.83,20.7,20.7,0,0,1,.73-3.65,4.9,4.9,0,0,0-.7-4.22c-1.35-1.72-3-3.13-3.14-5.48-.09-1.9.64-3.83.91-5.7.06-.45-.63-.65-.69-.19-.42,2.93-1.65,5.78-.16,8.6.79,1.51,2.49,2.58,3.06,4.16.72,2-.55,4.09-.71,6.06-.17,2.14,1.14,4.29.6,6.4a5.52,5.52,0,0,1-1.77,2.59,13.55,13.55,0,0,0-2,1.69,4.91,4.91,0,0,0-.65,1.61,2.32,2.32,0,0,1-2,1.86c-1.28.26-3.5.67-4.66.05a.36.36,0,0,0-.52.4c.37,1.37,1.92,2,3.16,2.37a6.56,6.56,0,0,0,5.07-.39,8.1,8.1,0,0,0,1.66-1.84c.77-.91,1.63-1.74,2.43-2.62a37.73,37.73,0,0,0,4.11-5.3,11.63,11.63,0,0,0,1.87-5.53c.08-1.6-.42-3.21-.26-4.79a34.06,34.06,0,0,0-.13-6.46c-.15-1.75-.3-3.5-.32-5.26,0-1.26-.15-2.92.55-4,.13-.21-.19-.4-.33-.2Z" transform="translate(-0.09 -0.14)"/><path class="cls-1" d="M140.08,74.84c-1.57-1.85-.44-3.51.38-5.42a11.82,11.82,0,0,1,4.11-5.09,10.76,10.76,0,0,1,5.71-1.95c2.42-.07,4.74.71,7.09,1.11,3.06.52,6.8.23,7.77-3.34.77-2.83-.61-6.21-3.47-7.19a15,15,0,0,0-5.63-.43,16.36,16.36,0,0,0-5.44,1.17l.35.61c3.45-1.51,8.33-4.38,8.58-8.63.1-1.73-.39-3.85-2.25-4.33a5,5,0,0,0-2.9-.06c-1.19.44-2.13,1.66-3,2.53-.68.67-2.27,2.54-3.35,2.4-.66-.09-.28-.62-.12-1.13.21-.7.45-1.39.69-2.07.89-2.51,1.89-5,2.74-7.49a35,35,0,0,0,1.79-7.48c.2-2,.38-4.73-1-6.38-1.61-1.89-3.72-1.71-5.2.12a19,19,0,0,0-2.06,3,16.26,16.26,0,0,1-2.18,3.91l.59.35c1.81-6.82,2.13-14.34-1.28-20.73-1.56-2.92-3.88-5.9-7-7.31-2.66-1.23-6.29-1.36-8.08,1.33-1.46,2.18-1.67,5.91-.88,8.39.55,1.73,1.88,3.08,2.37,4.83.91,3.24.58,6.72,1.8,9.89,1,2.57,3,4.47,4.41,6.83a3.16,3.16,0,0,0,.34.63c.07,0,0,.16.08.21l.13-.17c.23-.2.15-.33-.27-.41a11,11,0,0,0-2.75-1.46,25.1,25.1,0,0,0-3.85-1.44c-1.89-.5-3.46.2-3.12,2.34a7.66,7.66,0,0,0,1.22,2.81c.92,1.51,1.77,3,2.54,4.63a11.07,11.07,0,0,1,1.38,5.23,6.82,6.82,0,0,1-.75,3.14c-.36.58-1.29,1.31-1.83.61a3,3,0,0,1-.21-1,12.55,12.55,0,0,0-1.92-4.66,10.2,10.2,0,0,0-3.65-3c-1.79-1-4.42-2-6.49-1.41-3,.81-3.5,4.08-1.47,6.13,1.23,1.25,2.93,1.94,4.08,3.27a10.4,10.4,0,0,1,1.7,3.33,9.43,9.43,0,0,1,.41,1.47c0,.06.1.49,0,.55.2-.16-1-.72-1.22-.8a6.79,6.79,0,0,0-3.91-.38c-2.94.58-4.07,3.63-2.85,6.2,1.47,3.11,4.89,5.5,7.9,7,3.52,1.7,8,2.09,9.44,6.34a16.47,16.47,0,0,1,.56,5.46.38.38,0,0,0,.75,0c0-3-.09-6.29-2.33-8.58s-6.11-2.78-9-4.35-8.36-5.32-6.94-9.13c.66-1.78,2.53-2.39,4.28-2.25a9.32,9.32,0,0,1,3,1.08.86.86,0,0,0,.62.12c1.22-.43-.25-3.47-.52-4.1a9.17,9.17,0,0,0-1.42-2.44c-1.12-1.27-2.72-2-3.93-3.13a3,3,0,0,1-1.05-3.2,3,3,0,0,1,2.8-1.93,9.75,9.75,0,0,1,3.28.56,13.36,13.36,0,0,1,4.07,2.27,9.71,9.71,0,0,1,2.78,4.73c.25.81.19,2.39,1,2.92s1.94-.3,2.42-.89c1.76-2.11,1.25-5.7.3-8a37,37,0,0,0-2.2-4.41,19.64,19.64,0,0,1-2-3.56c-.33-1.06-.36-2.42,1.1-2.38a12.93,12.93,0,0,1,4.25,1.38A27.34,27.34,0,0,1,134,32.78c.33.2.92.78,1.36.75s.48-.48.34-.87c-.7-2.1-2.68-3.75-3.82-5.59-1.8-2.91-1.78-6.24-2.28-9.51A14.94,14.94,0,0,0,127.43,12,10.26,10.26,0,0,1,126.92,4c1.58-4.79,7.47-3.16,10.33-.62,5.64,5,7.27,12.85,6.39,20a38.91,38.91,0,0,1-1.08,5.45.35.35,0,0,0,.59.34c1.36-1.44,1.76-3.46,2.89-5.06a15.57,15.57,0,0,1,2-2.55c1.28-1.15,3-.32,3.81,1,1.2,1.95.66,5.23.27,7.34a43.68,43.68,0,0,1-1.89,6.61c-.75,2.12-1.58,4.21-2.34,6.33-.26.75-1.77,3.66-.67,4.12,1.42.59,3.48-1.52,4.33-2.35a14.52,14.52,0,0,1,2.75-2.51c1.35-.73,3.62-.24,4.18,1.24,1.9,5-4.06,8.69-7.89,10.37-.41.19-.06.79.35.61a15.41,15.41,0,0,1,5.28-1.09,13.84,13.84,0,0,1,5.25.42c4,1.39,4.37,8.08,0,9.25-2.1.57-4.49-.17-6.55-.61a16.94,16.94,0,0,0-5.58-.51,11.92,11.92,0,0,0-7.92,4.66,18.92,18.92,0,0,0-2.5,5,3.36,3.36,0,0,0,.78,3.74c.22.25.57-.11.36-.36Z" transform="translate(-0.09 -0.14)"/><path class="cls-1" d="M301.76,256.8c-6.46,1.21-12.22,6.12-15.31,11.81-1.7,3.11-2,6.56-3.08,9.88a64.72,64.72,0,0,1-4.59,10.89c-2,3.72-4.42,7.19-6.68,10.75a19.11,19.11,0,0,0-3.28,9.59c-.27,6.18,2.46,13.06,7.3,17a31.48,31.48,0,0,0,7.47,4.13,46.17,46.17,0,0,0,9.48,3,39.27,39.27,0,0,0,19.62-.51,22.54,22.54,0,0,0,7.95-4,16.88,16.88,0,0,0,5.2-8,36.38,36.38,0,0,0,1.37-11.7,44.52,44.52,0,0,0-1.43-12.07c-.52-1.76-1-3.54-1.66-5.26s-1.61-3.33-2.26-5.06c-1.55-4.08-.34-8.25,0-12.43a15.15,15.15,0,0,0-2.46-10,20.74,20.74,0,0,0-7-6.2,36.36,36.36,0,0,0-4.32-2.06c-.43-.17-.62.53-.19.71,6.05,2.44,12.42,6.86,13.26,13.88.47,3.94-.75,7.82-.77,11.75,0,3.44,1.73,6.2,3,9.27a48.39,48.39,0,0,1,1.62,5,29.11,29.11,0,0,1,1.27,5.75,72.27,72.27,0,0,1,.2,11.49,23.41,23.41,0,0,1-3.23,11.1,16.17,16.17,0,0,1-6.8,5.72c-11.63,5.49-25.9,2.93-36.85-3a20.08,20.08,0,0,1-9.78-14.2,18,18,0,0,1,1.3-10.84c1.6-3.34,4-6.36,5.95-9.51a59.25,59.25,0,0,0,8.08-19.47c1.31-6.67,6.23-12.38,12.22-15.46a18.31,18.31,0,0,1,4.54-1.66c.2,0,.11-.33-.08-.29Z" transform="translate(-0.09 -0.14)"/><path class="cls-1" d="M270.48,317.79a.09.09,0,0,0,0-.18.09.09,0,0,0,0,.18Z" transform="translate(-0.09 -0.14)"/><path class="cls-1" d="M270.09,317.24c-1.3.88,3,2.89,3.62,3.05a6.1,6.1,0,0,0,3-.05,54,54,0,0,0,5.4-1.76.31.31,0,0,0-.16-.59c-2.24.59-4.58,1.95-6.94,2a6.42,6.42,0,0,1-2.77-.73c-.27-.13-2.27-1.52-2-1.71s0-.25-.14-.18Z" transform="translate(-0.09 -0.14)"/><path class="cls-1" d="M320.85,282.85c-2.84,1.79-5.45,1.76-8.52.54-.28-.11-.47.36-.21.49,2.9,1.43,6.43,1.47,8.95-.75a.18.18,0,0,0-.22-.28Z" transform="translate(-0.09 -0.14)"/><path class="cls-1" d="M306,326.35c-1.75,1.82-4.92,1.9-4.64,5,.27,3,3,4.05,5.53,2.89,2.35-1.07,5.21-4.09,3.46-6.82-1.54-2.4-5.11-.35-7,.48-.3.13-.09.62.22.52,1.6-.53,4.47-2.47,6-1,2.47,2.45-1.38,5.88-3.63,6.58a2.94,2.94,0,0,1-3.74-1.45,3.1,3.1,0,0,1,.27-3.45c1.1-1.06,2.78-1.41,3.68-2.69.07-.09-.08-.2-.15-.12Z" transform="translate(-0.09 -0.14)"/><path class="cls-1" d="M308.54,257a2,2,0,0,0-1.43-.51,9.71,9.71,0,0,0-1.08.17,6.09,6.09,0,0,1-2.22-.15,7.65,7.65,0,0,0-4.9,1c-.25.13-.08.57.2.47a8.89,8.89,0,0,1,5-.82,5.9,5.9,0,0,0,1.39.13c1-.09,1.88-.6,2.87,0,.15.1.34-.14.2-.27Z" transform="translate(-0.09 -0.14)"/><path class="cls-1" d="M324,108.62a8.71,8.71,0,0,1,.12,8.63c-1.18,2.18-3.15,3.72-4.13,6a14.05,14.05,0,0,0,.2,10.84,13.22,13.22,0,0,0,9.19,7.6,36.67,36.67,0,0,0,16.64.09c4.3-.92,9-2.72,11.38-6.68,2.51-4.19.63-9.81-1.39-13.83-.95-1.87-2.37-3.43-3.37-5.27a4.28,4.28,0,0,1-.47-3.73,2.79,2.79,0,0,1,1.24-1.66c.82-.48,1.38-.18,2.25.08a28,28,0,0,0,14.66.29,18,18,0,0,0,9.8-5.49c2.76-3.24,3.92-7.57,4.16-11.76A36.12,36.12,0,0,0,381.16,78c-2-4.79-4.65-9.37-9.25-12.07a48,48,0,0,0-15-5.25,57.26,57.26,0,0,0-15.41-.79A66.32,66.32,0,0,0,312,69.94c-4.06,2.54-7.95,5.24-10.5,9.38-1.2,2-2.78,3.18-3.26,5.54a25.17,25.17,0,0,0-.56,8.16,24.21,24.21,0,0,0,5,12c3.28,3.87,8.08,4.54,12.9,4.28,2.84-.15,5.66-.5,8.51-.39.53,0,.53-.79,0-.81-5.34-.22-11,1.46-16.21-.37-4.38-1.56-6.79-5.89-8.2-10.05a21.57,21.57,0,0,1-1.34-7.09,28,28,0,0,1,.45-4.38A8.68,8.68,0,0,1,300,82.6c.54-.79,1.24-1.47,1.8-2.25.72-1,1.25-2.08,2.06-3a27,27,0,0,1,5.37-4.58c16.65-11.51,37.9-16,57.15-8.5a25.94,25.94,0,0,1,7.41,4,20.13,20.13,0,0,1,4.61,5.88,40.56,40.56,0,0,1,5,15.3c.46,4.71-.09,9.89-2.64,14a15.56,15.56,0,0,1-8.82,6.41,27.08,27.08,0,0,1-14.31.69c-1-.25-2.33-1-3.36-.94a3.28,3.28,0,0,0-1.79.84,4.83,4.83,0,0,0-1.24,4.39c.42,1.81,1.8,3.41,2.85,4.9a22.68,22.68,0,0,1,2.95,6.42c.79,2.57,1.28,5.47.1,8A11.31,11.31,0,0,1,352,139c-4.59,2.41-10.23,3.09-15.34,2.95-4.91-.14-10.53-.92-13.88-4.9a13.69,13.69,0,0,1-2.85-11.39,12.88,12.88,0,0,1,3-5.73,10.7,10.7,0,0,0,2.72-5.6,8.94,8.94,0,0,0-1.32-5.88.17.17,0,0,0-.29.17Z" transform="translate(-0.09 -0.14)"/><path class="cls-1" d="M324.17,109.6a.18.18,0,0,0,0-.35.18.18,0,0,0,0,.35Z" transform="translate(-0.09 -0.14)"/><path class="cls-1" d="M354.38,110.1a21.72,21.72,0,0,0,10.25-3.37c2.57-1.61,5.45-4.19,5.53-7.47,0-.3-.48-.38-.53-.07-1.08,6.56-9.36,10-15.25,10.57-.21,0-.22.35,0,.34Z" transform="translate(-0.09 -0.14)"/><path class="cls-1" d="M316.38,108.75c-1,0-1.52.28-2.15-.6a11.67,11.67,0,0,1-1.94-5.68c-.05-.4-.68-.41-.64,0a14.12,14.12,0,0,0,.73,3.53,11.56,11.56,0,0,0,.84,1.69,5.76,5.76,0,0,0,1,1.55,2.11,2.11,0,0,0,2.24-.27.13.13,0,0,0-.09-.22Z" transform="translate(-0.09 -0.14)"/><path class="cls-1" d="M323,104.33a6.51,6.51,0,0,0,1.61,5.5c.24.28.62-.12.4-.39a7.21,7.21,0,0,1-1.81-5.09.1.1,0,0,0-.2,0Z" transform="translate(-0.09 -0.14)"/><path class="cls-1" d="M498.14,256c1.09-2.85,2.82-5.54,3.18-8.61.47-4.12,1.71-8.21,2.65-12.24a.26.26,0,0,0-.25-.33c-1.24-.12-2.88-.61-4,.23-1.3,1-.84,3.16-.69,4.52a61.76,61.76,0,0,1,.48,7.32,27.2,27.2,0,0,1-1.37,7.68c-1.4,4.58-4.24,9.34-9.16,10.68-2.56.69-5.23.15-7.82,0a39.81,39.81,0,0,0-7.64.24,29.13,29.13,0,0,0-20.84,12.74c-4.6,6.93-5.74,15.71-5.35,23.87a24.42,24.42,0,0,0,3,11.36,15.61,15.61,0,0,0,3.45,4.14c1.46,1.19,3.11,2.12,4.64,3.22a12,12,0,0,1,2.2,1.88,12.41,12.41,0,0,1,1.61,2.81,38.87,38.87,0,0,0,3.09,5.76,9.49,9.49,0,0,0,4.25,3.61,13.2,13.2,0,0,0,6.27.48,10.88,10.88,0,0,0,7.2-4c.77-.93,1.45-1.95,2.26-2.85a9.37,9.37,0,0,1,5-2.91c2.21-.51,4.49-.63,6.59-1.54a23,23,0,0,0,5.41-3.67c3.35-2.81,7.06-5.07,9.45-8.83a26.46,26.46,0,0,0,3.63-12.11,37.35,37.35,0,0,0-1.27-14.76c-1.35-4.16-2.29-8.56-5.53-11.72-1.51-1.47-3.23-2.72-4.78-4.16a18.78,18.78,0,0,1-4-5.52,13.2,13.2,0,0,1-1.43-7.35c.05-.46-.67-.45-.72,0-.43,4.17,1.32,8.24,3.88,11.47s6.34,4.95,8.5,8.36a26.1,26.1,0,0,1,2.57,6.45,50.56,50.56,0,0,1,1.88,6.92A41.07,41.07,0,0,1,514.1,304a20.89,20.89,0,0,1-6.1,11c-1.63,1.48-3.53,2.66-5.21,4.08a29.87,29.87,0,0,1-5.53,4c-3.7,1.9-8.25,1.08-11.52,4-1.76,1.55-2.83,3.73-4.6,5.27-2.79,2.44-7.29,3-10.78,2-4.4-1.29-6.09-6.48-7.95-10.15-1.66-3.28-4.87-4.71-7.71-6.82-3.19-2.38-5.11-6.2-6-10a39.91,39.91,0,0,1-.52-12.34,37.49,37.49,0,0,1,2.7-12.24,28.31,28.31,0,0,1,18.77-16,42.93,42.93,0,0,1,14.34-.75,13.59,13.59,0,0,0,6.3-.66,12.38,12.38,0,0,0,4.48-3.22c2.9-3.21,4.15-7.49,5-11.64a25.71,25.71,0,0,0,.21-7,62.61,62.61,0,0,1-.53-6.27c.06-2.75,2.38-2.18,4.31-2l-.25-.33a109,109,0,0,0-2.5,11.55,17.58,17.58,0,0,1-1.24,4.89c-.61,1.49-1.29,3-1.83,4.48,0,.15.18.21.24.07Z" transform="translate(-0.09 -0.14)"/><path class="cls-1" d="M501,248.3a8.06,8.06,0,0,1,4.24,1.24c2.31,1.4,2.6,3.25,2.58,5.77a6.58,6.58,0,0,0,1.14,4.45,11.68,11.68,0,0,0,3.92,3c3.65,1.94,7.57,3.77,11.78,3.85a22.89,22.89,0,0,0,6.73-1c2.44-.69,4.9-1.79,7.46-1.06a.35.35,0,0,0,.44-.33c.29-3.3-1.14-6.46-2.47-9.4s-2.31-5.63-4.94-7.58c-5.21-3.87-12.53-3.12-18.45-1.59-1.95.5-3.82,1.26-5.79,1.7a18.72,18.72,0,0,1-6.55.14c-.38,0-.47.6-.09.67a16.85,16.85,0,0,0,6.05,0c2.06-.37,4-1.15,6-1.71a31.61,31.61,0,0,1,12-1.18,12,12,0,0,1,9.85,6.85c1.62,3.78,4.1,7.79,3.73,12l.44-.33a10.38,10.38,0,0,0-6,.51,28.39,28.39,0,0,1-7.39,1.5c-4.72.16-9.38-1.91-13.37-4.27-1.85-1.09-3.56-2.53-3.76-4.8-.16-1.78.27-3.72-.56-5.39a7.14,7.14,0,0,0-3.5-3A6,6,0,0,0,501,248a.15.15,0,0,0,0,.29Z" transform="translate(-0.09 -0.14)"/><path class="cls-1" d="M508.5,248.5c2.78-.21,5,1.38,6.94,3.21a15.33,15.33,0,0,0,4.71,3.21,8.49,8.49,0,0,0,5.16.77,5.67,5.67,0,0,0,3.61-3.14.29.29,0,0,0-.5-.29c-1.25,1.7-2.57,3.05-4.84,2.89a12,12,0,0,1-5.64-2.17c-3-2-5.39-5.61-9.49-4.81-.18,0-.14.35.05.33Z" transform="translate(-0.09 -0.14)"/><path class="cls-1" d="M367.9,192.12a3.85,3.85,0,0,0,3.36,3.6c2.07.25,3.74-1.39,4.72-3a.76.76,0,0,0-1.31-.76,4.49,4.49,0,0,1-2.57,2.27,2.31,2.31,0,0,1-2.68-2.08c-.06-1-1.58-1-1.52,0Z" transform="translate(-0.09 -0.14)"/><path class="cls-1" d="M220.77,281.29a3.84,3.84,0,0,0,3.35,3.6c2.07.25,3.75-1.39,4.73-3a.76.76,0,0,0-1.31-.77,4.52,4.52,0,0,1-2.58,2.28,2.3,2.3,0,0,1-2.67-2.08c-.07-1-1.58-1-1.52,0Z" transform="translate(-0.09 -0.14)"/><path class="cls-1" d="M297,292.28a3.84,3.84,0,0,0,3.36,3.59c2.06.26,3.74-1.39,4.72-3a.76.76,0,0,0-1.31-.76,4.51,4.51,0,0,1-2.57,2.27,2.3,2.3,0,0,1-2.68-2.07c-.06-1-1.58-1-1.52,0Z" transform="translate(-0.09 -0.14)"/><path class="cls-1" d="M274.46,201.36a3.85,3.85,0,0,0,3.36,3.6c2.07.25,3.74-1.39,4.72-3a.76.76,0,0,0-1.31-.77,4.48,4.48,0,0,1-2.57,2.27,2.3,2.3,0,0,1-2.68-2.07c-.06-1-1.58-1-1.52,0Z" transform="translate(-0.09 -0.14)"/><path class="cls-1" d="M208.26,128.14a3.85,3.85,0,0,0,3.36,3.6c2.06.25,3.74-1.39,4.72-3a.76.76,0,0,0-1.31-.77,4.48,4.48,0,0,1-2.57,2.27,2.3,2.3,0,0,1-2.68-2.07c-.06-1-1.58-1-1.52,0Z" transform="translate(-0.09 -0.14)"/><path class="cls-1" d="M392.83,308.75a3.85,3.85,0,0,0,3.36,3.6c2.07.25,3.74-1.39,4.73-3a.76.76,0,0,0-1.32-.77,4.42,4.42,0,0,1-2.57,2.27,2.3,2.3,0,0,1-2.68-2.07c-.06-1-1.58-1-1.52,0Z" transform="translate(-0.09 -0.14)"/><path class="cls-1" d="M480.7,283.12a3.84,3.84,0,0,0,3.36,3.6c2.06.25,3.74-1.39,4.72-3a.76.76,0,0,0-1.31-.76,4.55,4.55,0,0,1-2.57,2.27,2.31,2.31,0,0,1-2.68-2.08c-.06-1-1.58-1-1.52,0Z" transform="translate(-0.09 -0.14)"/><path class="cls-1" d="M422.27,119.72a3.84,3.84,0,0,0,3.35,3.6c2.07.25,3.75-1.39,4.73-3a.76.76,0,0,0-1.31-.77,4.47,4.47,0,0,1-2.58,2.27,2.3,2.3,0,0,1-2.68-2.07c-.06-1-1.58-1-1.51,0Z" transform="translate(-0.09 -0.14)"/><path class="cls-1" d="M556.36,244.68a3.85,3.85,0,0,0,3.36,3.6c2.07.25,3.74-1.39,4.72-3a.76.76,0,0,0-1.31-.77,4.48,4.48,0,0,1-2.57,2.27,2.3,2.3,0,0,1-2.68-2.07c-.06-1-1.58-1-1.52,0Z" transform="translate(-0.09 -0.14)"/><path class="cls-1" d="M335.48,130.58a3.85,3.85,0,0,0,3.36,3.6c2.06.25,3.74-1.39,4.72-3a.76.76,0,0,0-1.31-.77,4.48,4.48,0,0,1-2.57,2.27,2.3,2.3,0,0,1-2.68-2.07c-.06-1-1.58-1-1.52,0Z" transform="translate(-0.09 -0.14)"/><path class="cls-1" d="M558.19,146.45a3.84,3.84,0,0,0,3.36,3.59c2.07.26,3.74-1.39,4.72-3a.76.76,0,0,0-1.31-.76,4.55,4.55,0,0,1-2.57,2.27,2.3,2.3,0,0,1-2.68-2.07c-.06-1-1.58-1-1.52,0Z" transform="translate(-0.09 -0.14)"/><path class="cls-1" d="M495.49,92.87a3.84,3.84,0,0,0,3.35,3.6c2.07.26,3.75-1.39,4.73-3a.76.76,0,0,0-1.31-.76A4.54,4.54,0,0,1,499.68,95,2.3,2.3,0,0,1,497,92.87c-.07-1-1.59-1-1.52,0Z" transform="translate(-0.09 -0.14)"/><path class="cls-1" d="M473.46,195a3.85,3.85,0,0,0,3.36,3.6c2.07.25,3.74-1.39,4.72-3a.76.76,0,0,0-1.31-.77,4.48,4.48,0,0,1-2.57,2.27A2.3,2.3,0,0,1,475,195c-.06-1-1.58-1-1.52,0Z" transform="translate(-0.09 -0.14)"/><path class="cls-1" d="M43.82,106.57a3.84,3.84,0,0,0,3.36,3.59c2.06.26,3.74-1.39,4.72-3a.76.76,0,0,0-1.31-.76A4.54,4.54,0,0,1,48,108.64a2.3,2.3,0,0,1-2.67-2.07c-.06-1-1.58-1-1.52,0Z" transform="translate(-0.09 -0.14)"/><path class="cls-1" d="M33.59,183.79a3.85,3.85,0,0,0,3.36,3.6c2.06.25,3.74-1.39,4.72-3a.76.76,0,0,0-1.31-.77,4.48,4.48,0,0,1-2.57,2.27,2.3,2.3,0,0,1-2.68-2.07c-.06-1-1.58-1-1.52,0Z" transform="translate(-0.09 -0.14)"/><path class="cls-1" d="M34.81,291.18a3.85,3.85,0,0,0,3.36,3.6c2.06.25,3.74-1.39,4.72-3a.76.76,0,0,0-1.31-.77A4.48,4.48,0,0,1,39,293.25a2.3,2.3,0,0,1-2.68-2.07c-.06-1-1.58-1-1.52,0Z" transform="translate(-0.09 -0.14)"/><path class="cls-1" d="M129.24,306.09a3.85,3.85,0,0,0,3.36,3.6c2.07.25,3.74-1.39,4.72-3a.76.76,0,0,0-1.31-.77,4.48,4.48,0,0,1-2.57,2.27,2.3,2.3,0,0,1-2.68-2.07c-.06-1-1.58-1-1.52,0Z" transform="translate(-0.09 -0.14)"/><path class="cls-1" d="M131.83,101.42a3.84,3.84,0,0,0,3.35,3.6c2.07.25,3.74-1.4,4.73-3a.76.76,0,0,0-1.32-.76,4.45,4.45,0,0,1-2.57,2.27,2.31,2.31,0,0,1-2.68-2.07c-.06-1-1.58-1-1.51,0Z" transform="translate(-0.09 -0.14)"/><path class="cls-1" d="M122.1,203.21a3.84,3.84,0,0,0,3.36,3.59c2.07.26,3.74-1.39,4.72-3a.76.76,0,0,0-1.31-.76,4.49,4.49,0,0,1-2.57,2.27,2.31,2.31,0,0,1-2.68-2.07c-.06-1-1.58-1-1.52,0Z" transform="translate(-0.09 -0.14)"/><path class="cls-1" d="M44,102.46a3.63,3.63,0,0,1,2.43,1.13c0-.12,0-.23,0-.35a2.32,2.32,0,0,0-4.63,0,1.66,1.66,0,0,0,0,.32A4,4,0,0,1,44,102.46Z" transform="translate(-0.09 -0.14)"/><path class="cls-1" d="M421,114.26a3.66,3.66,0,0,1,2.43,1.12,1.87,1.87,0,0,0,0-.34,2.32,2.32,0,1,0-4.63,0c0,.11,0,.22,0,.32A4,4,0,0,1,421,114.26Z" transform="translate(-0.09 -0.14)"/><path class="cls-1" d="M402,304.44a3.64,3.64,0,0,1,2.43,1.12,2,2,0,0,0,0-.34,2.32,2.32,0,1,0-4.63,0c0,.11,0,.21,0,.32A4,4,0,0,1,402,304.44Z" transform="translate(-0.09 -0.14)"/><path class="cls-1" d="M393.18,303.83a3.62,3.62,0,0,1,2.43,1.12,2,2,0,0,0,0-.34,2.32,2.32,0,1,0-4.63,0,1.73,1.73,0,0,0,0,.32A3.94,3.94,0,0,1,393.18,303.83Z" transform="translate(-0.09 -0.14)"/><path class="cls-1" d="M376.71,187.59a3.66,3.66,0,0,1,2.43,1.12,1.87,1.87,0,0,0,0-.34,2.32,2.32,0,1,0-4.63,0c0,.11,0,.22,0,.32A4,4,0,0,1,376.71,187.59Z" transform="translate(-0.09 -0.14)"/><path class="cls-1" d="M367.17,187.26a3.67,3.67,0,0,1,2.44,1.12c0-.11,0-.22,0-.34a2.32,2.32,0,1,0-4.63,0,1.66,1.66,0,0,0,0,.32A3.94,3.94,0,0,1,367.17,187.26Z" transform="translate(-0.09 -0.14)"/><path class="cls-1" d="M343.07,125.33a3.62,3.62,0,0,1,2.43,1.12,2,2,0,0,0,0-.34,2.32,2.32,0,1,0-4.63,0,1.73,1.73,0,0,0,0,.32A3.94,3.94,0,0,1,343.07,125.33Z" transform="translate(-0.09 -0.14)"/><path class="cls-1" d="M335.75,125a3.64,3.64,0,0,1,2.43,1.12,1.87,1.87,0,0,0,0-.34,2.32,2.32,0,0,0-4.63,0c0,.11,0,.22,0,.32A4.08,4.08,0,0,1,335.75,125Z" transform="translate(-0.09 -0.14)"/><path class="cls-1" d="M304.94,287.94a3.66,3.66,0,0,1,2.43,1.12,2,2,0,0,0,0-.34,2.32,2.32,0,1,0-4.63,0c0,.11,0,.21,0,.32A4,4,0,0,1,304.94,287.94Z" transform="translate(-0.09 -0.14)"/><path class="cls-1" d="M296.92,288a3.65,3.65,0,0,1,2.43,1.13,2.07,2.07,0,0,0,0-.35,2.32,2.32,0,0,0-4.63,0c0,.11,0,.22,0,.33A4.09,4.09,0,0,1,296.92,288Z" transform="translate(-0.09 -0.14)"/><path class="cls-1" d="M282.89,196.12a3.67,3.67,0,0,1,2.43,1.13,2.07,2.07,0,0,0,0-.35,2.32,2.32,0,0,0-4.63,0,1.83,1.83,0,0,0,0,.33A4,4,0,0,1,282.89,196.12Z" transform="translate(-0.09 -0.14)"/><path class="cls-1" d="M273.73,196.12a3.68,3.68,0,0,1,2.44,1.13c0-.12,0-.23,0-.35a2.32,2.32,0,0,0-4.63,0,1.84,1.84,0,0,0,0,.33A4,4,0,0,1,273.73,196.12Z" transform="translate(-0.09 -0.14)"/><path class="cls-1" d="M216.68,123.51a3.63,3.63,0,0,1,2.43,1.13,2.07,2.07,0,0,0,0-.35,2.32,2.32,0,0,0-4.63,0,1.84,1.84,0,0,0,0,.33A4,4,0,0,1,216.68,123.51Z" transform="translate(-0.09 -0.14)"/><path class="cls-1" d="M207.08,123.22a3.64,3.64,0,0,1,2.43,1.12,2,2,0,0,0,0-.34,2.32,2.32,0,1,0-4.63,0c0,.11,0,.21,0,.32A4,4,0,0,1,207.08,123.22Z" transform="translate(-0.09 -0.14)"/><path class="cls-1" d="M228.44,277.89a3.67,3.67,0,0,1,2.43,1.13,2,2,0,0,0,0-.35,2.32,2.32,0,0,0-4.63,0c0,.11,0,.22,0,.33A4.05,4.05,0,0,1,228.44,277.89Z" transform="translate(-0.09 -0.14)"/><path class="cls-1" d="M221.26,277.27a3.67,3.67,0,0,1,2.43,1.13,2,2,0,0,0,0-.34,2.32,2.32,0,1,0-4.63,0c0,.11,0,.21,0,.32A4.09,4.09,0,0,1,221.26,277.27Z" transform="translate(-0.09 -0.14)"/><path class="cls-1" d="M137.83,300.47a3.66,3.66,0,0,1,2.43,1.12,1.87,1.87,0,0,0,0-.34,2.32,2.32,0,0,0-4.63,0c0,.11,0,.22,0,.32A4,4,0,0,1,137.83,300.47Z" transform="translate(-0.09 -0.14)"/><path class="cls-1" d="M129.12,299.85a3.63,3.63,0,0,1,2.44,1.13c0-.12,0-.23,0-.35a2.32,2.32,0,0,0-4.63,0,1.66,1.66,0,0,0,0,.32A4,4,0,0,1,129.12,299.85Z" transform="translate(-0.09 -0.14)"/><path class="cls-1" d="M42.48,285.82a3.66,3.66,0,0,1,2.43,1.12,2,2,0,0,0,0-.34,2.32,2.32,0,1,0-4.63,0c0,.11,0,.21,0,.32A4,4,0,0,1,42.48,285.82Z" transform="translate(-0.09 -0.14)"/><path class="cls-1" d="M35.46,285.82a3.62,3.62,0,0,1,2.43,1.12,2,2,0,0,0,0-.34,2.32,2.32,0,1,0-4.63,0,1.73,1.73,0,0,0,0,.32A3.94,3.94,0,0,1,35.46,285.82Z" transform="translate(-0.09 -0.14)"/><path class="cls-1" d="M129.69,197.76a3.64,3.64,0,0,1,2.43,1.12,1.87,1.87,0,0,0,0-.34,2.32,2.32,0,1,0-4.63,0c0,.11,0,.22,0,.32A4,4,0,0,1,129.69,197.76Z" transform="translate(-0.09 -0.14)"/><path class="cls-1" d="M121.48,197.33a3.66,3.66,0,0,1,2.43,1.12,2,2,0,0,0,0-.34,2.32,2.32,0,1,0-4.63,0c0,.11,0,.21,0,.32A4,4,0,0,1,121.48,197.33Z" transform="translate(-0.09 -0.14)"/><path class="cls-1" d="M40.94,178.61a3.67,3.67,0,0,1,2.43,1.13,2,2,0,0,0,0-.35,2.32,2.32,0,0,0-4.63,0c0,.11,0,.22,0,.33A4.05,4.05,0,0,1,40.94,178.61Z" transform="translate(-0.09 -0.14)"/><path class="cls-1" d="M34,178.61a3.63,3.63,0,0,1,2.43,1.13,2,2,0,0,0,0-.35,2.32,2.32,0,0,0-4.63,0,1.84,1.84,0,0,0,0,.33A4,4,0,0,1,34,178.61Z" transform="translate(-0.09 -0.14)"/><path class="cls-1" d="M140,95.22a3.67,3.67,0,0,1,2.43,1.13,2,2,0,0,0,0-.35,2.32,2.32,0,0,0-4.63,0c0,.11,0,.22,0,.33A4.09,4.09,0,0,1,140,95.22Z" transform="translate(-0.09 -0.14)"/><path class="cls-1" d="M130.84,95.22a3.67,3.67,0,0,1,2.43,1.13c0-.11,0-.23,0-.35a2.32,2.32,0,0,0-4.64,0,1.84,1.84,0,0,0,0,.33A4,4,0,0,1,130.84,95.22Z" transform="translate(-0.09 -0.14)"/><path class="cls-1" d="M51.92,102.34a3.65,3.65,0,0,1,2.43,1.13,2.07,2.07,0,0,0,0-.35,2.32,2.32,0,0,0-4.63,0c0,.11,0,.22,0,.33A4.09,4.09,0,0,1,51.92,102.34Z" transform="translate(-0.09 -0.14)"/><path class="cls-1" d="M556.48,240.51a3.67,3.67,0,0,1,2.43,1.13,2.07,2.07,0,0,0,0-.35,2.32,2.32,0,0,0-4.63,0c0,.11,0,.22,0,.33A4.09,4.09,0,0,1,556.48,240.51Z" transform="translate(-0.09 -0.14)"/><path class="cls-1" d="M565.84,142.48a3.66,3.66,0,0,1,2.43,1.12c0-.11,0-.22,0-.34a2.32,2.32,0,1,0-4.64,0,1.66,1.66,0,0,0,0,.32A3.94,3.94,0,0,1,565.84,142.48Z" transform="translate(-0.09 -0.14)"/><path class="cls-1" d="M558.72,142.27a3.67,3.67,0,0,1,2.43,1.13,2,2,0,0,0,0-.34,2.32,2.32,0,1,0-4.63,0c0,.11,0,.21,0,.32A4.05,4.05,0,0,1,558.72,142.27Z" transform="translate(-0.09 -0.14)"/><path class="cls-1" d="M481.63,189.26a3.62,3.62,0,0,1,2.43,1.12,1.87,1.87,0,0,0,0-.34,2.32,2.32,0,1,0-4.63,0,1.66,1.66,0,0,0,0,.32A3.94,3.94,0,0,1,481.63,189.26Z" transform="translate(-0.09 -0.14)"/><path class="cls-1" d="M472.28,188.85a3.63,3.63,0,0,1,2.43,1.13c0-.12,0-.23,0-.35a2.32,2.32,0,0,0-4.63,0,1.67,1.67,0,0,0,0,.32A4,4,0,0,1,472.28,188.85Z" transform="translate(-0.09 -0.14)"/><path class="cls-1" d="M504.21,88a3.66,3.66,0,0,1,2.43,1.12,1.87,1.87,0,0,0,0-.34,2.32,2.32,0,1,0-4.63,0c0,.11,0,.22,0,.32A4.08,4.08,0,0,1,504.21,88Z" transform="translate(-0.09 -0.14)"/><path class="cls-1" d="M495.67,87.56a3.67,3.67,0,0,1,2.43,1.13c0-.12,0-.23,0-.35a2.32,2.32,0,0,0-4.64,0,1.84,1.84,0,0,0,0,.33A4,4,0,0,1,495.67,87.56Z" transform="translate(-0.09 -0.14)"/><path class="cls-1" d="M430.65,114.05a3.67,3.67,0,0,1,2.43,1.13,2,2,0,0,0,0-.35,2.32,2.32,0,0,0-4.63,0c0,.11,0,.22,0,.33A4.09,4.09,0,0,1,430.65,114.05Z" transform="translate(-0.09 -0.14)"/><path class="cls-1" d="M489.46,278a3.62,3.62,0,0,1,2.43,1.12,1.87,1.87,0,0,0,0-.34,2.32,2.32,0,0,0-4.63,0,1.66,1.66,0,0,0,0,.32A4,4,0,0,1,489.46,278Z" transform="translate(-0.09 -0.14)"/><path class="cls-1" d="M481.73,277.82a3.67,3.67,0,0,1,2.44,1.12c0-.11,0-.23,0-.34a2.32,2.32,0,1,0-4.63,0,1.73,1.73,0,0,0,0,.32A3.94,3.94,0,0,1,481.73,277.82Z" transform="translate(-0.09 -0.14)"/><path class="cls-1" d="M564.11,240.8a3.66,3.66,0,0,1,2.43,1.12,1.87,1.87,0,0,0,0-.34,2.32,2.32,0,0,0-4.63,0,1.67,1.67,0,0,0,0,.32A4,4,0,0,1,564.11,240.8Z" transform="translate(-0.09 -0.14)"/></g></g></svg>