<?xml version="1.0" encoding="utf-8"?>
<!-- Generator: Adobe Illustrator 23.0.1, SVG Export Plug-In . SVG Version: 6.00 Build 0)  -->
<svg version="1.1" xmlns="http://www.w3.org/2000/svg" xmlns:xlink="http://www.w3.org/1999/xlink" x="0px" y="0px"
	 viewBox="0 0 1920 1080" style="enable-background:new 0 0 1920 1080;" xml:space="preserve">
<style type="text/css">
	.st0{fill:#F7A33E;}
	.st1{fill:#671949;}
	.st2{fill:#CDC9B7;}
	.st3{fill:#B4A041;}
	.st4{fill:#35A7B4;}
	.st5{fill:#336267;}
	.st6{fill:#B4A046;}
	.st7{fill:#FFFFFF;}
	.st8{fill:none;stroke:#226494;stroke-width:0.25;stroke-miterlimit:10;}
	.st9{fill:none;stroke:#000000;stroke-width:0.5;stroke-linecap:round;stroke-linejoin:round;}
	.st10{fill:none;stroke:#000000;stroke-width:0.25;stroke-miterlimit:10;}
	.st11{fill:none;stroke:#000000;stroke-width:0.25;stroke-linecap:round;stroke-linejoin:round;}
	.st12{fill:none;stroke:#164161;stroke-width:0.25;stroke-miterlimit:10;}
</style>
<g id="Warstwa_1">
	<g id="XMLID_1_">
		<g>
			<path class="st0" d="M1345.6,588.9c-0.4-0.6-0.9-1.3-1.4-2l0,0l-11.5-17c17.9,12.5,57.8,39.1,71.5,55.7
				c12.3,14.9,20.8,33.3,20.4,52c0,2.2-0.2,4.3-0.5,6.5c-4,29.6-30.3,52-56.9,68c-53.4,32-118.3,53-153,103
				c-9.1,13.2-15.8,28.5-14.7,44.2c1.9,25.7,24,45.8,46.6,60.2c51.6,32.9,112.8,50.3,174.3,59.4c61.5,9,124,10.2,186.2,13.3
				c104.8,5.3,209,16.2,313.1,28.7l0,22.2H1.2L1,1039.2h0.2c173.2-90.2,369.7-140.3,567.4-143.8c71.3-1.3,146,2.7,210.3-26.7
				c35.5-16.3,65.1-41.7,98.2-62c47.5-29.1,102.2-47.6,158.4-53.3c39.8-4.1,80-1.9,119.8-5.6c43.6-4.1,86.5-15.2,126.2-32.9
				c21.2-9.4,46.1-20.2,60.2-37.1c5-6,8.7-12.7,10.4-20.4C1357.6,632.8,1362.6,613.8,1345.6,588.9z"/>
			<path class="st1" d="M1540.8,687.7l11.9,1l334.6,28.9l32.2,18.9l0.4,324.5c-104.1-12.4-208.4-23.4-313.1-28.7
				c-62.2-3.1-124.6-4.3-186.2-13.3c-61.5-9-122.7-26.4-174.3-59.4c-22.6-14.4-44.7-34.5-46.6-60.2c-1.2-15.7,5.5-31.1,14.7-44.2
				c34.7-50,99.6-71,153-103c26.7-16,52.9-38.3,56.9-68c0.3-2.2,0.5-4.3,0.5-6.5L1540.8,687.7z"/>
			<polygon class="st2" points="1549.9,682.8 1487.6,549.5 1501.2,442.8 1500.6,441.7 1450.3,360 1564.2,213 1780.6,317.9 
				1905.5,560.9 1919.3,579.3 1919.5,736.4 1887.3,717.6 1552.7,688.7 			"/>
			<polygon class="st3" points="1564.2,213 1450.3,360 1330.2,428.2 1291.4,511.8 1287.2,507.4 1326.4,424.6 1446.7,354.2 
				1560.3,211.2 			"/>
			<polygon class="st4" points="1560.3,211.2 1446.7,354.2 1326.4,424.6 1287.2,507.4 1281.3,501.1 1222.5,438.9 1221.9,438.2 
				1194.8,395.2 1308.2,329.2 1439.9,290.6 			"/>
			<polygon class="st5" points="1549.9,682.8 1552.7,688.7 1540.8,687.7 			"/>
			<path class="st5" d="M1500.6,441.7l0.7,1.1l-13.6,106.7l62.3,133.3l-9.1,4.9l-116-10c0.4-18.7-8.2-37.2-20.4-52
				c-13.7-16.6-53.6-43.2-71.5-55.7l0,0l-33.7-50l-1.1-1.2l0,0l-2-2.1l-4.7-4.9l38.8-83.6l120.1-68.2L1500.6,441.7z"/>
			<path class="st2" d="M1296.8,586.6l-5.7-24.4l54.5,26.7c16.9,24.8,11.9,43.9,6.5,68.5c-1.7,7.7-5.4,14.4-10.4,20.4l-67.8,4.3
				l-0.1-2c-2-11.9-4-23.8-6-35.7c-2.7-16.2-8.4-33-2.2-48.8c1.8-4.6,3.7-9.2,5.6-13.8l0.6,0.1l0.8,0.2L1296.8,586.6z"/>
			<path class="st2" d="M1344.3,587c0.5,0.7,0.9,1.3,1.4,2l-54.5-26.7l-4.1-17.6l10.2-25l0.8-0.7l0,0l1.1,1.2l33.7,50l0,0
				L1344.3,587L1344.3,587z"/>
			<path class="st1" d="M1129.3,691.1l144.6-9.1l67.8-4.3c-14.2,16.8-39,27.7-60.2,37.1c-39.7,17.6-82.6,28.8-126.2,32.9
				c-39.8,3.7-80.1,1.5-119.8,5.6c-56.2,5.8-111,24.2-158.4,53.3c-33.1,20.3-62.8,45.7-98.2,62c-64.2,29.4-138.9,25.5-210.3,26.7
				c-197.7,3.5-394.2,53.6-567.4,143.8H1L0,812.8l143.2-38.4l370.6,1.6l76.7,0.3l59.1,0.3l6.9,0l152.2-43.2l161.3-32.3l90-5.7
				l14.9-0.9l29.3-1.8L1129.3,691.1z"/>
			<path class="st2" d="M1296,516.7l2,2.1l-0.8,0.7c-3.4,8.2-6.9,16.4-10.3,24.6l-1.7-7.1l5.2-10.9L1296,516.7z"/>
			<path class="st2" d="M1297.2,519.5l-10.2,25l-0.1-0.4C1290.4,535.9,1293.8,527.8,1297.2,519.5z"/>
			<polygon class="st2" points="1291.1,562.2 1296.8,586.6 1272.5,582 1272.8,579.3 1281.7,557.5 			"/>
			<polygon class="st2" points="1290.4,526.1 1284.9,535.4 1279.4,512 1280.4,502 1281.3,501.1 1287.2,507.4 1291.4,511.8 
				1296,516.7 1296,516.7 			"/>
			<polygon class="st2" points="1287,544.6 1291.1,562.2 1281.7,557.5 			"/>
			<polygon class="st2" points="1284.9,535.4 1290.4,526.1 1285.2,537 			"/>
			<path class="st2" d="M1286.9,544.1l0.1,0.4l-5.3,13l-0.4-0.2C1283.2,553,1285,548.5,1286.9,544.1z"/>
			<path class="st2" d="M1285.2,537l1.7,7.1c-1.9,4.4-3.7,8.8-5.6,13.2l-4.7-2.3L1285.2,537z"/>
			<polygon class="st2" points="1284.9,535.4 1285.2,537 1276.6,555.1 1275.2,554.4 1275.6,551 			"/>
			<polygon class="st2" points="1279.4,512 1284.9,535.4 1275.6,551 			"/>
			<path class="st2" d="M1281.7,557.5l-8.9,21.8l0.2-2c2.8-6.7,5.5-13.3,8.3-20L1281.7,557.5z"/>
			<path class="st2" d="M1276.6,555.1l4.7,2.3c-2.8,6.7-5.6,13.3-8.3,20l1.8-18.5L1276.6,555.1z"/>
			<path class="st2" d="M1279.4,512l-3.8,39l-1.7,2.8l-15.3,25.7l5.9,1.1l6.7,1.3c-1.9,4.6-3.7,9.2-5.6,13.8
				c-6.3,15.8-0.6,32.6,2.2,48.8c2,11.9,4,23.8,6,35.7l0.1,2l-144.6,9.1l0.1-0.8l-7.1-18.7l-2.8-7.5c6.3-11.8,12.7-23.5,19-35.3
				c0.6-1.1,1.2-2.2,1.8-3.3c4.9-9.2,18.5-26.2,18.3-36.7c-0.1-3.5-2-7.9-4.3-12.2l17-33.7l50.6-103.3l0.8-0.8l58.7,62.2l-0.9,0.9
				L1279.4,512z"/>
			<polygon class="st2" points="1276.6,555.1 1274.8,558.8 1275.2,554.4 			"/>
			<polygon class="st2" points="1275.6,551 1275.2,554.4 1273.9,553.7 			"/>
			<polygon class="st2" points="1273.9,553.7 1275.2,554.4 1274.8,558.8 1264.4,580.5 1258.6,579.4 			"/>
			<path class="st2" d="M1264.4,580.5l10.4-21.7l-1.8,18.5c-0.6,1.5-1.2,2.9-1.8,4.4L1264.4,580.5z"/>
			<path class="st2" d="M1271.2,581.8c0.6-1.5,1.2-2.9,1.8-4.4l-0.2,2l-1,2.5L1271.2,581.8z"/>
			<polygon class="st2" points="1272.8,579.3 1272.5,582 1271.7,581.9 			"/>
			<path class="st2" d="M1194.8,395.2l27.1,43l0.6,0.7l-0.8,0.8L1171.2,543l-17,33.7c-1.9-3.7-4-7.3-5.2-10.1c-3-6.9-6-13.8-9-20.8
				c-5.9-13.8-11.8-27.7-17.3-41.8c-4.5-11.3,0.5-23.9,2.8-35.7c3.4-17.4,6.9-34.8,10.3-52.2c2.3-11.4,4.5-22.8,6.8-34.3
				c4.8-15.6,9.6-31.2,14.4-46.8L1194.8,395.2z"/>
			<path class="st2" d="M1158.5,588.9c0.2,10.5-13.3,27.5-18.3,36.7c-0.6,1.1-1.2,2.2-1.8,3.3l-4.8-11.3l20.5-40.8
				C1156.4,581,1158.4,585.4,1158.5,588.9z"/>
			<path class="st2" d="M1029.4,383.2l-43.3-153.2l-11.3-90.4l4,3.5l68.1,122.6l109,68.1l0.9,1.4c-4.8,15.6-9.6,31.2-14.4,46.8
				c2.2-11,4.3-22,6.5-32.9l-14.1,57.2c-8.2,24.4-18.5,50.1-20.8,75c-2.5,27.3-6.5,54.5-10.4,81.7l-33.9-16.7l-2.3-2.8l-0.4-14.9
				l-0.2-6.1l-59.8-41.4c0.2-2,0.3-4.1,0.5-6.3C1010.3,442.5,1013,399.9,1029.4,383.2z"/>
			<path class="st2" d="M1135,406.2c1.2-3.6,2.4-7.1,3.5-10.7c1.4-4.5,2.8-9.1,4.2-13.6c-2.3,11.4-4.5,22.9-6.8,34.3
				c-3.4,17.4-6.9,34.8-10.3,52.2c-2.3,11.8-7.3,24.5-2.8,35.7c5.5,14,11.4,27.9,17.3,41.8c3,6.9,6,13.8,9,20.8
				c1.2,2.8,3.3,6.4,5.2,10.1l-20.5,40.8l-18.2,36.1l4,10.5c-0.3,0.5-0.5,1-0.8,1.5l-29.4-48.3l10.8-27.5c0.3-2.3,0.6-4.5,0.9-6.8
				c0.9-6.7,1.8-13.5,2.8-20.2c3.9-27.2,7.9-54.4,10.4-81.7C1116.4,456.3,1126.8,430.6,1135,406.2z"/>
			<path class="st2" d="M1135,406.2l14.1-57.2c-2.2,11-4.3,22-6.5,32.9c-1.4,4.5-2.8,9.1-4.2,13.6
				C1137.3,399.1,1136.2,402.6,1135,406.2z"/>
			<path class="st2" d="M1138.4,628.9c-6.3,11.8-12.7,23.5-19,35.3l-4-10.5l18.2-36.1L1138.4,628.9z"/>
			<path class="st2" d="M1122.3,671.6l7.1,18.7l-0.1,0.8l-25.2,1.6c4.8-9,9.7-18,14.6-27L1122.3,671.6z"/>
			<path class="st2" d="M1119.4,664.2l2.8,7.5l-3.6-6C1118.9,665.2,1119.2,664.7,1119.4,664.2z"/>
			<path class="st2" d="M1085.6,626.7l3.7-9.3l29.4,48.3c-4.8,9-9.7,18-14.6,27l-29.3,1.8l-2.6-1.3l-2.1-27.1L1085.6,626.7z"/>
			<path class="st2" d="M1069.9,546.2l33.9,16.7c-1,6.8-1.9,13.5-2.8,20.2L1069.9,546.2z"/>
			<path class="st2" d="M1069.9,546.2l31.1,36.9c-0.3,2.3-0.6,4.5-0.9,6.8l-10.8,27.5l-20.7-34.1l-0.9-38.3L1069.9,546.2z"/>
			<polygon class="st2" points="1089.3,617.4 1085.6,626.7 1067.9,583.6 1068.6,583.3 			"/>
			<polygon class="st2" points="1085.6,626.7 1070.1,666.1 1068.6,645.6 1060.1,564.5 1067.9,583.6 			"/>
			<polygon class="st2" points="1072.2,693.2 1074.8,694.6 1059.9,695.5 1059.8,692.5 1061.6,687.8 			"/>
			<polygon class="st2" points="1070.1,666.1 1072.2,693.2 1061.6,687.8 			"/>
			<path class="st2" d="M1052.8,546.9l7.3,17.7l8.5,81.1l1.6,20.5l-8.5,21.7l-49.5-25.3l1.9-24.3c7.7-3.6,15.1-7.7,20-14.4
				c7.7-10.7,10.3-28.3,14.1-41.9l0,0l-30.9,14.7l3-39.6l-2.4-3.8c1.1-8.3,2.2-16.5,3.3-24.8c0.3-1.9,0.6-3.9,0.9-5.8l26.2,12.9
				L1052.8,546.9z"/>
			<polygon class="st2" points="1069.9,546.2 1067.6,545.1 1067.6,543.4 			"/>
			<polygon class="st2" points="1067.6,545.1 1068.6,583.3 1067.9,583.6 1060.1,564.5 1057.6,540.8 1058,540.3 			"/>
			<polygon class="st2" points="1067.6,543.4 1067.6,545.1 1058,540.3 1061.3,536 			"/>
			<polygon class="st2" points="1067.2,528.5 1067.6,543.4 1061.3,536 			"/>
			<path class="st2" d="M1031.6,500.7l-24.4-19.4c0-0.1,0-0.2,0-0.3l59.8,41.4l0.2,6.1l-5.9,7.5l-4.9-5.8l-1.1-10.7L1031.6,500.7z"
				/>
			<path class="st2" d="M1061.6,687.8l-1.9,4.7l0.2,3l-90,5.7L957,687l32.6-34.4c6.3-6.6,15.5-10.3,24.4-14.5l-1.9,24.3
				L1061.6,687.8z"/>
			<polygon class="st2" points="1061.3,536 1058,540.3 1057.5,540.1 1056.5,530.2 			"/>
			<polygon class="st2" points="1060.1,564.5 1052.8,546.9 1057.6,540.8 			"/>
			<polygon class="st2" points="1058,540.3 1057.6,540.8 1057.5,540.1 			"/>
			<polygon class="st2" points="1057.5,540.1 1057.6,540.8 1052.8,546.9 1048.1,535.4 			"/>
			<path class="st2" d="M1048.1,535.4l-26.2-12.9c0.9-5.5,1.9-11.1,2-16.5c0.1-4.6-1.2-7.7-3.4-10.2l25.2,21.7l10.7,12.8l1,9.8
				L1048.1,535.4z"/>
			<polygon class="st2" points="1045.8,517.5 1031.6,500.7 1055.4,519.5 1056.5,530.2 			"/>
			<path class="st2" d="M1048,581.8L1048,581.8c-3.8,13.6-6.4,31.2-14.1,41.9c-4.9,6.7-12.2,10.8-20,14.4l3.2-41.6L1048,581.8z"/>
			<path class="st2" d="M1031.6,500.7l14.1,16.8l-25.2-21.7c-2.4-2.9-5.9-5.1-9.7-8.3c-0.7-0.6-1.4-1.2-2.1-1.8l-1.8-1.5
				c0.1-0.9,0.2-1.9,0.3-2.9L1031.6,500.7z"/>
			<path class="st2" d="M951.8,436.9l7.8,6.7l-10.4-8.2L945,432l-3.2-2.6l-0.3,0.2l-51.1-95.8l79.6-118l-65.2-103.7l2.4-1.9l27-6
				l40.7,35.3l11.3,90.4l43.3,153.2c-16.5,16.8-19.1,59.4-21.7,91.6L951.8,436.9z"/>
			<path class="st2" d="M1007,484.2c0.6,0.5,1.2,1,1.8,1.5l11.8,10.1c2.2,2.6,3.5,5.6,3.4,10.2c-0.1,5.4-1.1,11-2,16.5l-9-4.5
				l-53.2-60.8l-9.4-15.6l34.8,24.1C992.3,471.9,999.7,478.1,1007,484.2z"/>
			<path class="st2" d="M1012.8,518.1l9,4.5c-0.3,2-0.6,3.9-0.9,5.8c-1.1,8.3-2.2,16.5-3.3,24.8l-22.9-35.3l-0.3-2.8l-34.8-57.9
				L1012.8,518.1z"/>
			<path class="st2" d="M1020.5,495.8l-11.8-10.1c0.7,0.6,1.4,1.2,2.1,1.8C1014.6,490.7,1018.1,492.9,1020.5,495.8z"/>
			<path class="st2" d="M1017.7,553.2l2.4,3.8l-3,39.6l-5.4,2.6c0.8-5.9,1.5-11.8,2.3-17.8C1015.3,572,1016.5,562.6,1017.7,553.2z"
				/>
			<path class="st2" d="M994.8,517.9l22.9,35.3c-1.2,9.4-2.5,18.8-3.7,28.2c-0.8,5.9-1.6,11.8-2.3,17.8l-8.4,4L994.8,517.9z"/>
			<path class="st2" d="M1011.7,599.1l5.4-2.6l-3.2,41.6c-8.8,4.2-18.1,7.8-24.4,14.5L957,687l-5.3-5.8L940.3,570l4.4-129l50.1,77
				l8.5,85.2L1011.7,599.1z"/>
			<path class="st2" d="M1008.7,485.7c-0.6-0.5-1.2-1-1.8-1.5c0,0,0,0,0,0L1008.7,485.7z"/>
			<path class="st2" d="M951.8,436.9l56,37.9c-0.2,2.1-0.4,4.2-0.5,6.3l-3.1-2.2l-44.5-35.3L951.8,436.9z"/>
			<path class="st2" d="M1007.3,481.1c0,0.1,0,0.2,0,0.3l-3.1-2.5L1007.3,481.1z"/>
			<path class="st2" d="M1004.1,478.9l3.1,2.5c-0.1,1-0.2,1.9-0.3,2.9l-20.2-17.3L1004.1,478.9z"/>
			<path class="st2" d="M1007,484.2C1007,484.2,1007,484.2,1007,484.2c-7.3-6.2-14.6-12.4-21.9-18.5l1.7,1.2L1007,484.2z"/>
			<polygon class="st2" points="1004.1,478.9 986.8,466.9 959.6,443.6 			"/>
			<polygon class="st2" points="994.5,515.1 994.8,517.9 944.7,440.9 944.7,440.1 959.7,457.3 			"/>
			<path class="st2" d="M986.8,466.9l-1.7-1.2c-11.9-10.1-23.8-20.2-35.8-30.3l10.4,8.2L986.8,466.9z"/>
			<path class="st2" d="M985,465.7l-34.8-24.1l-5.6-9.3l0.3-0.4l4.3,3.4C961.2,445.5,973.1,455.6,985,465.7z"/>
			<polygon class="st6" points="790.9,484.9 790.5,485.9 779.1,604 770.6,616 656.5,776.6 649.6,776.6 773.4,602.1 784.7,482.7 
				846,348.7 886.1,330.1 963.4,215.3 900.6,115.9 900.4,115.5 904.8,112.1 969.9,215.8 890.4,333.8 851.8,352 			"/>
			<polygon class="st5" points="957,687 969.9,701.1 808.6,733.5 656.5,776.6 770.6,616 779.1,604 790.5,485.9 790.9,484.9 
				851.8,352 890.4,333.8 941.4,429.6 944.9,436 944.8,437.8 944.7,440.1 942.6,437.7 944.7,440.9 940.3,570 951.7,681.2 			"/>
			<polygon class="st4" points="864.7,122.9 885,127.5 900.4,115.5 900.6,115.9 963.4,215.3 886.1,330.1 846,348.7 784.7,482.7 
				773.4,602.1 649.6,776.6 590.5,776.3 565.6,726.6 532.7,655.4 570.2,476.8 660.6,367.9 670.1,356.5 765.5,267.9 769.1,252.8 
				799.7,124 820.3,124.8 832,115.6 			"/>
			<polygon class="st2" points="959.7,457.3 944.7,440.1 944.8,437.8 950.3,441.6 			"/>
			<polygon class="st2" points="950.3,441.6 944.8,437.8 944.9,436 941.4,429.6 941.7,429.4 945,432 944.7,432.3 			"/>
			<polygon class="st5" points="944.7,440.1 944.7,440.9 942.6,437.7 			"/>
			<polygon class="st7" points="904.8,112.1 900.4,115.5 885,127.5 864.7,122.9 832,115.6 820.3,124.8 799.7,124 810.9,77.2 
				858.6,38.6 934.2,104.2 907.2,110.2 			"/>
			<polygon class="st2" points="565.6,726.6 590.5,776.3 513.8,776 508.9,708.5 449.8,594.9 429.4,456.4 495.2,574.5 532.7,655.4 
							"/>
			<polygon class="st4" points="285.9,288.1 297.7,286.1 429.4,456.4 449.8,594.9 508.9,708.5 513.8,776 143.2,774.3 0,812.8 
				-0.5,677.1 0.3,677.1 67.3,527.3 140.2,449.2 148.4,440.4 203.3,302.5 			"/>
			<path class="st6" d="M203.3,302.5l-54.9,137.9l-8.3,8.9c-0.9-3.1-1.8-6.2-2.6-9.3l4.6-4.9l52.1-130.8L203.3,302.5z"/>
			<path class="st5" d="M137.1,438.4l-21.7,14.9c-22.5,12.6-50.3,23.6-70.3,39.4c-19,15.1-31.6,40.9-45.3,60.4h0l0.4-96.6
				l122.6-113.5l71.4-38.8h0l-52.1,130.8L137.1,438.4z"/>
			<path class="st5" d="M142.1,434.9l-4.6,4.9c-0.1-0.5-0.3-1-0.4-1.5L142.1,434.9z"/>
			<path class="st6" d="M137.6,439.9c0.9,3.1,1.8,6.2,2.6,9.3l-72.8,78.1L0.3,677.1h-0.8l-0.1-17.4l61-136.1L137.6,439.9z"/>
			<path class="st5" d="M137.1,438.4c0.1,0.5,0.3,1,0.4,1.5l-77.2,83.6l-61,136.1L-0.2,553h0c13.7-19.5,26.3-45.3,45.3-60.4
				c19.9-15.8,47.8-26.8,70.3-39.4L137.1,438.4z"/>
		</g>
		<g>
			<path class="st8" d="M1158,331.9c-0.3,1.1-0.7,2.2-1,3.3"/>
			<line class="st9" x1="203.3" y1="302.5" x2="203.3" y2="302.5"/>
			<path class="st10" d="M1.2,1039.2c173.2-90.2,369.7-140.3,567.4-143.8c71.3-1.3,146,2.7,210.3-26.7c35.5-16.3,65.1-41.7,98.2-62
				c47.5-29.1,102.2-47.6,158.4-53.3c39.8-4.1,80-1.9,119.8-5.6c43.6-4.1,86.5-15.2,126.2-32.9c21.2-9.4,46.1-20.2,60.2-37.1
				c5-6,8.7-12.7,10.4-20.4c5.4-24.6,10.4-43.7-6.5-68.5c-0.4-0.6-0.9-1.3-1.4-2c-0.3-0.4-0.6-0.9-1-1.3"/>
			<path class="st10" d="M1332.9,570c17.9,12.5,57.8,39.1,71.5,55.7c12.3,14.9,20.8,33.3,20.4,52c0,2.2-0.2,4.3-0.5,6.5
				c-4,29.6-30.3,52-56.9,68c-53.4,32-118.3,53-153,103c-9.1,13.2-15.8,28.5-14.7,44.2c1.9,25.7,24,45.8,46.6,60.2
				c51.6,32.9,112.8,50.3,174.3,59.4c61.5,9,124,10.2,186.2,13.3c104.8,5.3,209,16.2,313.1,28.7c0.2,0,0.4,0.1,0.6,0.1"/>
			<polyline class="st10" points="429.4,456.4 297.7,286.1 285.9,288.1 203.3,302.5 194.2,304.1 194.2,304.1 193.2,304.3 			"/>
			<line class="st10" x1="1298" y1="518.8" x2="1296" y2="516.7"/>
			<polyline class="st10" points="1560.3,211.2 1439.9,290.6 1308.2,329.2 1194.8,395.2 1194.8,395.2 			"/>
			<path class="st10" d="M904.7,112L904.7,112l65.2,103.8l-79.6,118l-10.2,105.1l-40.3,74c5.1,27.4,9.7,55,15.3,82.3
				c2.6,12.8-3.8,20.8-9.7,32c-7.4,14-14.7,28.1-22.1,42.1c-11.6,22.1-23.2,44.2-34.8,66.3"/>
			<polyline class="st10" points="656.5,776.6 770.6,616 779.1,604 790.5,485.9 790.9,484.9 851.8,352 890.4,333.8 941.4,429.6 
				944.9,436 944.8,437.8 944.7,440.1 944.7,440.9 940.3,570 951.7,681.2 957,687 969.9,701.1 			"/>
			<polyline class="st10" points="194.2,304.1 194.2,304.1 122.8,342.9 0.2,456.4 			"/>
			<polyline class="st10" points="590.5,776.3 565.6,726.6 532.7,655.4 495.2,574.5 429.4,456.4 449.8,594.9 508.9,708.5 			"/>
			<line class="st10" x1="532.7" y1="655.4" x2="570.2" y2="476.8"/>
			<polyline class="st10" points="1287.2,507.4 1326.4,424.6 1446.7,354.2 1560.3,211.2 1564.2,213 1780.6,317.9 1905.5,560.9 
				1919.3,579.3 			"/>
			<polyline class="st10" points="194.2,304.1 194.2,304.1 142.1,434.9 137.6,439.9 60.3,523.5 -0.6,659.6 			"/>
			<polyline class="st10" points="-0.1,812.8 0,812.8 143.2,774.3 513.8,776 590.5,776.3 649.6,776.6 656.5,776.6 808.6,733.5 
				969.9,701.1 			"/>
			<polyline class="st10" points="1424.8,677.7 1540.8,687.7 1552.7,688.7 1887.3,717.6 1919.5,736.4 1920.1,736.8 			"/>
			<polyline class="st10" points="508.9,708.5 513.8,776 513.8,776.2 			"/>
			<polyline class="st10" points="1450.3,360 1500.6,441.7 1501.2,442.8 1487.6,549.5 1549.9,682.8 1552.7,688.7 			"/>
			<polyline class="st10" points="1299.1,520 1332.8,570 1332.9,570 1344.3,586.9 			"/>
			<polyline class="st10" points="969.9,701.1 1059.9,695.5 1074.8,694.6 1104.1,692.7 1129.3,691.1 1273.9,682.1 1341.7,677.8 
				1344.3,677.7 			"/>
			<polyline class="st10" points="-0.6,659.6 -0.5,677.1 0,812.8 1,1039.2 1.2,1083.1 			"/>
			<line class="st10" x1="1.2" y1="1083.1" x2="1920" y2="1083.1"/>
			<polyline class="st10" points="1919.3,579.3 1919.5,736.4 1920,1060.9 1920,1083.1 			"/>
			<line class="st11" x1="900.6" y1="115.9" x2="963.4" y2="215.3"/>
			<line class="st11" x1="963.4" y1="215.3" x2="886.1" y2="330.1"/>
			<line class="st11" x1="846" y1="348.7" x2="886.1" y2="330.1"/>
			<line class="st11" x1="784.7" y1="482.7" x2="846" y2="348.7"/>
			<line class="st11" x1="773.4" y1="602.1" x2="784.7" y2="482.7"/>
			<line class="st11" x1="649.6" y1="776.6" x2="773.4" y2="602.1"/>
			<polyline class="st11" points="1291.4,511.8 1330.2,428.2 1450.3,360 1564.2,213 			"/>
			<polyline class="st10" points="1296,516.7 1298,518.8 1298,518.8 			"/>
			<polyline class="st10" points="1287.2,507.4 1291.4,511.8 1296,516.7 			"/>
			<path class="st12" d="M-0.2,553c13.7-19.5,26.3-45.3,45.3-60.4c19.9-15.8,47.8-26.8,70.3-39.4l21.7-14.9l5-3.4"/>
			<polyline class="st12" points="154.8,345.2 103.8,381.1 45.2,473.7 			"/>
			<polyline class="st12" points="470.3,553 472.2,594.6 511.9,641.8 530.8,747.6 			"/>
			<polyline class="st12" points="355.1,583.3 396.6,708 476,747.6 			"/>
			<path class="st12" d="M1029.6,383c-0.1,0.1-0.1,0.1-0.2,0.2c-16.5,16.8-19.1,59.4-21.7,91.6c-0.2,2.1-0.4,4.2-0.5,6.3
				c0,0.1,0,0.2,0,0.3c-0.1,1-0.2,1.9-0.3,2.9c0,0,0,0,0,0c-0.5,5.9-1.1,11.3-1.9,15.9"/>
			<line class="st12" x1="389.1" y1="439.7" x2="298.4" y2="554.9"/>
			<path class="st12" d="M266.3,636.2c6.4-51.3,12.7-102.5,19.1-153.8c3.5-28.5,11.3-59.5,11-88.3c-0.3-21.1-9.8-22.6-29-35.3
				c-13.6-9-27.2-17.9-40.8-26.9"/>
			<polyline class="st12" points="203.9,309.3 260.6,322.5 285.9,288.1 287.1,286.6 			"/>
			<polygon class="st12" points="934.2,104.2 934.7,104.1 860.2,35.8 811,76.9 810.9,77.2 798.9,124 799.7,124 820.3,124.8 
				832,115.6 864.7,122.9 885,127.5 900.4,115.5 904.8,112.1 907.2,110.2 			"/>
			<path class="st12" d="M135.9,434c0.4,1.5,0.8,2.9,1.2,4.4c0.1,0.5,0.3,1,0.4,1.5c0.9,3.1,1.8,6.2,2.6,9.3
				c4.9,17.5,9.9,35,14.8,52.5c8.8,31.3,29.6,73.4,29.9,105.8c0.2,24.9-24.9,57.9-36,80.1c-10.6,21.2-21.2,42.5-31.9,63.7"/>
			<line class="st12" x1="1398.1" y1="573.8" x2="1409.4" y2="498.2"/>
			<polyline class="st12" points="1332,522.8 1424.6,415.1 1473.7,643.7 			"/>
			<polyline class="st12" points="1481.2,275.3 1435.9,330.1 1320.6,358.4 1262.1,456.7 			"/>
			<line class="st12" x1="1821.4" y1="564.4" x2="1908.3" y2="645.6"/>
			<line class="st12" x1="1675.9" y1="383" x2="1755.2" y2="611.6"/>
			<line class="st12" x1="1594.6" y1="473.7" x2="1666.4" y2="624.8"/>
			<path class="st12" d="M1560.6,218.6c11.7,21.7,25.1,42.5,37.8,63.6c12.5,20.9,21.4,52.3,36.5,70.6c12.6,15.3,44.7,22,63.4,29.5
				c44.2,17.9,88.4,35.7,132.6,53.6"/>
			<polyline class="st12" points="661.2,362.2 660.6,367.9 642.3,558.7 566.7,719.3 			"/>
			<polyline class="st12" points="767,254.5 769.1,252.8 844.5,192.1 			"/>
			<line class="st12" x1="772.7" y1="384.9" x2="646.1" y2="747.6"/>
			<path class="st12" d="M842.6,69.3c7.3,17.9,14.7,35.7,22.1,53.6c1.7,4.1,3.4,8.3,5.1,12.4c12.9,31.3,38.8,67.3,18.5,98.9
				c-30.7,47.9-69.9,92-104.3,137.4"/>
			<polyline class="st12" points="974.8,139.2 974.9,139.5 986.2,229.9 1029.4,383.2 1031.5,390.5 			"/>
			<path class="st12" d="M1149.8,345.4c-0.2,1.2-0.5,2.4-0.7,3.6c-2.2,11-4.3,22-6.5,32.9c-2.3,11.4-4.5,22.9-6.8,34.3
				c-3.4,17.4-6.9,34.8-10.3,52.2c-2.3,11.8-7.3,24.5-2.8,35.7c5.5,14,11.4,27.9,17.3,41.8c3,6.9,6,13.8,9,20.8
				c1.2,2.8,3.3,6.4,5.2,10.1c2.2,4.3,4.2,8.7,4.3,12.2c0.2,10.5-13.3,27.5-18.3,36.7c-0.6,1.1-1.2,2.2-1.8,3.3
				c-6.3,11.8-12.7,23.5-19,35.3c-0.3,0.5-0.5,1-0.8,1.5c-4.8,9-9.7,18-14.6,27c-0.2,0.3-0.3,0.6-0.5,0.9"/>
			<polyline class="st12" points="1296.2,516.4 1296,516.7 1296,516.7 1290.4,526.1 1284.9,535.4 1275.6,551 1273.9,553.7 
				1258.6,579.4 1246.9,598.9 1219.2,682.1 			"/>
			<polyline class="st12" points="769.5,614 770.6,616 802.3,671.9 			"/>
			<path class="st12" d="M952.9,691.2l4.1-4.3l32.6-34.4c6.3-6.6,15.5-10.3,24.4-14.5c7.7-3.6,15.1-7.7,20-14.4
				c7.7-10.7,10.3-28.3,14.1-41.9c0.4-1.6,0.9-3.1,1.4-4.5"/>
			<polyline class="st12" points="1534.1,691.2 1540.8,687.7 1549.9,682.8 1592,660.4 			"/>
			<polyline class="st12" points="1489.7,444.1 1500.6,441.7 1534.1,434.4 1561.1,465.3 			"/>
		</g>
	</g>
</g>
<g id="Cracking">
</g>
</svg>
